<?xml version="1.0" standalone="no"?>
<!DOCTYPE svg PUBLIC "-//W3C//DTD SVG 1.1//EN" "http://www.w3.org/Graphics/SVG/1.1/DTD/svg11.dtd" >
<svg>
<metadata>
Created by FontForge 20090622 at Tue Apr 30 01:51:25 2019
 By deploy user
Copyright 2011 Monotype Imaging Inc. All rights reserved.
</metadata>
<defs>
<font id="HarmoniaSansProCyr-Bold" horiz-adv-x="406" >
  <font-face 
    font-family="Harmonia Sans Pro Cyr"
    font-weight="700"
    font-stretch="normal"
    units-per-em="1000"
    panose-1="2 11 8 2 3 4 2 2 2 4"
    ascent="730"
    descent="-270"
    x-height="479"
    cap-height="682"
    bbox="-186 -258 1253 979"
    underline-thickness="50"
    underline-position="-50"
    unicode-range="U+0020-U+FB04"
  />
<missing-glyph horiz-adv-x="500" 
d="M12 0v665h475v-665h-475zM88 618l162 -243l161 243h-323zM60 575v-484l40 61l80 120l41 61zM440 575l-162 -242l162 -243v485zM411 48l-161 242l-162 -242h323z" />
    <glyph glyph-name="IJ" unicode="IJ" horiz-adv-x="665" 
d="M68 0v682h143v-682h-143zM459 201v481h144v-474q0 -123 -51.5 -176.5t-158.5 -53.5q-61 0 -107 20v120q40 -18 87 -18q45 0 65.5 23.5t20.5 77.5z" />
    <glyph glyph-name="ij" unicode="ij" horiz-adv-x="519" 
d="M62 0v479h135v-479h-135zM59 579v129h142v-129h-142zM456 479v-513q0 -217 -184 -217q-54 0 -94 14v114q30 -10 67 -10q38 0 57 22t19 75v515h135zM318 579v129h142v-129h-142z" />
    <glyph glyph-name="napostrophe" unicode="&#x27;n" horiz-adv-x="698" 
d="M178 0v479h133v-60h4q47 75 142 75q84 0 133.5 -56t49.5 -163v-275h-135v266q0 53 -23.5 81t-66.5 28q-46 0 -74 -32t-28 -90v-253h-135zM-21 578v142h153v-68q0 -110 -57 -198h-75q34 52 41 124h-62z" />
    <glyph glyph-name="f_f" unicode="ff" horiz-adv-x="642" 
d="M219 365v-365h-136v365h-68v114h68v73q0 85 44 129.5t128 44.5q43 0 83 -11v-111q-30 8 -54 8q-65 0 -65 -69v-64h180v73q0 85 44 129.5t127 44.5q43 0 83 -11v-111q-30 8 -54 8q-65 0 -65 -69v-64h104v-114h-104v-365h-135v365h-180z" />
    <glyph glyph-name="fi" unicode="fi" horiz-adv-x="596" 
d="M15 365v114h68v73q0 85 44 129.5t128 44.5q43 0 83 -11v-111q-30 8 -54 8q-65 0 -65 -69v-64h104v-114h-104v-365h-136v365h-68zM398 0v479h135v-479h-135zM395 579v129h142v-129h-142z" />
    <glyph glyph-name="fl" unicode="fl" horiz-adv-x="598" 
d="M15 365v114h68v73q0 85 44 129.5t128 44.5q43 0 83 -11v-111q-30 8 -54 8q-65 0 -65 -69v-64h104v-114h-104v-365h-136v365h-68zM400 0v720h135v-720h-135z" />
    <glyph glyph-name="f_f_i" unicode="ffi" horiz-adv-x="911" 
d="M714 0v479h135v-479h-135zM711 579v129h142v-129h-142zM219 365v-365h-136v365h-68v114h68v73q0 85 44 129.5t128 44.5q43 0 83 -11v-111q-30 8 -54 8q-65 0 -65 -69v-64h180v73q0 85 44 129.5t127 44.5q43 0 83 -11v-111q-30 8 -54 8q-65 0 -65 -69v-64h104v-114h-104
v-365h-135v365h-180z" />
    <glyph glyph-name="f_f_l" unicode="ffl" horiz-adv-x="911" 
d="M714 0v720h135v-720h-135zM219 365v-365h-136v365h-68v114h68v73q0 85 44 129.5t128 44.5q43 0 83 -11v-111q-30 8 -54 8q-65 0 -65 -69v-64h180v73q0 85 44 129.5t127 44.5q43 0 83 -11v-111q-30 8 -54 8q-65 0 -65 -69v-64h104v-114h-104v-365h-135v365h-180z" />
    <glyph glyph-name=".notdef" horiz-adv-x="500" 
d="M12 0v665h475v-665h-475zM88 618l162 -243l161 243h-323zM60 575v-484l40 61l80 120l41 61zM440 575l-162 -242l162 -243v485zM411 48l-161 242l-162 -242h323z" />
    <glyph glyph-name=".null" horiz-adv-x="0" 
 />
    <glyph glyph-name="nonmarkingreturn" horiz-adv-x="333" 
 />
    <glyph glyph-name="space" unicode=" " horiz-adv-x="250" 
 />
    <glyph glyph-name="exclam" unicode="!" horiz-adv-x="276" 
d="M67 0v129h142v-129h-142zM64 682h148l-14 -471h-120z" />
    <glyph glyph-name="quotedbl" unicode="&#x22;" horiz-adv-x="440" 
d="M54 721h122l-10 -242h-103zM264 721h122l-10 -242h-104z" />
    <glyph glyph-name="numbersign" unicode="#" horiz-adv-x="612" 
d="M491 488h109l-19 -83h-108l-28 -132h110l-17 -84h-111l-41 -189h-97l42 189h-116l-42 -189h-96l42 189h-108l18 84h106l30 132h-109l17 83h110l41 194h97l-42 -194h115l42 194h97zM377 405h-116l-30 -132h118z" />
    <glyph glyph-name="dollar" unicode="$" horiz-adv-x="573" 
d="M501 487h-130q-3 34 -25 53.5t-59 19.5q-36 0 -58 -17t-22 -46q0 -30 24.5 -47t93.5 -40q98 -33 142.5 -82.5t44.5 -118.5q0 -63 -45 -116.5t-128 -68.5v-90h-107v89q-78 13 -125 63t-54 130h136q12 -93 101 -93q40 0 64 22.5t24 54.5q0 38 -27.5 61t-95.5 45
q-97 32 -138 78t-41 113q0 62 43.5 105t112.5 56v77h107v-75q74 -12 116 -59t46 -114z" />
    <glyph glyph-name="percent" unicode="%" horiz-adv-x="817" 
d="M37 513q0 93 50.5 141.5t116.5 48.5q63 0 112 -46.5t49 -141.5q0 -54 -16 -94.5t-42 -61.5t-52.5 -30.5t-53.5 -9.5q-64 0 -114 47.5t-50 146.5zM266 512q0 51 -17 79t-48 28q-29 0 -47.5 -26.5t-18.5 -79.5q0 -109 67 -109q28 0 46 27t18 81zM453 172q0 93 50.5 141.5
t116.5 48.5q63 0 112 -46.5t49 -141.5q0 -55 -16 -95t-42.5 -60.5t-52.5 -30t-53 -9.5q-65 0 -114.5 47t-49.5 146zM682 171q0 106 -66 106q-28 0 -46.5 -26t-18.5 -79q0 -109 66 -109q28 0 46.5 27t18.5 81zM595 682h97l-468 -682h-97z" />
    <glyph glyph-name="ampersand" unicode="&#x26;" horiz-adv-x="643" 
d="M473 335v9h122v-8q0 -118 -68 -203q37 -40 70 -40q18 0 30 4v-107q-21 -7 -52 -7q-40 0 -69.5 15.5t-60.5 50.5q-85 -67 -189 -67q-109 0 -166 56t-57 140q0 67 35.5 115t107.5 86q-60 90 -60 161q0 67 49 114.5t144 47.5q81 0 134 -43t53 -113q0 -60 -38 -105.5
t-115 -85.5l104 -134q26 49 26 114zM261 86q62 0 108 42l-133 169q-75 -50 -75 -115q0 -40 28 -68t72 -28zM244 540q0 -51 40 -105q47 23 69.5 47.5t22.5 58.5q0 23 -18 41t-50 18q-31 0 -47.5 -18.5t-16.5 -41.5z" />
    <glyph glyph-name="quotesingle" unicode="'" horiz-adv-x="230" 
d="M54 721h122l-10 -242h-103z" />
    <glyph glyph-name="parenleft" unicode="(" horiz-adv-x="361" 
d="M344 -215h-129q-75 98 -113 225.5t-38 252.5q0 127 38 253.5t113 226.5h129q-76 -98 -112 -224t-36 -256q0 -129 36 -255.5t112 -222.5z" />
    <glyph glyph-name="parenright" unicode=")" horiz-adv-x="361" 
d="M146 -215h-129q75 96 111 222.5t36 255.5q0 130 -36 256t-111 224h129q74 -100 112 -226.5t38 -253.5q0 -126 -38 -253t-112 -225z" />
    <glyph glyph-name="asterisk" unicode="*" horiz-adv-x="440" 
d="M16 533l29 93l132 -49l-7 144h99l-8 -144l132 49l31 -91l-136 -37l90 -112l-84 -56l-75 119l-76 -119l-84 56l90 112z" />
    <glyph glyph-name="plus" unicode="+" horiz-adv-x="672" 
d="M594 213h-207v-213h-103v213h-207v103h207v214h103v-214h207v-103z" />
    <glyph glyph-name="comma" unicode="," horiz-adv-x="276" 
d="M57 0v152h162v-66q0 -119 -66 -221h-79q40 69 49 135h-66z" />
    <glyph glyph-name="hyphen" unicode="-" horiz-adv-x="465" 
d="M397 211h-322v105h322v-105z" />
    <glyph glyph-name="period" unicode="." horiz-adv-x="276" 
d="M57 0v152h162v-152h-162z" />
    <glyph glyph-name="slash" unicode="/" horiz-adv-x="415" 
d="M285 720h117l-309 -834h-116z" />
    <glyph glyph-name="zero" unicode="0" horiz-adv-x="573" 
d="M31 344q0 94 23 166.5t61.5 113t83 60.5t93.5 20q46 0 88 -18t79.5 -57t60 -111.5t22.5 -169.5q0 -86 -17.5 -154t-44 -107.5t-61.5 -65.5t-67 -35t-64 -9q-47 0 -89.5 18t-82 57.5t-62.5 114.5t-23 177zM401 344q0 118 -30.5 178.5t-83.5 60.5q-48 0 -81 -58t-33 -178
q0 -128 31.5 -188.5t85.5 -60.5q46 0 78.5 60t32.5 186z" />
    <glyph glyph-name="one" unicode="1" horiz-adv-x="573" 
d="M226 0v560h-100v122h238v-682h-138z" />
    <glyph glyph-name="two" unicode="2" horiz-adv-x="573" 
d="M69 0v104l204 229q46 51 71.5 92t25.5 80q0 34 -21.5 56t-58.5 22q-40 0 -62.5 -28t-22.5 -72h-140q2 97 60 159t168 62q101 0 160.5 -54t59.5 -139q0 -64 -34.5 -122.5t-114.5 -141.5l-117 -125h276v-122h-454z" />
    <glyph glyph-name="three" unicode="3" horiz-adv-x="573" 
d="M202 504h-135q2 88 61 144t160 56q103 0 161.5 -50.5t58.5 -129.5q0 -55 -33 -95t-78 -53v-3q62 -15 98 -61.5t36 -114.5q0 -91 -64 -154.5t-180 -63.5q-113 0 -174 57.5t-66 156.5h135q4 -46 31.5 -73t74.5 -27q46 0 74 30.5t28 80.5q0 48 -32 76.5t-93 28.5h-41v110h45
q46 0 72 25t26 67q0 32 -21 55t-60 23q-41 0 -61.5 -24.5t-22.5 -60.5z" />
    <glyph glyph-name="four" unicode="4" horiz-adv-x="573" 
d="M543 126h-87v-126h-134v126h-294v111l293 445h135v-440h87v-116zM269 419l-119 -177h172v183q0 55 1 83h-3q-16 -36 -51 -89z" />
    <glyph glyph-name="five" unicode="5" horiz-adv-x="573" 
d="M245 560l-13 -123q20 5 48 5q110 0 176 -61t66 -165q0 -96 -66 -167t-175 -71q-108 0 -168.5 58.5t-66.5 145.5h144q5 -36 28 -58t65 -22q39 0 66 29t27 76q0 54 -35 84.5t-101 30.5t-153 -18l35 378h353v-122h-230z" />
    <glyph glyph-name="six" unicode="6" horiz-adv-x="573" 
d="M27 227q0 60 24 115t69 120l155 220h153l-150 -213q11 4 44 4q97 -4 160.5 -73t63.5 -173q0 -105 -73.5 -177t-187.5 -72q-115 0 -186.5 69.5t-71.5 179.5zM168 226q0 -56 34 -91.5t84 -35.5q51 0 85 35.5t34 91.5q0 55 -33.5 92t-85.5 37t-85 -35.5t-33 -93.5z" />
    <glyph glyph-name="seven" unicode="7" horiz-adv-x="573" 
d="M512 682v-114l-259 -568h-152l267 560h-304v122h448z" />
    <glyph glyph-name="eight" unicode="8" horiz-adv-x="573" 
d="M198 502q0 -40 26 -66.5t62 -26.5q39 0 64 26.5t25 66.5t-25 64t-64 24q-37 0 -62.5 -24.5t-25.5 -63.5zM183 199q0 -46 29.5 -76.5t76.5 -30.5q46 0 75 29t29 78t-29 79t-75 30t-76 -30.5t-30 -78.5zM532 192q0 -88 -63.5 -151t-180.5 -63q-118 0 -182.5 60t-64.5 148
q0 131 119 180v2q-99 43 -99 146q0 80 61.5 135t165.5 55q100 0 161.5 -53.5t61.5 -128.5q0 -56 -27 -97t-72 -57v-2q120 -43 120 -174z" />
    <glyph glyph-name="nine" unicode="9" horiz-adv-x="573" 
d="M546 455q0 -60 -24 -115t-69 -120l-155 -220h-153l150 213q-11 -4 -44 -4q-99 3 -161.5 72t-62.5 174t73.5 177t187.5 72q115 0 186.5 -69.5t71.5 -179.5zM405 456q0 56 -34 91.5t-83 35.5q-52 0 -86 -35.5t-34 -91.5t33.5 -92.5t86.5 -36.5q51 0 84 35.5t33 93.5z" />
    <glyph glyph-name="colon" unicode=":" horiz-adv-x="288" 
d="M63 320v153h163v-153h-163zM63 0v152h163v-152h-163z" />
    <glyph glyph-name="semicolon" unicode=";" horiz-adv-x="288" 
d="M63 0v152h163v-66q0 -117 -67 -221h-79q39 66 50 135h-67zM63 320v153h163v-153h-163z" />
    <glyph glyph-name="less" unicode="&#x3c;" horiz-adv-x="672" 
d="M586 -6l-500 227v88l500 227v-115l-357 -155v-2l357 -154v-116z" />
    <glyph glyph-name="equal" unicode="=" horiz-adv-x="672" 
d="M595 326h-518v102h518v-102zM595 101h-518v103h518v-103z" />
    <glyph glyph-name="greater" unicode="&#x3e;" horiz-adv-x="672" 
d="M586 220l-500 -226v115l356 155v2l-356 154v116l500 -227v-89z" />
    <glyph glyph-name="question" unicode="?" horiz-adv-x="467" 
d="M337 326q-48 -42 -48 -115h-120q0 58 10 93t40 69q4 4 16.5 17.5t15.5 17l12.5 14.5t11.5 14.5t8 12.5t8 14.5l5 14t3.5 16t0.5 16.5q0 31 -20 52t-52 21q-33 0 -54.5 -23.5t-21.5 -65.5h-134q2 97 59.5 153.5t154.5 56.5q96 0 153 -52.5t57 -133.5q0 -100 -105 -192z
M158 0v129h142v-129h-142z" />
    <glyph glyph-name="at" unicode="@" horiz-adv-x="935" 
d="M884 356q0 -116 -58 -191t-143 -75q-56 0 -90 24t-39 70h-4q-23 -46 -62 -70t-82 -24q-73 0 -113 51t-40 129q0 100 56 176.5t149 76.5q69 0 104 -65h3l9 56h106l-36 -236q-6 -46 -6 -54q0 -22 13 -37.5t41 -15.5q43 0 70 50.5t27 129.5q0 131 -78 201.5t-234 70.5
q-153 0 -242 -98t-89 -237q0 -134 88 -216t237 -82q127 0 202 36l29 -67q-84 -50 -239 -50q-183 0 -297.5 104t-114.5 276q0 177 120.5 296t309.5 119q192 0 297.5 -98.5t105.5 -249.5zM547 348q0 41 -18.5 65.5t-52.5 24.5q-50 0 -81 -48t-31 -115q0 -47 18 -73.5t49 -26.5
q54 0 85 51t31 122z" />
    <glyph glyph-name="A" unicode="A" horiz-adv-x="664" 
d="M7 0l265 682h134l251 -682h-147l-53 155h-252l-54 -155h-144zM296 419l-57 -162h183l-56 163q-20 58 -32 104h-5q-13 -52 -33 -105z" />
    <glyph glyph-name="B" unicode="B" horiz-adv-x="564" 
d="M68 0v682h189q109 0 172.5 -44t63.5 -128q0 -55 -34.5 -92.5t-87.5 -50.5v-2q75 -10 116.5 -57.5t41.5 -111.5q0 -92 -66.5 -144t-171.5 -52h-223zM385 208q0 44 -30 70.5t-84 26.5h-68v-197h74q52 0 80 26t28 74zM352 496q0 38 -27 58.5t-75 20.5h-47v-165h52
q97 0 97 86z" />
    <glyph glyph-name="C" unicode="C" horiz-adv-x="765" 
d="M387 704q133 0 219 -72.5t106 -167.5h-154q-14 50 -60 84t-112 34q-91 0 -149 -67t-58 -173q0 -101 58.5 -171.5t150.5 -70.5q70 0 114.5 37t62.5 92h159q-35 -112 -121 -181.5t-219 -69.5q-156 0 -253.5 103.5t-97.5 261.5q0 156 100 258.5t254 102.5z" />
    <glyph glyph-name="D" unicode="D" horiz-adv-x="710" 
d="M68 682h234q177 0 276 -97t99 -244q0 -145 -101.5 -243t-275.5 -98h-232v682zM211 126h86q115 0 174.5 60.5t59.5 154.5q0 98 -60.5 156.5t-173.5 58.5h-86v-430z" />
    <glyph glyph-name="E" unicode="E" horiz-adv-x="544" 
d="M475 682v-124h-264v-147h255v-118h-255v-169h275v-124h-418v682h407z" />
    <glyph glyph-name="F" unicode="F" horiz-adv-x="517" 
d="M476 682v-124h-265v-164h255v-118h-255v-276h-143v682h408z" />
    <glyph glyph-name="G" unicode="G" horiz-adv-x="770" 
d="M353 380h384v-33q0 -54 -13 -106t-40.5 -99.5t-67.5 -83t-99 -57t-129 -21.5q-155 0 -255 103t-100 254q0 158 101 261.5t254 103.5q121 0 207 -56.5t121 -155.5h-155q-23 43 -67.5 66.5t-102.5 23.5q-91 0 -152 -65t-61 -174q0 -110 61.5 -174.5t159.5 -64.5
q74 0 126 46t60 114h-232v118z" />
    <glyph glyph-name="H" unicode="H" horiz-adv-x="696" 
d="M484 0v290h-273v-290h-143v682h143v-268h273v268h143v-682h-143z" />
    <glyph glyph-name="I" unicode="I" horiz-adv-x="278" 
d="M68 0v682h143v-682h-143z" />
    <glyph glyph-name="J" unicode="J" horiz-adv-x="386" 
d="M181 201v481h144v-474q0 -123 -51.5 -176.5t-158.5 -53.5q-61 0 -107 20v120q40 -18 87 -18q45 0 65.5 23.5t20.5 77.5z" />
    <glyph glyph-name="K" unicode="K" horiz-adv-x="651" 
d="M490 0l-237 292l-21.5 -22t-20.5 -22v-248h-143v682h143v-261l248 261h179l-287 -295l320 -387h-181z" />
    <glyph glyph-name="L" unicode="L" horiz-adv-x="494" 
d="M68 0v682h143v-558h275v-124h-418z" />
    <glyph glyph-name="M" unicode="M" horiz-adv-x="822" 
d="M704 682l84 -682h-138l-33 335q-8 76 -14 150h-6q0 -1 -16.5 -62l-24.5 -89l-99 -334h-100l-101 339q-30 98 -39 146h-8q-2 -45 -11 -144l-35 -341h-129l81 682h158l100 -322q24 -77 36 -125h4q9 35 36 125l98 322h157z" />
    <glyph glyph-name="N" unicode="N" horiz-adv-x="678" 
d="M191 468h-4q4 -128 4 -129v-339h-123v682h123l190 -293q56 -86 106 -180h3q-3 102 -3 123v350h123v-682h-123l-174 267q-67 105 -122 201z" />
    <glyph glyph-name="O" unicode="O" horiz-adv-x="789" 
d="M179 341q0 -100 61.5 -167.5t153.5 -67.5t154 67.5t62 167.5t-59.5 167.5t-155.5 67.5q-92 0 -154 -67.5t-62 -167.5zM33 341q0 148 104 255.5t259 107.5q109 0 192.5 -51.5t125.5 -133.5t42 -178q0 -151 -103.5 -257t-257.5 -106q-72 0 -133 21.5t-102.5 57.5
t-70.5 83.5t-42.5 98t-13.5 102.5z" />
    <glyph glyph-name="P" unicode="P" horiz-adv-x="564" 
d="M400 461q0 46 -29 76t-88 30h-72v-211h69q120 0 120 105zM68 0v682h218q115 0 186.5 -55.5t71.5 -163.5q0 -105 -66 -163.5t-197 -58.5h-70v-241h-143z" />
    <glyph glyph-name="Q" unicode="Q" horiz-adv-x="789" 
d="M640 -110l-97 120q-69 -32 -149 -32q-90 0 -161.5 32.5t-114 86t-64.5 116.5t-22 128q0 148 104 255.5t259 107.5q109 0 192.5 -51.5t125.5 -133.5t42 -178q0 -157 -112 -264l91 -112zM177 341q0 -100 62 -167.5t154 -67.5q33 0 65 12l-89 109l94 75l93 -116
q53 66 53 155q0 100 -59.5 167.5t-155.5 67.5q-92 0 -154.5 -67.5t-62.5 -167.5z" />
    <glyph glyph-name="R" unicode="R" horiz-adv-x="606" 
d="M400 288l211 -288h-170l-185 268h-45v-268h-143v682h212q135 0 197 -58t62 -150q0 -71 -39 -120t-100 -66zM392 468q0 47 -27 73t-78 26h-76v-194h77q48 0 76 26t28 69z" />
    <glyph glyph-name="S" unicode="S" horiz-adv-x="562" 
d="M501 504h-135q-3 38 -25.5 61t-59.5 23q-34 0 -56 -20t-22 -53q0 -36 29 -57.5t89 -40.5q193 -63 193 -227q0 -83 -60 -147.5t-172 -64.5q-103 0 -167.5 58t-72.5 163h141q12 -105 101 -105q41 0 65.5 25.5t24.5 62.5q0 42 -28.5 68.5t-94.5 47.5q-186 62 -186 215
q0 85 62 138t155 53q97 0 156 -54.5t63 -145.5z" />
    <glyph glyph-name="T" unicode="T" horiz-adv-x="485" 
d="M170 0v558h-162v124h469v-124h-163v-558h-144z" />
    <glyph glyph-name="U" unicode="U" horiz-adv-x="635" 
d="M318 -22q-117 0 -188.5 70t-71.5 222v412h143v-423q0 -75 30.5 -117t85.5 -42q118 0 118 159v423h142v-410q0 -151 -69.5 -222.5t-189.5 -71.5z" />
    <glyph glyph-name="V" unicode="V" horiz-adv-x="627" 
d="M630 682l-254 -682h-129l-248 682h153l121 -364q27 -78 42 -147h3q11 52 42 148l122 363h148z" />
    <glyph glyph-name="W" unicode="W" horiz-adv-x="871" 
d="M544 0l-82 359q-16 76 -22 145h-4q-11 -92 -23 -142l-78 -362h-152l-175 682h142l85 -371q11 -46 25 -129h4q10 62 27 138l81 362h135l87 -369q9 -35 25 -131h4q8 60 22 130l79 370h139l-165 -682h-154z" />
    <glyph glyph-name="X" unicode="X" horiz-adv-x="615" 
d="M167 682l95 -148l48 -80h3q29 52 48 82l92 146h152l-222 -325l232 -357h-158l-97 157q-11 17 -30.5 50.5l-24.5 42.5h-2l-56 -95l-95 -155h-152l232 351l-224 331h159z" />
    <glyph glyph-name="Y" unicode="Y" horiz-adv-x="598" 
d="M228 0v272l-221 410h155l105 -203q25 -49 36 -85h2q16 40 37 84l99 204h150l-220 -409v-273h-143z" />
    <glyph glyph-name="Z" unicode="Z" horiz-adv-x="619" 
d="M55 558v124h510v-117l-348 -441h364v-124h-543v116l347 442h-330z" />
    <glyph glyph-name="bracketleft" unicode="[" horiz-adv-x="373" 
d="M315 728v-108h-106v-713h106v-107h-228v928h228z" />
    <glyph glyph-name="backslash" unicode="\" horiz-adv-x="432" 
d="M445 -114h-116l-320 834h117z" />
    <glyph glyph-name="bracketright" unicode="]" horiz-adv-x="373" 
d="M58 620v108h228v-928h-228v107h106v713h-106z" />
    <glyph glyph-name="asciicircum" unicode="^" horiz-adv-x="666" 
d="M614 326h-120l-160 269h-3l-160 -269h-120l230 378h103z" />
    <glyph glyph-name="underscore" unicode="_" horiz-adv-x="550" 
d="M0 -238v96h550v-96h-550z" />
    <glyph glyph-name="grave" unicode="`" horiz-adv-x="322" 
d="M27 677l66 87l159 -137l-54 -72z" />
    <glyph glyph-name="a" unicode="a" horiz-adv-x="602" 
d="M538 479v-479h-130v60h-4q-57 -76 -156 -76q-37 0 -73.5 15t-70 44.5t-54 80.5t-20.5 116q0 112 66.5 182t161.5 70t146 -75h4v62h130zM167 239q0 -57 32 -97.5t91 -40.5q49 0 84.5 39t35.5 98q0 62 -34 100.5t-85 38.5q-59 0 -91.5 -41t-32.5 -97z" />
    <glyph glyph-name="b" unicode="b" horiz-adv-x="602" 
d="M64 0v720h130v-298h4q64 70 158 70q36 0 73 -15.5t69.5 -45t53 -80.5t20.5 -114q0 -113 -67.5 -183t-158.5 -70q-93 0 -146 69h-4v-53h-132zM435 237q0 58 -32 98t-92 40q-50 0 -84.5 -38.5t-34.5 -99.5q0 -60 35 -99t85 -39q58 0 90.5 41.5t32.5 96.5z" />
    <glyph glyph-name="c" unicode="c" horiz-adv-x="549" 
d="M285 495q95 0 154 -53t72 -122h-134q-20 61 -93 61q-54 0 -85.5 -38.5t-31.5 -102.5q0 -61 32.5 -101.5t88.5 -40.5q70 0 95 66h137q-22 -80 -80.5 -130.5t-153.5 -50.5q-109 0 -182.5 71.5t-73.5 186.5q0 108 70 181t185 73z" />
    <glyph glyph-name="d" unicode="d" horiz-adv-x="602" 
d="M538 720v-720h-130v52h-4q-63 -69 -157 -69q-36 0 -73 15.5t-70 45t-53.5 80.5t-20.5 116q0 112 67 183.5t160 71.5q91 0 145 -71h4v296h132zM167 239q0 -57 32 -98t91 -41q49 0 84.5 39.5t35.5 98.5q0 62 -34 102t-85 40q-59 0 -91.5 -42t-32.5 -99z" />
    <glyph glyph-name="e" unicode="e" horiz-adv-x="553" 
d="M276 495q114 0 179 -73t65 -179q0 -23 -2 -36h-356q0 -50 36.5 -86.5t87.5 -36.5q62 0 96 50h131q-26 -67 -82.5 -109t-145.5 -42q-109 0 -182 72.5t-73 187.5q0 107 66.5 179.5t179.5 72.5zM275 401q-47 0 -77.5 -30t-34.5 -72h224q-5 43 -35.5 72.5t-76.5 29.5z" />
    <glyph glyph-name="f" unicode="f" horiz-adv-x="326" 
d="M15 365v114h68v73q0 85 44 129.5t128 44.5q43 0 83 -11v-111q-30 8 -54 8q-65 0 -65 -69v-64h104v-114h-104v-365h-136v365h-68z" />
    <glyph glyph-name="g" unicode="g" horiz-adv-x="602" 
d="M539 479v-464q0 -272 -257 -272q-100 0 -163.5 51t-77.5 141h135q18 -82 114 -82q60 0 91.5 37t31.5 107v61h-3q-58 -69 -153 -69q-96 0 -161 69.5t-65 182.5q0 108 66 180.5t166 72.5q93 0 145 -73h5v58h126zM168 242q0 -55 31.5 -95t90.5 -40q51 0 86.5 38t35.5 96
q0 61 -34.5 98.5t-86.5 37.5q-57 0 -90 -40.5t-33 -94.5z" />
    <glyph glyph-name="h" unicode="h" horiz-adv-x="579" 
d="M62 0v720h135v-301h4q47 75 141 75q83 0 132.5 -55.5t49.5 -163.5v-275h-135v267q0 53 -23.5 80.5t-66.5 27.5q-46 0 -74 -31.5t-28 -90.5v-253h-135z" />
    <glyph glyph-name="i" unicode="i" horiz-adv-x="259" 
d="M62 0v479h135v-479h-135zM59 579v129h142v-129h-142z" />
    <glyph glyph-name="j" unicode="j" horiz-adv-x="259" 
d="M197 479v-513q0 -217 -184 -217q-54 0 -94 14v114q30 -10 67 -10q38 0 57 22t19 75v515h135zM59 579v129h142v-129h-142z" />
    <glyph glyph-name="k" unicode="k" horiz-adv-x="536" 
d="M379 0l-151 197l-31 -30v-167h-135v720h135v-403l152 162h164l-192 -197l221 -282h-163z" />
    <glyph glyph-name="l" unicode="l" horiz-adv-x="259" 
d="M62 0v720h135v-720h-135z" />
    <glyph glyph-name="m" unicode="m" horiz-adv-x="870" 
d="M62 0v479h133v-60h2q52 75 139 75q51 0 88.5 -25t52.5 -61q20 35 62 60.5t93 25.5q84 0 132.5 -57t48.5 -162v-275h-135v271q0 45 -20.5 74.5t-60.5 29.5q-38 0 -65 -30t-27 -88v-257h-135v271q0 45 -22 74.5t-59 29.5q-42 0 -67 -31t-25 -87v-257h-135z" />
    <glyph glyph-name="n" unicode="n" horiz-adv-x="581" 
d="M62 0v479h133v-60h4q47 75 142 75q84 0 133.5 -56t49.5 -163v-275h-135v266q0 53 -23.5 81t-66.5 28q-46 0 -74 -32t-28 -90v-253h-135z" />
    <glyph glyph-name="o" unicode="o" horiz-adv-x="571" 
d="M30 240q0 111 73 183t183 72q112 0 184 -72.5t72 -182.5q0 -107 -72.5 -182t-183.5 -75q-110 0 -183 74t-73 183zM166 239q0 -59 34.5 -97.5t85.5 -38.5q54 0 86.5 38.5t32.5 97.5q0 58 -32 97t-87 39t-87.5 -38t-32.5 -98z" />
    <glyph glyph-name="p" unicode="p" horiz-adv-x="602" 
d="M64 -235v714h130v-57h4q58 70 154 70q84 0 152 -68t68 -187q0 -112 -67 -182.5t-161 -70.5q-91 0 -144 69h-4v-288h-132zM435 237q0 58 -32 98t-92 40q-50 0 -84.5 -38.5t-34.5 -99.5q0 -60 35 -99t85 -39q58 0 90.5 41.5t32.5 96.5z" />
    <glyph glyph-name="q" unicode="q" horiz-adv-x="602" 
d="M538 479v-714h-130v287h-4q-59 -69 -156 -69q-36 0 -73 15.5t-70 45t-54 80.5t-21 116q0 112 66.5 183.5t161.5 71.5q90 0 144 -71h4v55h132zM167 239q0 -57 32 -98t91 -41q49 0 84.5 39.5t35.5 98.5q0 62 -34 102t-85 40q-59 0 -91.5 -42t-32.5 -99z" />
    <glyph glyph-name="r" unicode="r" horiz-adv-x="404" 
d="M381 489v-126q-34 6 -64 6q-59 0 -89.5 -35.5t-30.5 -100.5v-233h-135v479h132v-74h3q21 38 58 63t82 25q27 0 44 -4z" />
    <glyph glyph-name="s" unicode="s" horiz-adv-x="441" 
d="M395 350h-119q-2 25 -17 39.5t-38 14.5t-36 -12.5t-13 -29.5q0 -21 19 -36.5t77 -35.5q138 -45 138 -153q0 -68 -49.5 -111t-135.5 -43q-88 0 -134.5 42t-50.5 115h121q5 -65 67 -65q25 0 40 14.5t15 36.5q0 25 -21 42t-74 35q-137 44 -137 149q0 64 48 103.5t125 39.5
t122 -39.5t53 -105.5z" />
    <glyph glyph-name="t" unicode="t" horiz-adv-x="344" 
d="M11 365v114h58v153h136v-153h113v-114h-113v-186q0 -41 13.5 -56t46.5 -15q31 0 58 8v-110q-45 -13 -94 -13q-86 0 -123 44.5t-37 127.5v200h-58z" />
    <glyph glyph-name="u" unicode="u" horiz-adv-x="570" 
d="M508 479v-479h-134v60h-3q-52 -76 -140 -76q-70 0 -122 50t-52 161v284h135v-267q0 -52 22.5 -80t62.5 -28q45 0 70.5 31t25.5 90v254h135z" />
    <glyph glyph-name="v" unicode="v" horiz-adv-x="461" 
d="M467 479l-177 -479h-120l-177 479h140l66 -208q21 -69 32 -128h4q15 77 32 128l68 208h132z" />
    <glyph glyph-name="w" unicode="w" horiz-adv-x="725" 
d="M429 0l-48 210q-18 88 -19 104h-4q-6 -50 -23 -124l-44 -190h-156l-121 479h133l56 -241q11 -50 18 -95h4q10 65 19 100l59 236h122l60 -240q8 -35 16 -96h3q7 54 16 95l58 241h132l-125 -479h-156z" />
    <glyph glyph-name="x" unicode="x" horiz-adv-x="505" 
d="M5 0l174 242l-164 237h151l61 -98q2 -3 26 -51h3q15 31 24 48l58 101h150l-164 -235l171 -244h-156l-63 103q-15 27 -25 52h-4q-10 -22 -27 -53l-63 -102h-152z" />
    <glyph glyph-name="y" unicode="y" horiz-adv-x="467" 
d="M474 479l-262 -714h-128l88 239l-174 475h140l69 -208q25 -80 32 -118h4q9 49 31 118l67 208h133z" />
    <glyph glyph-name="z" unicode="z" horiz-adv-x="486" 
d="M45 367v112h395v-108l-235 -259h247v-112h-419v108l236 259h-224z" />
    <glyph glyph-name="braceleft" unicode="{" horiz-adv-x="383" 
d="M330 742v-103q-75 -1 -75 -77v-169q0 -46 -21.5 -80t-63.5 -49v-2q38 -12 61.5 -47t23.5 -86v-165q0 -75 75 -76v-103q-198 0 -198 170v173q0 35 -22 59t-61 26v100q39 1 61 25t22 59v180q0 164 198 165z" />
    <glyph glyph-name="bar" unicode="|" horiz-adv-x="374" 
d="M237 -210h-102v1000h102v-1000z" />
    <glyph glyph-name="braceright" unicode="}" horiz-adv-x="383" 
d="M53 639v103q198 -1 198 -165v-180q0 -35 22 -59t61 -25v-100q-39 -2 -61 -26t-22 -59v-173q0 -170 -198 -170v103q75 1 75 76v165q0 51 23.5 86t61.5 47v2q-42 15 -63.5 49t-21.5 80v169q0 76 -75 77z" />
    <glyph glyph-name="asciitilde" unicode="~" horiz-adv-x="666" 
d="M631 294q-36 -63 -80 -94t-105 -31q-67 0 -126 39q-66 45 -103 45q-30 0 -52.5 -18t-48.5 -59l-82 52q65 126 181 126q62 0 125 -40q70 -45 109 -45q55 0 100 77z" />
    <glyph glyph-name="uni00A0" unicode="&#xa0;" horiz-adv-x="250" 
 />
    <glyph glyph-name="exclamdown" unicode="&#xa1;" horiz-adv-x="276" 
d="M209 682v-129h-142v129h142zM212 0h-148l14 470h120z" />
    <glyph glyph-name="cent" unicode="&#xa2;" horiz-adv-x="573" 
d="M243 0v94q-87 18 -143.5 85.5t-56.5 167.5q0 93 54 162t146 87v86h100v-85q76 -13 123 -62t59 -109h-133q-9 28 -34.5 44.5t-60.5 16.5q-53 0 -84.5 -39t-31.5 -102q0 -62 32.5 -102.5t87.5 -40.5q72 0 97 67h135q-19 -69 -67.5 -117.5t-122.5 -60.5v-92h-100z" />
    <glyph glyph-name="sterling" unicode="&#xa3;" horiz-adv-x="573" 
d="M414 404v-102h-152q9 -41 9 -71q0 -59 -39 -93q22 0 75 -17q58 -20 75 -20q46 0 47 76h129q-4 -199 -166 -199q-45 0 -129 28q-76 24 -104 24q-57 0 -119 -37v118q50 13 75.5 45t25.5 68q0 39 -12 78h-89v102h61q-15 58 -15 108q0 81 55 137t160 56q97 0 155.5 -55
t62.5 -144h-136q-1 38 -24 61t-57 23q-38 0 -58.5 -25t-20.5 -67q0 -40 13 -94h178z" />
    <glyph glyph-name="currency" unicode="&#xa4;" horiz-adv-x="612" 
d="M551 175l-62 -63l-68 68q-52 -34 -116 -34q-63 0 -115 34l-69 -68l-61 63l69 66q-34 55 -34 113q0 62 34 112l-69 68l61 62l69 -67q51 33 115 33q65 0 115 -33l69 67l62 -62l-69 -68q34 -51 34 -112q0 -59 -34 -113zM428 355q0 51 -37 86t-85 35q-52 0 -87.5 -35.5
t-35.5 -85.5t36 -86t86 -36q51 0 87 36t36 86z" />
    <glyph glyph-name="yen" unicode="&#xa5;" horiz-adv-x="573" 
d="M49 274v97h128l-164 311h145l94 -190q28 -53 37 -85h2q10 29 37 84l91 191h141l-164 -311h128v-97h-169v-69h169v-96h-169v-109h-136v109h-170v96h170v69h-170z" />
    <glyph glyph-name="brokenbar" unicode="&#xa6;" horiz-adv-x="374" 
d="M237 390h-102v300h102v-300zM237 -110h-102v300h102v-300z" />
    <glyph glyph-name="section" unicode="&#xa7;" horiz-adv-x="445" 
d="M399 331q0 -79 -70 -115q59 -45 59 -119q0 -63 -43.5 -105t-126.5 -42q-78 0 -122.5 39.5t-50.5 110.5h111q2 -29 18 -46t47 -17q28 0 44.5 16.5t16.5 40.5q0 32 -24 51t-70 38q-64 28 -98.5 64t-34.5 92q0 81 71 112q-61 45 -61 116q0 58 43.5 97.5t120.5 39.5
q68 0 110.5 -38.5t45.5 -100.5h-102q-2 21 -17 35.5t-40 14.5q-26 0 -40.5 -14t-14.5 -34q0 -28 22 -45.5t83 -42.5q59 -25 91 -59.5t32 -88.5zM296 323q0 26 -22 43.5t-70 34.5q-19 -4 -33 -18t-14 -35q0 -27 21 -44.5t73 -38.5q45 15 45 58z" />
    <glyph glyph-name="dieresis" unicode="&#xa8;" horiz-adv-x="322" 
d="M12 591v112h114v-112h-114zM196 591v112h114v-112h-114z" />
    <glyph glyph-name="copyright" unicode="&#xa9;" horiz-adv-x="820" 
d="M409 557q76 0 124 -44t61 -102h-101q-8 27 -31 42t-55 15q-49 0 -77.5 -33.5t-28.5 -88.5q0 -54 29 -88.5t80 -34.5q31 0 55 18t32 48h101q-18 -67 -68 -110.5t-121 -43.5q-91 0 -147.5 60t-56.5 153q0 90 58.5 149.5t145.5 59.5zM47 341q0 150 106.5 256.5t256.5 106.5
q151 0 257 -106.5t106 -256.5t-106 -256.5t-257 -106.5q-150 0 -256.5 106.5t-106.5 256.5zM111 341q0 -123 88 -210.5t211 -87.5q124 0 211 87t87 211q0 123 -87 210.5t-211 87.5q-123 0 -211 -87.5t-88 -210.5z" />
    <glyph glyph-name="ordfeminine" unicode="&#xaa;" horiz-adv-x="390" 
d="M367 407v-79q-14 -7 -41 -7q-28 0 -49 14.5t-25 39.5q-39 -57 -113 -57q-55 0 -84.5 29t-29.5 73q0 61 56 100.5t161 48.5v4q0 57 -55 57t-63 -39h-88q8 51 49.5 82t104.5 31q69 0 107 -36t38 -107v-117q0 -39 19 -39q5 0 13 2zM242 482v18q-61 -5 -91 -24t-30 -46
q0 -36 43 -36q34 0 56 24.5t22 63.5z" />
    <glyph glyph-name="guillemotleft" unicode="&#xab;" horiz-adv-x="502" 
d="M248 248l130 210l82 -44l-86 -166l86 -166l-82 -45zM46 248l130 210l82 -44l-86 -166l86 -166l-82 -45z" />
    <glyph glyph-name="logicalnot" unicode="&#xac;" horiz-adv-x="672" 
d="M595 98h-104v190h-415v102h519v-292z" />
    <glyph glyph-name="uni00AD" unicode="&#xad;" horiz-adv-x="465" 
d="M399 211h-322v105h322v-105z" />
    <glyph glyph-name="registered" unicode="&#xae;" horiz-adv-x="508" 
d="M33 482q0 92 65.5 157t156.5 65t155.5 -65t64.5 -157t-64.5 -156.5t-155.5 -64.5t-156.5 65t-65.5 156zM82 482q0 -72 50.5 -121.5t122.5 -49.5t121.5 49.5t49.5 121.5t-49.5 122t-121.5 50q-71 0 -122 -50.5t-51 -121.5zM309 455l63 -88h-74l-55 80h-13v-80h-66v236h103
q46 0 70 -22t24 -55q0 -26 -14.5 -45t-37.5 -26zM293 523q0 31 -40 31h-23v-60h23q40 0 40 29z" />
    <glyph glyph-name="macron" unicode="&#xaf;" horiz-adv-x="322" 
d="M307 593h-293v90h293v-90z" />
    <glyph glyph-name="degree" unicode="&#xb0;" horiz-adv-x="375" 
d="M51 559q0 56 40 96.5t97 40.5t97 -40.5t40 -96.5t-40 -96.5t-97 -40.5t-97 40.5t-40 96.5zM113 559q0 -31 21.5 -53t53.5 -22q31 0 52.5 22t21.5 53t-21.5 53t-52.5 22q-32 0 -53.5 -22t-21.5 -53z" />
    <glyph glyph-name="plusminus" unicode="&#xb1;" horiz-adv-x="672" 
d="M594 0h-517v102h517v-102zM594 318h-207v-170h-103v170h-207v103h207v171h103v-171h207v-103z" />
    <glyph glyph-name="twosuperior" unicode="&#xb2;" 
d="M54 425v69l135 144q20 22 30.5 35t20 32t9.5 35q0 20 -13 32.5t-34 12.5q-48 0 -50 -58h-103q1 63 40.5 104t117.5 41q67 0 109.5 -37t42.5 -92q0 -39 -21.5 -73t-77.5 -93l-61 -63h166v-89h-311z" />
    <glyph glyph-name="threesuperior" unicode="&#xb3;" 
d="M149 740h-102q2 60 42.5 96t110.5 36q72 0 112 -31.5t40 -82.5q0 -35 -20.5 -60.5t-52.5 -32.5v-3q41 -10 64 -39.5t23 -71.5q0 -59 -44 -99.5t-124 -40.5q-78 0 -119 37.5t-45 105.5h102q5 -61 63 -61q27 0 43.5 18t16.5 48q0 25 -18 41.5t-53 16.5h-31v79h30
q28 0 42.5 13.5t14.5 35.5q0 18 -12.5 31.5t-34.5 13.5q-23 0 -35 -14.5t-13 -35.5z" />
    <glyph glyph-name="acute" unicode="&#xb4;" horiz-adv-x="322" 
d="M69 627l159 137l66 -87l-170 -122z" />
    <glyph glyph-name="mu" unicode="&#xb5;" horiz-adv-x="584" 
d="M57 -213v692h135v-267q0 -108 82 -108q98 0 98 128v247h136v-315q0 -29 7.5 -40t26.5 -11q12 0 22 3v-119q-31 -9 -63 -9q-100 0 -118 75h-3q-40 -79 -121 -79q-45 0 -75 23l-3 -2q11 -44 11 -122v-96h-135z" />
    <glyph glyph-name="paragraph" unicode="&#xb6;" horiz-adv-x="554" 
d="M499 597h-59v-597h-96v597h-67v-597h-96v372q-68 2 -111 46t-43 111q0 71 47.5 112t116.5 41h308v-85z" />
    <glyph glyph-name="periodcentered" unicode="&#xb7;" horiz-adv-x="276" 
d="M59 275v152h162v-152h-162z" />
    <glyph glyph-name="cedilla" unicode="&#xb8;" horiz-adv-x="322" 
d="M127 0h75l-16 -39q42 -7 66.5 -34.5t24.5 -64.5q0 -50 -33.5 -80.5t-99.5 -30.5q-53 0 -110 19l26 75q33 -14 73 -14q49 0 49 30q0 41 -93 41z" />
    <glyph glyph-name="onesuperior" unicode="&#xb9;" 
d="M158 425v346h-68v88h174v-434h-106z" />
    <glyph glyph-name="ordmasculine" unicode="&#xba;" horiz-adv-x="448" 
d="M28 512q0 86 56.5 139t139.5 53q85 0 140.5 -54.5t55.5 -137.5q0 -82 -55.5 -138t-140.5 -56q-83 0 -139.5 53.5t-56.5 140.5zM128 511q0 -44 27.5 -73t68.5 -29q42 0 69 28.5t27 73.5q0 44 -27 73t-69 29t-69 -27t-27 -75z" />
    <glyph glyph-name="guillemotright" unicode="&#xbb;" horiz-adv-x="502" 
d="M255 248l-130 -211l-83 45l86 166l-86 165l83 45zM457 248l-130 -211l-83 45l86 166l-86 165l83 45z" />
    <glyph glyph-name="onequarter" unicode="&#xbc;" horiz-adv-x="945" 
d="M158 250v346h-68v88h174v-434h-106zM664 682h97l-468 -682h-97zM919 68h-62v-68h-102v68h-197v75l197 291h102v-289h62v-77zM718 258l-78 -113h115v125q0 13 2 49h-3q-9 -20 -36 -61z" />
    <glyph glyph-name="onehalf" unicode="&#xbd;" horiz-adv-x="982" 
d="M158 250v346h-68v88h174v-434h-106zM664 682h97l-468 -682h-97zM630 0v69l135 144q20 22 30.5 35t20 32t9.5 35q0 20 -13 32.5t-34 12.5q-48 0 -50 -58h-103q1 63 40.5 104t117.5 41q67 0 109.5 -37t42.5 -92q0 -39 -21.5 -73t-77.5 -93l-61 -63h166v-89h-311z" />
    <glyph glyph-name="threequarters" unicode="&#xbe;" horiz-adv-x="968" 
d="M149 565h-102q2 60 42.5 96t110.5 36q72 0 112 -31.5t40 -82.5q0 -35 -20.5 -60.5t-52.5 -32.5v-3q41 -10 64 -39.5t23 -71.5q0 -59 -44 -99.5t-124 -40.5q-78 0 -119 37.5t-45 105.5h102q5 -61 63 -61q27 0 43.5 18t16.5 48q0 25 -18 41.5t-53 16.5h-31v79h30
q28 0 42.5 13.5t14.5 35.5q0 18 -12.5 31.5t-34.5 13.5q-23 0 -35 -14.5t-13 -35.5zM688 682h97l-468 -682h-97zM942 68h-62v-68h-102v68h-197v75l197 291h102v-289h62v-77zM741 258l-78 -113h115v125q0 13 2 49h-3q-9 -20 -36 -61z" />
    <glyph glyph-name="questiondown" unicode="&#xbf;" horiz-adv-x="467" 
d="M130 356q47 43 47 114h120q0 -59 -9.5 -93.5t-39.5 -67.5q-5 -6 -18.5 -20t-17 -18.5l-13 -16t-12.5 -16t-8.5 -14t-7.5 -16.5t-3.5 -16.5t-1.5 -19.5q0 -31 20.5 -52t52.5 -21q33 0 54.5 23.5t21.5 65.5h133q-2 -97 -59 -153.5t-154 -56.5q-96 0 -153 52.5t-57 133.5
q0 56 26 101.5t79 90.5zM308 682v-129h-141v129h141z" />
    <glyph glyph-name="Agrave" unicode="&#xc0;" horiz-adv-x="664" 
d="M9 0l265 682h134l251 -682h-147l-53 155h-252l-54 -155h-144zM298 419l-57 -162h183l-56 163q-20 58 -32 104h-5q-13 -52 -33 -105zM200 810l44 100l189 -95l-37 -83z" />
    <glyph glyph-name="Aacute" unicode="&#xc1;" horiz-adv-x="664" 
d="M9 0l265 682h134l251 -682h-147l-53 155h-252l-54 -155h-144zM298 419l-57 -162h183l-56 163q-20 58 -32 104h-5q-13 -52 -33 -105zM436 910l45 -100l-196 -78l-37 83z" />
    <glyph glyph-name="Acircumflex" unicode="&#xc2;" horiz-adv-x="664" 
d="M9 0l265 682h134l251 -682h-147l-53 155h-252l-54 -155h-144zM298 419l-57 -162h183l-56 163q-20 58 -32 104h-5q-13 -52 -33 -105zM341 906l165 -103l-35 -71l-130 60l-131 -60l-35 71z" />
    <glyph glyph-name="Atilde" unicode="&#xc3;" horiz-adv-x="664" 
d="M9 0l265 682h134l251 -682h-147l-53 155h-252l-54 -155h-144zM298 419l-57 -162h183l-56 163q-20 58 -32 104h-5q-13 -52 -33 -105zM245 767h-79q2 63 29.5 100.5t77.5 37.5q37 0 75 -28q36 -27 59 -27q29 0 30 45h79q-6 -137 -110 -137q-42 0 -79 28q-38 27 -53 27
q-28 0 -29 -46z" />
    <glyph glyph-name="Adieresis" unicode="&#xc4;" horiz-adv-x="664" 
d="M9 0l265 682h134l251 -682h-147l-53 155h-252l-54 -155h-144zM298 419l-57 -162h183l-56 163q-20 58 -32 104h-5q-13 -52 -33 -105zM190 771v112h114v-112h-114zM374 771v112h114v-112h-114z" />
    <glyph glyph-name="Aring" unicode="&#xc5;" horiz-adv-x="664" 
d="M9 0l265 682h134l251 -682h-147l-53 155h-252l-54 -155h-144zM298 419l-57 -162h183l-56 163q-20 58 -32 104h-5q-13 -52 -33 -105zM284 844q0 -23 16.5 -39.5t39.5 -16.5t39.5 16.5t16.5 39.5t-16.5 39.5t-39.5 16.5t-39.5 -16.5t-16.5 -39.5zM211 844q0 54 37 91.5
t92 37.5q54 0 92 -37.5t38 -91.5t-38 -92t-92 -38t-91.5 38t-37.5 92z" />
    <glyph glyph-name="AE" unicode="&#xc6;" horiz-adv-x="915" 
d="M847 682v-124h-257v-147h247v-118h-247v-169h267v-124h-407v155h-220l-79 -155h-158l372 682h482zM435 558l-157 -301h172v301h-15z" />
    <glyph glyph-name="Ccedilla" unicode="&#xc7;" horiz-adv-x="765" 
d="M387 704q133 0 219 -72.5t106 -167.5h-154q-14 50 -60 84t-112 34q-91 0 -149 -67t-58 -173q0 -101 58.5 -171.5t150.5 -70.5q70 0 114.5 37t62.5 92h159q-32 -104 -110.5 -172t-197.5 -77l-7 -19q42 -7 66.5 -34.5t24.5 -64.5q0 -50 -33.5 -80.5t-98.5 -30.5
q-54 0 -111 19l26 75q33 -14 74 -14q48 0 48 30q0 41 -93 41l30 79q-139 13 -224 114t-85 248q0 156 100 258.5t254 102.5z" />
    <glyph glyph-name="Egrave" unicode="&#xc8;" horiz-adv-x="544" 
d="M477 682v-124h-264v-147h255v-118h-255v-169h275v-124h-418v682h407zM141 810l44 100l189 -95l-37 -83z" />
    <glyph glyph-name="Eacute" unicode="&#xc9;" horiz-adv-x="544" 
d="M477 682v-124h-264v-147h255v-118h-255v-169h275v-124h-418v682h407zM362 910l45 -100l-196 -78l-37 83z" />
    <glyph glyph-name="Ecircumflex" unicode="&#xca;" horiz-adv-x="544" 
d="M477 682v-124h-264v-147h255v-118h-255v-169h275v-124h-418v682h407zM275 906l165 -103l-35 -71l-130 60l-131 -60l-35 71z" />
    <glyph glyph-name="Edieresis" unicode="&#xcb;" horiz-adv-x="544" 
d="M477 682v-124h-264v-147h255v-118h-255v-169h275v-124h-418v682h407zM123 771v112h114v-112h-114zM307 771v112h114v-112h-114z" />
    <glyph glyph-name="Igrave" unicode="&#xcc;" horiz-adv-x="278" 
d="M70 0v682h143v-682h-143zM1 810l44 100l189 -95l-37 -83z" />
    <glyph glyph-name="Iacute" unicode="&#xcd;" horiz-adv-x="278" 
d="M70 0v682h143v-682h-143zM236 910l45 -100l-196 -78l-37 83z" />
    <glyph glyph-name="Icircumflex" unicode="&#xce;" horiz-adv-x="278" 
d="M70 0v682h143v-682h-143zM141 906l165 -103l-35 -71l-130 60l-131 -60l-35 71z" />
    <glyph glyph-name="Idieresis" unicode="&#xcf;" horiz-adv-x="278" 
d="M70 0v682h143v-682h-143zM-8 771v112h114v-112h-114zM176 771v112h114v-112h-114z" />
    <glyph glyph-name="Eth" unicode="&#xd0;" horiz-adv-x="735" 
d="M15 297v107h78v278h234q177 0 276 -97t99 -244q0 -145 -101.5 -243t-275.5 -98h-232v297h-78zM236 123h86q115 0 174.5 61.5t59.5 156.5q0 99 -60.5 158.5t-173.5 59.5h-86v-155h150v-107h-150v-174z" />
    <glyph glyph-name="Ntilde" unicode="&#xd1;" horiz-adv-x="678" 
d="M193 468h-4q4 -128 4 -129v-339h-123v682h123l190 -293q56 -86 106 -180h3q-3 102 -3 123v350h123v-682h-123l-174 267q-67 105 -122 201zM241 767h-79q2 63 29.5 100.5t77.5 37.5q37 0 75 -28q36 -27 59 -27q29 0 30 45h79q-6 -137 -110 -137q-42 0 -79 28
q-38 27 -53 27q-28 0 -29 -46z" />
    <glyph glyph-name="Ograve" unicode="&#xd2;" horiz-adv-x="789" 
d="M181 341q0 -100 61.5 -167.5t153.5 -67.5t154 67.5t62 167.5t-59.5 167.5t-155.5 67.5q-92 0 -154 -67.5t-62 -167.5zM35 341q0 148 104 255.5t259 107.5q109 0 192.5 -51.5t125.5 -133.5t42 -178q0 -151 -103.5 -257t-257.5 -106q-72 0 -133 21.5t-102.5 57.5
t-70.5 83.5t-42.5 98t-13.5 102.5zM273 810l44 100l189 -95l-37 -83z" />
    <glyph glyph-name="Oacute" unicode="&#xd3;" horiz-adv-x="789" 
d="M181 341q0 -100 61.5 -167.5t153.5 -67.5t154 67.5t62 167.5t-59.5 167.5t-155.5 67.5q-92 0 -154 -67.5t-62 -167.5zM35 341q0 148 104 255.5t259 107.5q109 0 192.5 -51.5t125.5 -133.5t42 -178q0 -151 -103.5 -257t-257.5 -106q-72 0 -133 21.5t-102.5 57.5
t-70.5 83.5t-42.5 98t-13.5 102.5zM484 910l45 -100l-196 -78l-37 83z" />
    <glyph glyph-name="Ocircumflex" unicode="&#xd4;" horiz-adv-x="789" 
d="M181 341q0 -100 61.5 -167.5t153.5 -67.5t154 67.5t62 167.5t-59.5 167.5t-155.5 67.5q-92 0 -154 -67.5t-62 -167.5zM35 341q0 148 104 255.5t259 107.5q109 0 192.5 -51.5t125.5 -133.5t42 -178q0 -151 -103.5 -257t-257.5 -106q-72 0 -133 21.5t-102.5 57.5
t-70.5 83.5t-42.5 98t-13.5 102.5zM401 906l165 -103l-35 -71l-130 60l-131 -60l-35 71z" />
    <glyph glyph-name="Otilde" unicode="&#xd5;" horiz-adv-x="789" 
d="M181 341q0 -100 61.5 -167.5t153.5 -67.5t154 67.5t62 167.5t-59.5 167.5t-155.5 67.5q-92 0 -154 -67.5t-62 -167.5zM35 341q0 148 104 255.5t259 107.5q109 0 192.5 -51.5t125.5 -133.5t42 -178q0 -151 -103.5 -257t-257.5 -106q-72 0 -133 21.5t-102.5 57.5
t-70.5 83.5t-42.5 98t-13.5 102.5zM305 767h-79q2 63 29.5 100.5t77.5 37.5q37 0 75 -28q36 -27 59 -27q29 0 30 45h79q-6 -137 -110 -137q-42 0 -79 28q-38 27 -53 27q-28 0 -29 -46z" />
    <glyph glyph-name="Odieresis" unicode="&#xd6;" horiz-adv-x="789" 
d="M181 341q0 -100 61.5 -167.5t153.5 -67.5t154 67.5t62 167.5t-59.5 167.5t-155.5 67.5q-92 0 -154 -67.5t-62 -167.5zM35 341q0 148 104 255.5t259 107.5q109 0 192.5 -51.5t125.5 -133.5t42 -178q0 -151 -103.5 -257t-257.5 -106q-72 0 -133 21.5t-102.5 57.5
t-70.5 83.5t-42.5 98t-13.5 102.5zM252 771v112h114v-112h-114zM436 771v112h114v-112h-114z" />
    <glyph glyph-name="multiply" unicode="&#xd7;" horiz-adv-x="672" 
d="M588 81l-73 -73l-179 181l-183 -183l-73 72l183 183l-180 181l72 73l180 -181l182 182l73 -72l-182 -183z" />
    <glyph glyph-name="Oslash" unicode="&#xd8;" horiz-adv-x="789" 
d="M33 341q0 148 104 255.5t259 107.5q117 0 208 -62l90 97l75 -67l-92 -99q79 -101 79 -232q0 -151 -103.5 -257t-257.5 -106q-122 0 -210 60l-90 -98l-76 67l92 99q-78 102 -78 235zM173 341q0 -75 35 -130l308 334q-55 37 -121 37q-94 0 -158 -69t-64 -172zM616 341
q0 72 -34 129l-307 -334q53 -36 119 -36q95 0 158.5 69t63.5 172z" />
    <glyph glyph-name="Ugrave" unicode="&#xd9;" horiz-adv-x="635" 
d="M318 -22q-117 0 -188.5 70t-71.5 222v412h143v-423q0 -75 30.5 -117t85.5 -42q118 0 118 159v423h142v-410q0 -151 -69.5 -222.5t-189.5 -71.5zM181 810l44 100l189 -95l-37 -83z" />
    <glyph glyph-name="Uacute" unicode="&#xda;" horiz-adv-x="635" 
d="M318 -22q-117 0 -188.5 70t-71.5 222v412h143v-423q0 -75 30.5 -117t85.5 -42q118 0 118 159v423h142v-410q0 -151 -69.5 -222.5t-189.5 -71.5zM409 910l45 -100l-196 -78l-37 83z" />
    <glyph glyph-name="Ucircumflex" unicode="&#xdb;" horiz-adv-x="635" 
d="M318 -22q-117 0 -188.5 70t-71.5 222v412h143v-423q0 -75 30.5 -117t85.5 -42q118 0 118 159v423h142v-410q0 -151 -69.5 -222.5t-189.5 -71.5zM317 906l165 -103l-35 -71l-130 60l-131 -60l-35 71z" />
    <glyph glyph-name="Udieresis" unicode="&#xdc;" horiz-adv-x="635" 
d="M318 -22q-117 0 -188.5 70t-71.5 222v412h143v-423q0 -75 30.5 -117t85.5 -42q118 0 118 159v423h142v-410q0 -151 -69.5 -222.5t-189.5 -71.5zM168 771v112h114v-112h-114zM352 771v112h114v-112h-114z" />
    <glyph glyph-name="Yacute" unicode="&#xdd;" horiz-adv-x="598" 
d="M230 0v272l-221 410h155l105 -203q25 -49 36 -85h2q16 40 37 84l99 204h150l-220 -409v-273h-143zM398 910l45 -100l-196 -78l-37 83z" />
    <glyph glyph-name="Thorn" unicode="&#xde;" horiz-adv-x="561" 
d="M68 0v682h143v-119h71q111 0 179 -53t68 -156t-64 -158.5t-188 -55.5h-66v-140h-143zM384 352q0 44 -26.5 70t-78.5 26h-68v-193h66q107 0 107 97z" />
    <glyph glyph-name="germandbls" unicode="&#xdf;" horiz-adv-x="634" 
d="M521 554q0 -82 -85 -128q-37 -20 -50.5 -33t-13.5 -28q0 -19 18 -33t74 -36q79 -30 109 -68t30 -90q0 -66 -48 -110.5t-138 -44.5q-88 0 -134.5 42.5t-49.5 114.5h121q5 -65 66 -65q26 0 41 14.5t15 36.5q0 26 -20 43.5t-73 37.5q-75 28 -105 63t-30 86q0 79 79 122
q33 18 47 33.5t14 38.5q0 26 -21.5 47t-68.5 21q-101 0 -101 -120v-498h-135v502q0 110 64 166.5t176 56.5q96 0 157.5 -47.5t61.5 -123.5z" />
    <glyph glyph-name="agrave" unicode="&#xe0;" horiz-adv-x="602" 
d="M540 479v-479h-130v60h-4q-57 -76 -156 -76q-37 0 -73.5 15t-70 44.5t-54 80.5t-20.5 116q0 112 66.5 182t161.5 70t146 -75h4v62h130zM169 239q0 -57 32 -97.5t91 -40.5q49 0 84.5 39t35.5 98q0 62 -34 100.5t-85 38.5q-59 0 -91.5 -41t-32.5 -97zM157 677l66 87
l159 -137l-54 -72z" />
    <glyph glyph-name="aacute" unicode="&#xe1;" horiz-adv-x="602" 
d="M540 479v-479h-130v60h-4q-57 -76 -156 -76q-37 0 -73.5 15t-70 44.5t-54 80.5t-20.5 116q0 112 66.5 182t161.5 70t146 -75h4v62h130zM169 239q0 -57 32 -97.5t91 -40.5q49 0 84.5 39t35.5 98q0 62 -34 100.5t-85 38.5q-59 0 -91.5 -41t-32.5 -97zM199 627l159 137
l66 -87l-170 -122z" />
    <glyph glyph-name="acircumflex" unicode="&#xe2;" horiz-adv-x="602" 
d="M540 479v-479h-130v60h-4q-57 -76 -156 -76q-37 0 -73.5 15t-70 44.5t-54 80.5t-20.5 116q0 112 66.5 182t161.5 70t146 -75h4v62h130zM169 239q0 -57 32 -97.5t91 -40.5q49 0 84.5 39t35.5 98q0 62 -34 100.5t-85 38.5q-59 0 -91.5 -41t-32.5 -97zM291 747l164 -127
l-48 -68l-116 77l-116 -77l-49 68z" />
    <glyph glyph-name="atilde" unicode="&#xe3;" horiz-adv-x="602" 
d="M540 479v-479h-130v60h-4q-57 -76 -156 -76q-37 0 -73.5 15t-70 44.5t-54 80.5t-20.5 116q0 112 66.5 182t161.5 70t146 -75h4v62h130zM169 239q0 -57 32 -97.5t91 -40.5q49 0 84.5 39t35.5 98q0 62 -34 100.5t-85 38.5q-59 0 -91.5 -41t-32.5 -97zM199 587h-79
q2 63 29.5 100.5t77.5 37.5q37 0 75 -28q36 -27 59 -27q29 0 30 45h79q-6 -137 -110 -137q-42 0 -79 28q-38 27 -53 27q-28 0 -29 -46z" />
    <glyph glyph-name="adieresis" unicode="&#xe4;" horiz-adv-x="602" 
d="M540 479v-479h-130v60h-4q-57 -76 -156 -76q-37 0 -73.5 15t-70 44.5t-54 80.5t-20.5 116q0 112 66.5 182t161.5 70t146 -75h4v62h130zM169 239q0 -57 32 -97.5t91 -40.5q49 0 84.5 39t35.5 98q0 62 -34 100.5t-85 38.5q-59 0 -91.5 -41t-32.5 -97zM142 591v112h114v-112
h-114zM326 591v112h114v-112h-114z" />
    <glyph glyph-name="aring" unicode="&#xe5;" horiz-adv-x="602" 
d="M540 479v-479h-130v60h-4q-57 -76 -156 -76q-37 0 -73.5 15t-70 44.5t-54 80.5t-20.5 116q0 112 66.5 182t161.5 70t146 -75h4v62h130zM169 239q0 -57 32 -97.5t91 -40.5q49 0 84.5 39t35.5 98q0 62 -34 100.5t-85 38.5q-59 0 -91.5 -41t-32.5 -97zM236 659
q0 -23 16.5 -39.5t39.5 -16.5t39.5 16.5t16.5 39.5t-16.5 39.5t-39.5 16.5t-39.5 -16.5t-16.5 -39.5zM163 659q0 54 37 91.5t92 37.5q54 0 92 -37.5t38 -91.5t-38 -92t-92 -38t-91.5 38t-37.5 92z" />
    <glyph glyph-name="ae" unicode="&#xe6;" horiz-adv-x="858" 
d="M589 495q115 -1 175.5 -75t60.5 -177q0 -21 -2 -33h-346q0 -52 32 -89t86 -37q62 0 89 50h132q-59 -151 -222 -151q-132 0 -195 97q-74 -97 -191 -97q-89 0 -133.5 43.5t-44.5 109.5q0 162 251 162h72v21q0 39 -25 61t-67 22q-43 0 -66.5 -16t-26.5 -41h-120q5 61 58 105
t150 44q124 0 166 -71q61 72 167 72zM587 401q-47 0 -76.5 -30t-32.5 -73h214q-4 44 -31.5 73.5t-73.5 29.5zM353 210h-71q-123 0 -123 -71q0 -30 18 -46t46 -16q54 0 89.5 38t40.5 95z" />
    <glyph glyph-name="ccedilla" unicode="&#xe7;" horiz-adv-x="549" 
d="M285 495q95 0 154 -53t72 -122h-134q-20 61 -93 61q-54 0 -85.5 -38.5t-31.5 -102.5q0 -61 32.5 -101.5t88.5 -40.5q70 0 95 66h137q-21 -74 -72 -122.5t-132 -56.5l-10 -24q42 -7 66.5 -34.5t24.5 -64.5q0 -50 -33.5 -80.5t-99.5 -30.5q-53 0 -110 19l26 75
q33 -14 73 -14q49 0 49 30q0 41 -93 41l32 84q-91 13 -151 82t-60 173q0 108 70 181t185 73z" />
    <glyph glyph-name="egrave" unicode="&#xe8;" horiz-adv-x="553" 
d="M278 495q114 0 179 -73t65 -179q0 -23 -2 -36h-356q0 -50 36.5 -86.5t87.5 -36.5q62 0 96 50h131q-26 -67 -82.5 -109t-145.5 -42q-109 0 -182 72.5t-73 187.5q0 107 66.5 179.5t179.5 72.5zM277 401q-47 0 -77.5 -30t-34.5 -72h224q-5 43 -35.5 72.5t-76.5 29.5z
M142 677l66 87l159 -137l-54 -72z" />
    <glyph glyph-name="eacute" unicode="&#xe9;" horiz-adv-x="553" 
d="M278 495q114 0 179 -73t65 -179q0 -23 -2 -36h-356q0 -50 36.5 -86.5t87.5 -36.5q62 0 96 50h131q-26 -67 -82.5 -109t-145.5 -42q-109 0 -182 72.5t-73 187.5q0 107 66.5 179.5t179.5 72.5zM277 401q-47 0 -77.5 -30t-34.5 -72h224q-5 43 -35.5 72.5t-76.5 29.5z
M184 627l159 137l66 -87l-170 -122z" />
    <glyph glyph-name="ecircumflex" unicode="&#xea;" horiz-adv-x="553" 
d="M278 495q114 0 179 -73t65 -179q0 -23 -2 -36h-356q0 -50 36.5 -86.5t87.5 -36.5q62 0 96 50h131q-26 -67 -82.5 -109t-145.5 -42q-109 0 -182 72.5t-73 187.5q0 107 66.5 179.5t179.5 72.5zM277 401q-47 0 -77.5 -30t-34.5 -72h224q-5 43 -35.5 72.5t-76.5 29.5z
M276 747l164 -127l-48 -68l-116 77l-116 -77l-49 68z" />
    <glyph glyph-name="edieresis" unicode="&#xeb;" horiz-adv-x="553" 
d="M278 495q114 0 179 -73t65 -179q0 -23 -2 -36h-356q0 -50 36.5 -86.5t87.5 -36.5q62 0 96 50h131q-26 -67 -82.5 -109t-145.5 -42q-109 0 -182 72.5t-73 187.5q0 107 66.5 179.5t179.5 72.5zM277 401q-47 0 -77.5 -30t-34.5 -72h224q-5 43 -35.5 72.5t-76.5 29.5z
M127 591v112h114v-112h-114zM311 591v112h114v-112h-114z" />
    <glyph glyph-name="igrave" unicode="&#xec;" horiz-adv-x="259" 
d="M64 0v479h135v-479h-135zM-2 677l66 87l159 -137l-54 -72z" />
    <glyph glyph-name="iacute" unicode="&#xed;" horiz-adv-x="259" 
d="M64 0v479h135v-479h-135zM40 627l159 137l66 -87l-170 -122z" />
    <glyph glyph-name="icircumflex" unicode="&#xee;" horiz-adv-x="259" 
d="M64 0v479h135v-479h-135zM132 747l164 -127l-48 -68l-116 77l-116 -77l-49 68z" />
    <glyph glyph-name="idieresis" unicode="&#xef;" horiz-adv-x="259" 
d="M64 0v479h135v-479h-135zM-17 591v112h114v-112h-114zM167 591v112h114v-112h-114z" />
    <glyph glyph-name="eth" unicode="&#xf0;" horiz-adv-x="571" 
d="M176 508l-45 78l81 47q-45 44 -100 87h149q21 -13 52 -37l83 50l45 -79l-59 -35q78 -82 119 -170t41 -198q0 -114 -72.5 -191t-183.5 -77q-110 0 -183 74t-73 183q0 110 74 180.5t185 70.5q34 0 57 -14l2 3q-33 48 -73 86zM165 239q0 -59 35 -97.5t86 -38.5q54 0 87 38.5
t33 97.5q0 58 -32.5 97t-87.5 39t-88 -38t-33 -98z" />
    <glyph glyph-name="ntilde" unicode="&#xf1;" horiz-adv-x="581" 
d="M64 0v479h133v-60h4q47 75 142 75q84 0 133.5 -56t49.5 -163v-275h-135v266q0 53 -23.5 81t-66.5 28q-46 0 -74 -32t-28 -90v-253h-135zM200 587h-79q2 63 29.5 100.5t77.5 37.5q37 0 75 -28q36 -27 59 -27q29 0 30 45h79q-6 -137 -110 -137q-42 0 -79 28q-38 27 -53 27
q-28 0 -29 -46z" />
    <glyph glyph-name="ograve" unicode="&#xf2;" horiz-adv-x="571" 
d="M32 240q0 111 73 183t183 72q112 0 184 -72.5t72 -182.5q0 -107 -72.5 -182t-183.5 -75q-110 0 -183 74t-73 183zM168 239q0 -59 34.5 -97.5t85.5 -38.5q54 0 86.5 38.5t32.5 97.5q0 58 -32 97t-87 39t-87.5 -38t-32.5 -98zM164 677l66 87l159 -137l-54 -72z" />
    <glyph glyph-name="oacute" unicode="&#xf3;" horiz-adv-x="571" 
d="M32 240q0 111 73 183t183 72q112 0 184 -72.5t72 -182.5q0 -107 -72.5 -182t-183.5 -75q-110 0 -183 74t-73 183zM168 239q0 -59 34.5 -97.5t85.5 -38.5q54 0 86.5 38.5t32.5 97.5q0 58 -32 97t-87 39t-87.5 -38t-32.5 -98zM185 627l159 137l66 -87l-170 -122z" />
    <glyph glyph-name="ocircumflex" unicode="&#xf4;" horiz-adv-x="571" 
d="M32 240q0 111 73 183t183 72q112 0 184 -72.5t72 -182.5q0 -107 -72.5 -182t-183.5 -75q-110 0 -183 74t-73 183zM168 239q0 -59 34.5 -97.5t85.5 -38.5q54 0 86.5 38.5t32.5 97.5q0 58 -32 97t-87 39t-87.5 -38t-32.5 -98zM288 747l164 -127l-48 -68l-116 77l-116 -77
l-49 68z" />
    <glyph glyph-name="otilde" unicode="&#xf5;" horiz-adv-x="571" 
d="M32 240q0 111 73 183t183 72q112 0 184 -72.5t72 -182.5q0 -107 -72.5 -182t-183.5 -75q-110 0 -183 74t-73 183zM168 239q0 -59 34.5 -97.5t85.5 -38.5q54 0 86.5 38.5t32.5 97.5q0 58 -32 97t-87 39t-87.5 -38t-32.5 -98zM191 587h-79q2 63 29.5 100.5t77.5 37.5
q37 0 75 -28q36 -27 59 -27q29 0 30 45h79q-6 -137 -110 -137q-42 0 -79 28q-38 27 -53 27q-28 0 -29 -46z" />
    <glyph glyph-name="odieresis" unicode="&#xf6;" horiz-adv-x="571" 
d="M32 240q0 111 73 183t183 72q112 0 184 -72.5t72 -182.5q0 -107 -72.5 -182t-183.5 -75q-110 0 -183 74t-73 183zM168 239q0 -59 34.5 -97.5t85.5 -38.5q54 0 86.5 38.5t32.5 97.5q0 58 -32 97t-87 39t-87.5 -38t-32.5 -98zM139 591v112h114v-112h-114zM323 591v112h114
v-112h-114z" />
    <glyph glyph-name="divide" unicode="&#xf7;" horiz-adv-x="672" 
d="M594 213h-517v102h517v-102zM409 456q0 -32 -21.5 -52.5t-50.5 -20.5q-30 0 -51.5 21.5t-21.5 49.5q0 31 20.5 52.5t52.5 21.5q31 0 51.5 -21t20.5 -51zM409 73q0 -32 -21.5 -53.5t-50.5 -21.5q-30 0 -51.5 22t-21.5 52q0 29 21 50.5t52 21.5t51.5 -20.5t20.5 -50.5z" />
    <glyph glyph-name="oslash" unicode="&#xf8;" horiz-adv-x="571" 
d="M30 240q0 111 73 183t183 72q74 0 134 -35l63 71l66 -59l-62 -70q55 -69 55 -162q0 -107 -72.5 -182t-183.5 -75q-74 0 -134 35l-62 -70l-68 58l63 71q-55 69 -55 163zM159 239q0 -38 18 -72l173 197q-28 17 -64 17q-58 0 -92.5 -39.5t-34.5 -102.5zM412 239q0 40 -17 72
l-173 -196q29 -18 64 -18q57 0 91.5 40t34.5 102z" />
    <glyph glyph-name="ugrave" unicode="&#xf9;" horiz-adv-x="570" 
d="M510 479v-479h-134v60h-3q-52 -76 -140 -76q-70 0 -122 50t-52 161v284h135v-267q0 -52 22.5 -80t62.5 -28q45 0 70.5 31t25.5 90v254h135zM150 677l66 87l159 -137l-54 -72z" />
    <glyph glyph-name="uacute" unicode="&#xfa;" horiz-adv-x="570" 
d="M510 479v-479h-134v60h-3q-52 -76 -140 -76q-70 0 -122 50t-52 161v284h135v-267q0 -52 22.5 -80t62.5 -28q45 0 70.5 31t25.5 90v254h135zM192 627l159 137l66 -87l-170 -122z" />
    <glyph glyph-name="ucircumflex" unicode="&#xfb;" horiz-adv-x="570" 
d="M510 479v-479h-134v60h-3q-52 -76 -140 -76q-70 0 -122 50t-52 161v284h135v-267q0 -52 22.5 -80t62.5 -28q45 0 70.5 31t25.5 90v254h135zM284 747l164 -127l-48 -68l-116 77l-116 -77l-49 68z" />
    <glyph glyph-name="udieresis" unicode="&#xfc;" horiz-adv-x="570" 
d="M510 479v-479h-134v60h-3q-52 -76 -140 -76q-70 0 -122 50t-52 161v284h135v-267q0 -52 22.5 -80t62.5 -28q45 0 70.5 31t25.5 90v254h135zM135 591v112h114v-112h-114zM319 591v112h114v-112h-114z" />
    <glyph glyph-name="yacute" unicode="&#xfd;" horiz-adv-x="467" 
d="M476 479l-262 -714h-128l88 239l-174 475h140l69 -208q25 -80 32 -118h4q9 49 31 118l67 208h133zM151 627l159 137l66 -87l-170 -122z" />
    <glyph glyph-name="thorn" unicode="&#xfe;" horiz-adv-x="602" 
d="M63 -235v955h132v-298h4q56 70 153 70q84 0 151.5 -68t67.5 -187q0 -112 -67 -182.5t-161 -70.5q-93 0 -144 69h-4v-288h-132zM433 237q0 58 -31.5 98t-91.5 40q-51 0 -85.5 -38.5t-34.5 -99.5q0 -60 35 -99t86 -39q58 0 90 41t32 97z" />
    <glyph glyph-name="ydieresis" unicode="&#xff;" horiz-adv-x="467" 
d="M476 479l-262 -714h-128l88 239l-174 475h140l69 -208q25 -80 32 -118h4q9 49 31 118l67 208h133zM94 591v112h114v-112h-114zM278 591v112h114v-112h-114z" />
    <glyph glyph-name="Amacron" unicode="&#x100;" horiz-adv-x="664" 
d="M7 0l265 682h134l251 -682h-147l-53 155h-252l-54 -155h-144zM296 419l-57 -162h183l-56 163q-20 58 -32 104h-5q-13 -52 -33 -105zM492 773h-293v90h293v-90z" />
    <glyph glyph-name="amacron" unicode="&#x101;" horiz-adv-x="602" 
d="M538 479v-479h-130v60h-4q-57 -76 -156 -76q-37 0 -73.5 15t-70 44.5t-54 80.5t-20.5 116q0 112 66.5 182t161.5 70t146 -75h4v62h130zM167 239q0 -57 32 -97.5t91 -40.5q49 0 84.5 39t35.5 98q0 62 -34 100.5t-85 38.5q-59 0 -91.5 -41t-32.5 -97zM435 593h-293v90h293
v-90z" />
    <glyph glyph-name="Abreve" unicode="&#x102;" horiz-adv-x="664" 
d="M7 0l265 682h134l251 -682h-147l-53 155h-252l-54 -155h-144zM296 419l-57 -162h183l-56 163q-20 58 -32 104h-5q-13 -52 -33 -105zM415 891h90q-4 -66 -50.5 -105t-116.5 -39q-77 0 -120.5 39.5t-46.5 104.5h89q2 -24 23 -38.5t55 -14.5q35 0 55 14.5t22 38.5z" />
    <glyph glyph-name="abreve" unicode="&#x103;" horiz-adv-x="602" 
d="M538 479v-479h-130v60h-4q-57 -76 -156 -76q-37 0 -73.5 15t-70 44.5t-54 80.5t-20.5 116q0 112 66.5 182t161.5 70t146 -75h4v62h130zM167 239q0 -57 32 -97.5t91 -40.5q49 0 84.5 39t35.5 98q0 62 -34 100.5t-85 38.5q-59 0 -91.5 -41t-32.5 -97zM360 726h90
q-4 -73 -51 -116t-116 -43q-74 0 -118.5 42.5t-48.5 116.5h89q3 -30 23.5 -47.5t54.5 -17.5q33 0 54 18t23 47z" />
    <glyph glyph-name="Aogonek" unicode="&#x104;" horiz-adv-x="664" 
d="M651 -129v-92q-25 -7 -63 -7q-60 0 -90.5 32t-30.5 81q0 36 21 66.5t55 48.5h-33l-53 155h-252l-54 -155h-144l265 682h134l251 -682h-7q-32 0 -57.5 -26.5t-25.5 -63.5q0 -43 48 -43q21 0 36 4zM296 419l-57 -162h183l-51 148q-26 81 -37 119h-5q-13 -52 -33 -105z" />
    <glyph glyph-name="aogonek" unicode="&#x105;" horiz-adv-x="602" 
d="M546 -129v-92q-26 -7 -64 -7q-60 0 -90 32t-30 81q0 34 20.5 65.5t54.5 49.5h-29v60h-4q-49 -64 -125 -73q-23 -3 -45 -2q-35 2 -69 18t-65 45.5t-50.5 79.5t-19.5 112q0 108 62 177t150 74q22 1 45 -2q71 -9 117 -72h4v62h130v-479q-29 0 -52.5 -26.5t-23.5 -63.5
q0 -43 47 -43q21 0 37 4zM167 239q0 -57 32 -97.5t91 -40.5q49 0 84.5 39t35.5 98q0 62 -34 100.5t-85 38.5q-59 0 -91.5 -41t-32.5 -97z" />
    <glyph glyph-name="Cacute" unicode="&#x106;" horiz-adv-x="765" 
d="M387 704q133 0 219 -72.5t106 -167.5h-154q-14 50 -60 84t-112 34q-91 0 -149 -67t-58 -173q0 -101 58.5 -171.5t150.5 -70.5q70 0 114.5 37t62.5 92h159q-35 -112 -121 -181.5t-219 -69.5q-156 0 -253.5 103.5t-97.5 261.5q0 156 100 258.5t254 102.5zM488 910l45 -100
l-196 -78l-37 83z" />
    <glyph glyph-name="cacute" unicode="&#x107;" horiz-adv-x="549" 
d="M285 495q95 0 154 -53t72 -122h-134q-20 61 -93 61q-54 0 -85.5 -38.5t-31.5 -102.5q0 -61 32.5 -101.5t88.5 -40.5q70 0 95 66h137q-22 -80 -80.5 -130.5t-153.5 -50.5q-109 0 -182.5 71.5t-73.5 186.5q0 108 70 181t185 73zM183 627l159 137l66 -87l-170 -122z" />
    <glyph glyph-name="Ccircumflex" unicode="&#x108;" horiz-adv-x="765" 
d="M387 704q133 0 219 -72.5t106 -167.5h-154q-14 50 -60 84t-112 34q-91 0 -149 -67t-58 -173q0 -101 58.5 -171.5t150.5 -70.5q70 0 114.5 37t62.5 92h159q-35 -112 -121 -181.5t-219 -69.5q-156 0 -253.5 103.5t-97.5 261.5q0 156 100 258.5t254 102.5zM388 906l165 -103
l-35 -71l-130 60l-131 -60l-35 71z" />
    <glyph glyph-name="ccircumflex" unicode="&#x109;" horiz-adv-x="549" 
d="M285 495q95 0 154 -53t72 -122h-134q-20 61 -93 61q-54 0 -85.5 -38.5t-31.5 -102.5q0 -61 32.5 -101.5t88.5 -40.5q70 0 95 66h137q-22 -80 -80.5 -130.5t-153.5 -50.5q-109 0 -182.5 71.5t-73.5 186.5q0 108 70 181t185 73zM283 747l164 -127l-48 -68l-116 77l-116 -77
l-49 68z" />
    <glyph glyph-name="Cdotaccent" unicode="&#x10a;" horiz-adv-x="765" 
d="M387 704q133 0 219 -72.5t106 -167.5h-154q-14 50 -60 84t-112 34q-91 0 -149 -67t-58 -173q0 -101 58.5 -171.5t150.5 -70.5q70 0 114.5 37t62.5 92h159q-35 -112 -121 -181.5t-219 -69.5q-156 0 -253.5 103.5t-97.5 261.5q0 156 100 258.5t254 102.5zM328 772v114h119
v-114h-119z" />
    <glyph glyph-name="cdotaccent" unicode="&#x10b;" horiz-adv-x="549" 
d="M285 495q95 0 154 -53t72 -122h-134q-20 61 -93 61q-54 0 -85.5 -38.5t-31.5 -102.5q0 -61 32.5 -101.5t88.5 -40.5q70 0 95 66h137q-22 -80 -80.5 -130.5t-153.5 -50.5q-109 0 -182.5 71.5t-73.5 186.5q0 108 70 181t185 73zM223 588v114h119v-114h-119z" />
    <glyph glyph-name="Ccaron" unicode="&#x10c;" horiz-adv-x="765" 
d="M387 704q133 0 219 -72.5t106 -167.5h-154q-14 50 -60 84t-112 34q-91 0 -149 -67t-58 -173q0 -101 58.5 -171.5t150.5 -70.5q70 0 114.5 37t62.5 92h159q-35 -112 -121 -181.5t-219 -69.5q-156 0 -253.5 103.5t-97.5 261.5q0 156 100 258.5t254 102.5zM390 732l-166 103
l35 71l131 -60l131 60l34 -71z" />
    <glyph glyph-name="ccaron" unicode="&#x10d;" horiz-adv-x="549" 
d="M285 495q95 0 154 -53t72 -122h-134q-20 61 -93 61q-54 0 -85.5 -38.5t-31.5 -102.5q0 -61 32.5 -101.5t88.5 -40.5q70 0 95 66h137q-22 -80 -80.5 -130.5t-153.5 -50.5q-109 0 -182.5 71.5t-73.5 186.5q0 108 70 181t185 73zM283 552l-165 127l49 68l116 -77l116 77
l48 -68z" />
    <glyph glyph-name="Dcaron" unicode="&#x10e;" horiz-adv-x="710" 
d="M68 682h234q177 0 276 -97t99 -244q0 -145 -101.5 -243t-275.5 -98h-232v682zM211 126h86q115 0 174.5 60.5t59.5 154.5q0 98 -60.5 156.5t-173.5 58.5h-86v-430zM307 732l-166 103l35 71l131 -60l131 60l34 -71z" />
    <glyph glyph-name="dcaron" unicode="&#x10f;" horiz-adv-x="723" 
d="M538 720v-720h-130v52h-4q-63 -69 -157 -69q-36 0 -73 15.5t-70 45t-53.5 80.5t-20.5 116q0 112 67 183.5t160 71.5q91 0 145 -71h4v296h132zM167 239q0 -57 32 -98t91 -41q49 0 84.5 39.5t35.5 98.5q0 62 -34 102t-85 40q-59 0 -91.5 -42t-32.5 -99zM603 624v96h116v-60
q0 -76 -36 -127h-63q27 42 27 91h-44z" />
    <glyph glyph-name="Dcroat" unicode="&#x110;" horiz-adv-x="735" 
d="M15 297v107h78v278h234q177 0 276 -97t99 -244q0 -145 -101.5 -243t-275.5 -98h-232v297h-78zM236 123h86q115 0 174.5 61.5t59.5 156.5q0 99 -60.5 158.5t-173.5 59.5h-86v-155h150v-107h-150v-174z" />
    <glyph glyph-name="dcroat" unicode="&#x111;" horiz-adv-x="602" 
d="M602 557h-64v-557h-130v52h-4q-63 -69 -157 -69q-36 0 -73 15.5t-70 45t-53.5 80.5t-20.5 116q0 112 67 183.5t160 71.5q91 0 145 -71h4v133h-158v90h158v73h132v-73h64v-90zM167 239q0 -57 32 -98t91 -41q49 0 84.5 39.5t35.5 98.5q0 62 -34 102t-85 40q-59 0 -91.5 -42
t-32.5 -99z" />
    <glyph glyph-name="Emacron" unicode="&#x112;" horiz-adv-x="544" 
d="M475 682v-124h-264v-147h255v-118h-255v-169h275v-124h-418v682h407zM421 773h-293v90h293v-90z" />
    <glyph glyph-name="emacron" unicode="&#x113;" horiz-adv-x="553" 
d="M276 495q114 0 179 -73t65 -179q0 -23 -2 -36h-356q0 -50 36.5 -86.5t87.5 -36.5q62 0 96 50h131q-26 -67 -82.5 -109t-145.5 -42q-109 0 -182 72.5t-73 187.5q0 107 66.5 179.5t179.5 72.5zM275 401q-47 0 -77.5 -30t-34.5 -72h224q-5 43 -35.5 72.5t-76.5 29.5z
M420 593h-293v90h293v-90z" />
    <glyph glyph-name="Ebreve" unicode="&#x114;" horiz-adv-x="544" 
d="M475 682v-124h-264v-147h255v-118h-255v-169h275v-124h-418v682h407zM344 891h90q-4 -66 -50.5 -105t-116.5 -39q-77 0 -120.5 39.5t-46.5 104.5h89q2 -24 23 -38.5t55 -14.5q35 0 55 14.5t22 38.5z" />
    <glyph glyph-name="ebreve" unicode="&#x115;" horiz-adv-x="553" 
d="M276 495q114 0 179 -73t65 -179q0 -23 -2 -36h-356q0 -50 36.5 -86.5t87.5 -36.5q62 0 96 50h131q-26 -67 -82.5 -109t-145.5 -42q-109 0 -182 72.5t-73 187.5q0 107 66.5 179.5t179.5 72.5zM275 401q-47 0 -77.5 -30t-34.5 -72h224q-5 43 -35.5 72.5t-76.5 29.5z
M352 726h90q-4 -73 -51 -116t-116 -43q-74 0 -118.5 42.5t-48.5 116.5h89q3 -30 23.5 -47.5t54.5 -17.5q33 0 54 18t23 47z" />
    <glyph glyph-name="Edotaccent" unicode="&#x116;" horiz-adv-x="544" 
d="M475 682v-124h-264v-147h255v-118h-255v-169h275v-124h-418v682h407zM210 772v114h119v-114h-119z" />
    <glyph glyph-name="edotaccent" unicode="&#x117;" horiz-adv-x="553" 
d="M276 495q114 0 179 -73t65 -179q0 -23 -2 -36h-356q0 -50 36.5 -86.5t87.5 -36.5q62 0 96 50h131q-26 -67 -82.5 -109t-145.5 -42q-109 0 -182 72.5t-73 187.5q0 107 66.5 179.5t179.5 72.5zM275 401q-47 0 -77.5 -30t-34.5 -72h224q-5 43 -35.5 72.5t-76.5 29.5z
M215 588v114h119v-114h-119z" />
    <glyph glyph-name="Eogonek" unicode="&#x118;" horiz-adv-x="544" 
d="M466 -129v-92q-26 -7 -64 -7q-60 0 -90 32t-30 81q0 34 20.5 65.5t54.5 49.5h-289v682h407v-124h-264v-147h255v-118h-255v-169h275v-124h-20q-31 0 -57.5 -26t-26.5 -64q0 -43 47 -43q21 0 37 4z" />
    <glyph glyph-name="eogonek" unicode="&#x119;" horiz-adv-x="553" 
d="M430 -129v-92q-26 -7 -63 -7q-60 0 -90.5 32t-30.5 81q0 59 50 98h-11q-109 0 -182 72.5t-73 187.5q0 107 66.5 179.5t179.5 72.5q114 0 179 -73t65 -179q0 -23 -2 -36h-356q0 -50 36.5 -86.5t87.5 -36.5q62 0 96 50h131q-28 -72 -98 -121q-69 -49 -69 -103q0 -43 48 -43
q20 0 36 4zM275 401q-47 0 -77.5 -30t-34.5 -72h224q-5 43 -35.5 72.5t-76.5 29.5z" />
    <glyph glyph-name="Ecaron" unicode="&#x11a;" horiz-adv-x="544" 
d="M475 682v-124h-264v-147h255v-118h-255v-169h275v-124h-418v682h407zM270 732l-166 103l35 71l131 -60l131 60l34 -71z" />
    <glyph glyph-name="ecaron" unicode="&#x11b;" horiz-adv-x="553" 
d="M276 495q114 0 179 -73t65 -179q0 -23 -2 -36h-356q0 -50 36.5 -86.5t87.5 -36.5q62 0 96 50h131q-26 -67 -82.5 -109t-145.5 -42q-109 0 -182 72.5t-73 187.5q0 107 66.5 179.5t179.5 72.5zM275 401q-47 0 -77.5 -30t-34.5 -72h224q-5 43 -35.5 72.5t-76.5 29.5z
M275 552l-165 127l49 68l116 -77l116 77l48 -68z" />
    <glyph glyph-name="Gcircumflex" unicode="&#x11c;" horiz-adv-x="770" 
d="M353 380h384v-33q0 -54 -13 -106t-40.5 -99.5t-67.5 -83t-99 -57t-129 -21.5q-155 0 -255 103t-100 254q0 158 101 261.5t254 103.5q121 0 207 -56.5t121 -155.5h-155q-23 43 -67.5 66.5t-102.5 23.5q-91 0 -152 -65t-61 -174q0 -110 61.5 -174.5t159.5 -64.5
q74 0 126 46t60 114h-232v118zM392 906l165 -103l-35 -71l-130 60l-131 -60l-35 71z" />
    <glyph glyph-name="gcircumflex" unicode="&#x11d;" horiz-adv-x="602" 
d="M539 479v-464q0 -272 -257 -272q-100 0 -163.5 51t-77.5 141h135q18 -82 114 -82q60 0 91.5 37t31.5 107v61h-3q-58 -69 -153 -69q-96 0 -161 69.5t-65 182.5q0 108 66 180.5t166 72.5q93 0 145 -73h5v58h126zM168 242q0 -55 31.5 -95t90.5 -40q51 0 86.5 38t35.5 96
q0 61 -34.5 98.5t-86.5 37.5q-57 0 -90 -40.5t-33 -94.5zM287 747l164 -127l-48 -68l-116 77l-116 -77l-49 68z" />
    <glyph glyph-name="Gbreve" unicode="&#x11e;" horiz-adv-x="770" 
d="M353 380h384v-33q0 -54 -13 -106t-40.5 -99.5t-67.5 -83t-99 -57t-129 -21.5q-155 0 -255 103t-100 254q0 158 101 261.5t254 103.5q121 0 207 -56.5t121 -155.5h-155q-23 43 -67.5 66.5t-102.5 23.5q-91 0 -152 -65t-61 -174q0 -110 61.5 -174.5t159.5 -64.5
q74 0 126 46t60 114h-232v118zM467 891h90q-4 -66 -50.5 -105t-116.5 -39q-77 0 -120.5 39.5t-46.5 104.5h89q2 -24 23 -38.5t55 -14.5q35 0 55 14.5t22 38.5z" />
    <glyph glyph-name="gbreve" unicode="&#x11f;" horiz-adv-x="602" 
d="M539 479v-464q0 -272 -257 -272q-100 0 -163.5 51t-77.5 141h135q18 -82 114 -82q60 0 91.5 37t31.5 107v61h-3q-58 -69 -153 -69q-96 0 -161 69.5t-65 182.5q0 108 66 180.5t166 72.5q93 0 145 -73h5v58h126zM168 242q0 -55 31.5 -95t90.5 -40q51 0 86.5 38t35.5 96
q0 61 -34.5 98.5t-86.5 37.5q-57 0 -90 -40.5t-33 -94.5zM358 726h90q-4 -73 -51 -116t-116 -43q-74 0 -118.5 42.5t-48.5 116.5h89q3 -30 23.5 -47.5t54.5 -17.5q33 0 54 18t23 47z" />
    <glyph glyph-name="Gdotaccent" unicode="&#x120;" horiz-adv-x="770" 
d="M353 380h384v-33q0 -54 -13 -106t-40.5 -99.5t-67.5 -83t-99 -57t-129 -21.5q-155 0 -255 103t-100 254q0 158 101 261.5t254 103.5q121 0 207 -56.5t121 -155.5h-155q-23 43 -67.5 66.5t-102.5 23.5q-91 0 -152 -65t-61 -174q0 -110 61.5 -174.5t159.5 -64.5
q74 0 126 46t60 114h-232v118zM330 772v114h119v-114h-119z" />
    <glyph glyph-name="gdotaccent" unicode="&#x121;" horiz-adv-x="602" 
d="M539 479v-464q0 -272 -257 -272q-100 0 -163.5 51t-77.5 141h135q18 -82 114 -82q60 0 91.5 37t31.5 107v61h-3q-58 -69 -153 -69q-96 0 -161 69.5t-65 182.5q0 108 66 180.5t166 72.5q93 0 145 -73h5v58h126zM168 242q0 -55 31.5 -95t90.5 -40q51 0 86.5 38t35.5 96
q0 61 -34.5 98.5t-86.5 37.5q-57 0 -90 -40.5t-33 -94.5zM221 588v114h119v-114h-119z" />
    <glyph glyph-name="Gcommaaccent" unicode="&#x122;" horiz-adv-x="770" 
d="M353 380h384v-33q0 -54 -13 -106t-40.5 -99.5t-67.5 -83t-99 -57t-129 -21.5q-155 0 -255 103t-100 254q0 158 101 261.5t254 103.5q121 0 207 -56.5t121 -155.5h-155q-23 43 -67.5 66.5t-102.5 23.5q-91 0 -152 -65t-61 -174q0 -110 61.5 -174.5t159.5 -64.5
q74 0 126 46t60 114h-232v118zM329 -154v96h116v-60q0 -76 -36 -127h-63q27 42 27 91h-44z" />
    <glyph glyph-name="gcommaaccent" unicode="&#x123;" horiz-adv-x="602" 
d="M539 479v-464q0 -272 -257 -272q-100 0 -163.5 51t-77.5 141h135q18 -82 114 -82q60 0 91.5 37t31.5 107v61h-3q-58 -69 -153 -69q-96 0 -161 69.5t-65 182.5q0 108 66 180.5t166 72.5q93 0 145 -73h5v58h126zM168 242q0 -55 31.5 -95t90.5 -40q51 0 86.5 38t35.5 96
q0 61 -34.5 98.5t-86.5 37.5q-57 0 -90 -40.5t-33 -94.5zM346 647v-96h-116v60q0 76 36 127h63q-27 -42 -27 -91h44z" />
    <glyph glyph-name="Hcircumflex" unicode="&#x124;" horiz-adv-x="696" 
d="M484 0v290h-273v-290h-143v682h143v-268h273v268h143v-682h-143zM348 906l165 -103l-35 -71l-130 60l-131 -60l-35 71z" />
    <glyph glyph-name="hcircumflex" unicode="&#x125;" horiz-adv-x="579" 
d="M62 0v720h135v-301h4q47 75 141 75q83 0 132.5 -55.5t49.5 -163.5v-275h-135v267q0 53 -23.5 80.5t-66.5 27.5q-46 0 -74 -31.5t-28 -90.5v-253h-135zM132 962l164 -127l-48 -68l-116 77l-116 -77l-49 68z" />
    <glyph glyph-name="Hbar" unicode="&#x126;" horiz-adv-x="696" 
d="M689 511h-62v-511h-142v284h-274v-284h-143v511h-61v90h61v81h143v-81h274v81h142v-81h62v-90zM211 402h274v109h-274v-109z" />
    <glyph glyph-name="hbar" unicode="&#x127;" horiz-adv-x="579" 
d="M342 557h-145v-138h4q47 75 141 75q83 0 132.5 -55.5t49.5 -163.5v-275h-135v267q0 53 -23.5 80.5t-66.5 27.5q-46 0 -74 -31.5t-28 -90.5v-253h-135v557h-62v90h62v73h135v-73h145v-90z" />
    <glyph glyph-name="Itilde" unicode="&#x128;" horiz-adv-x="278" 
d="M68 0v682h143v-682h-143zM45 767h-79q2 63 29.5 100.5t77.5 37.5q37 0 75 -28q36 -27 59 -27q29 0 30 45h79q-6 -137 -110 -137q-42 0 -79 28q-38 27 -53 27q-28 0 -29 -46z" />
    <glyph glyph-name="itilde" unicode="&#x129;" horiz-adv-x="259" 
d="M62 0v479h135v-479h-135zM34 587h-79q2 63 29.5 100.5t77.5 37.5q37 0 75 -28q36 -27 59 -27q29 0 30 45h79q-6 -137 -110 -137q-42 0 -79 28q-38 27 -53 27q-28 0 -29 -46z" />
    <glyph glyph-name="Imacron" unicode="&#x12a;" horiz-adv-x="278" 
d="M68 0v682h143v-682h-143zM288 773h-293v90h293v-90z" />
    <glyph glyph-name="imacron" unicode="&#x12b;" horiz-adv-x="259" 
d="M62 0v479h135v-479h-135zM276 593h-293v90h293v-90z" />
    <glyph glyph-name="Ibreve" unicode="&#x12c;" horiz-adv-x="278" 
d="M68 0v682h143v-682h-143zM216 891h90q-4 -66 -50.5 -105t-116.5 -39q-77 0 -120.5 39.5t-46.5 104.5h89q2 -24 23 -38.5t55 -14.5q35 0 55 14.5t22 38.5z" />
    <glyph glyph-name="ibreve" unicode="&#x12d;" horiz-adv-x="259" 
d="M62 0v479h135v-479h-135zM207 726h90q-4 -73 -51 -116t-116 -43q-74 0 -118.5 42.5t-48.5 116.5h89q3 -30 23.5 -47.5t54.5 -17.5q33 0 54 18t23 47z" />
    <glyph glyph-name="Iogonek" unicode="&#x12e;" horiz-adv-x="278" 
d="M68 0v682h143v-682q-27 -4 -50 -30t-23 -60q0 -43 47 -43q21 0 37 4v-92q-26 -7 -64 -7q-60 0 -90.5 32t-30.5 81q0 34 21 65.5t55 49.5h-45z" />
    <glyph glyph-name="iogonek" unicode="&#x12f;" horiz-adv-x="259" 
d="M62 0v479h135v-479q-29 -4 -52 -29t-23 -61q0 -43 48 -43q21 0 36 4v-92q-24 -7 -63 -7q-60 0 -90.5 32t-30.5 81q0 34 21 65.5t55 49.5h-36zM59 579v129h142v-129h-142z" />
    <glyph glyph-name="Idotaccent" unicode="&#x130;" horiz-adv-x="278" 
d="M68 0v682h143v-682h-143zM78 772v114h119v-114h-119z" />
    <glyph glyph-name="dotlessi" unicode="&#x131;" horiz-adv-x="259" 
d="M62 0v479h135v-479h-135z" />
    <glyph glyph-name="Jcircumflex" unicode="&#x134;" horiz-adv-x="386" 
d="M181 201v481h144v-474q0 -123 -51.5 -176.5t-158.5 -53.5q-61 0 -107 20v120q40 -18 87 -18q45 0 65.5 23.5t20.5 77.5zM251 906l165 -103l-35 -71l-130 60l-131 -60l-35 71z" />
    <glyph glyph-name="jcircumflex" unicode="&#x135;" horiz-adv-x="259" 
d="M197 479v-519q0 -211 -184 -211q-54 0 -94 14v114q30 -10 67 -10q40 0 58 23.5t18 73.5v515h135zM130 747l165 -127l-49 -69l-116 77l-116 -77l-48 69z" />
    <glyph glyph-name="Kcommaaccent" unicode="&#x136;" horiz-adv-x="651" 
d="M490 0l-237 292l-21.5 -22t-20.5 -22v-248h-143v682h143v-261l248 261h179l-287 -295l320 -387h-181zM280 -154v96h116v-60q0 -76 -36 -127h-63q27 42 27 91h-44z" />
    <glyph glyph-name="kcommaaccent" unicode="&#x137;" horiz-adv-x="536" 
d="M379 0l-151 197l-31 -30v-167h-135v720h135v-403l152 162h164l-192 -197l221 -282h-163zM221 -154v96h116v-60q0 -76 -36 -127h-63q27 42 27 91h-44z" />
    <glyph glyph-name="kgreenlandic" unicode="&#x138;" horiz-adv-x="536" 
d="M379 0l-151 197l-31 -30v-167h-135v479h135v-162l152 162h164l-192 -197l221 -282h-163z" />
    <glyph glyph-name="Lacute" unicode="&#x139;" horiz-adv-x="494" 
d="M68 0v682h143v-558h275v-124h-418zM226 910l45 -100l-196 -78l-37 83z" />
    <glyph glyph-name="lacute" unicode="&#x13a;" horiz-adv-x="259" 
d="M62 0v720h135v-720h-135zM29 842l159 137l66 -87l-170 -122z" />
    <glyph glyph-name="Lcommaaccent" unicode="&#x13b;" horiz-adv-x="494" 
d="M68 0v682h143v-558h275v-124h-418zM210 -154v96h116v-60q0 -76 -36 -127h-63q27 42 27 91h-44z" />
    <glyph glyph-name="lcommaaccent" unicode="&#x13c;" horiz-adv-x="259" 
d="M62 0v720h135v-720h-135zM70 -154v96h116v-60q0 -76 -36 -127h-63q27 42 27 91h-44z" />
    <glyph glyph-name="Lcaron" unicode="&#x13d;" horiz-adv-x="494" 
d="M68 0v682h143v-558h275v-124h-418zM324 586v96h116v-60q0 -76 -36 -127h-63q27 42 27 91h-44z" />
    <glyph glyph-name="lcaron" unicode="&#x13e;" horiz-adv-x="381" 
d="M62 0v720h135v-720h-135zM261 624v96h116v-60q0 -76 -36 -127h-63q27 42 27 91h-44z" />
    <glyph glyph-name="Ldot" unicode="&#x13f;" horiz-adv-x="525" 
d="M68 0v682h143v-558h275v-124h-418zM342 307v114h119v-114h-119z" />
    <glyph glyph-name="ldot" unicode="&#x140;" horiz-adv-x="401" 
d="M62 0v720h135v-720h-135zM270 313v114h119v-114h-119z" />
    <glyph glyph-name="Lslash" unicode="&#x141;" horiz-adv-x="501" 
d="M9 159v113l66 45v365h143v-277l132 91v-114l-132 -90v-168h275v-124h-418v204z" />
    <glyph glyph-name="lslash" unicode="&#x142;" horiz-adv-x="281" 
d="M2 217v113l71 55v335h135v-239l71 56v-113l-71 -55v-369h-135v272z" />
    <glyph glyph-name="Nacute" unicode="&#x143;" horiz-adv-x="678" 
d="M191 468h-4q4 -128 4 -129v-339h-123v682h123l190 -293q56 -86 106 -180h3q-3 102 -3 123v350h123v-682h-123l-174 267q-67 105 -122 201zM427 910l45 -100l-196 -78l-37 83z" />
    <glyph glyph-name="nacute" unicode="&#x144;" horiz-adv-x="581" 
d="M62 0v479h133v-60h4q47 75 142 75q84 0 133.5 -56t49.5 -163v-275h-135v266q0 53 -23.5 81t-66.5 28q-46 0 -74 -32t-28 -90v-253h-135zM199 627l159 137l66 -87l-170 -122z" />
    <glyph glyph-name="Ncommaaccent" unicode="&#x145;" horiz-adv-x="678" 
d="M191 468h-4q4 -128 4 -129v-339h-123v682h123l190 -293q56 -86 106 -180h3q-3 102 -3 123v350h123v-682h-123l-174 267q-67 105 -122 201zM276 -154v96h116v-60q0 -76 -36 -127h-63q27 42 27 91h-44z" />
    <glyph glyph-name="ncommaaccent" unicode="&#x146;" horiz-adv-x="581" 
d="M62 0v479h133v-60h4q47 75 142 75q84 0 133.5 -56t49.5 -163v-275h-135v266q0 53 -23.5 81t-66.5 28q-46 0 -74 -32t-28 -90v-253h-135zM232 -154v96h116v-60q0 -76 -36 -127h-63q27 42 27 91h-44z" />
    <glyph glyph-name="Ncaron" unicode="&#x147;" horiz-adv-x="678" 
d="M191 468h-4q4 -128 4 -129v-339h-123v682h123l190 -293q56 -86 106 -180h3q-3 102 -3 123v350h123v-682h-123l-174 267q-67 105 -122 201zM338 732l-166 103l35 71l131 -60l131 60l34 -71z" />
    <glyph glyph-name="ncaron" unicode="&#x148;" horiz-adv-x="581" 
d="M62 0v479h133v-60h4q47 75 142 75q84 0 133.5 -56t49.5 -163v-275h-135v266q0 53 -23.5 81t-66.5 28q-46 0 -74 -32t-28 -90v-253h-135zM295 552l-165 127l49 68l116 -77l116 77l48 -68z" />
    <glyph glyph-name="Eng" unicode="&#x14a;" horiz-adv-x="678" 
d="M191 468h-4q4 -128 4 -129v-339h-123v682h123l190 -293q56 -86 106 -180h3q-3 102 -3 123v350h123v-692q0 -211 -183 -211q-54 0 -92 14v108q27 -10 70 -10q82 0 82 87v22l-174 267q-67 105 -122 201z" />
    <glyph glyph-name="eng" unicode="&#x14b;" horiz-adv-x="581" 
d="M62 0v479h133v-60h4q47 75 142 75q84 0 133.5 -56t49.5 -163v-309q0 -217 -179 -217q-49 0 -89 14v107q27 -9 62 -9q38 0 54.5 23.5t16.5 73.5v308q0 53 -23.5 81t-66.5 28q-46 0 -74 -32t-28 -90v-253h-135z" />
    <glyph glyph-name="Omacron" unicode="&#x14c;" horiz-adv-x="789" 
d="M179 341q0 -100 61.5 -167.5t153.5 -67.5t154 67.5t62 167.5t-59.5 167.5t-155.5 67.5q-92 0 -154 -67.5t-62 -167.5zM33 341q0 148 104 255.5t259 107.5q109 0 192.5 -51.5t125.5 -133.5t42 -178q0 -151 -103.5 -257t-257.5 -106q-72 0 -133 21.5t-102.5 57.5
t-70.5 83.5t-42.5 98t-13.5 102.5zM546 773h-293v90h293v-90z" />
    <glyph glyph-name="omacron" unicode="&#x14d;" horiz-adv-x="571" 
d="M30 240q0 111 73 183t183 72q112 0 184 -72.5t72 -182.5q0 -107 -72.5 -182t-183.5 -75q-110 0 -183 74t-73 183zM166 239q0 -59 34.5 -97.5t85.5 -38.5q54 0 86.5 38.5t32.5 97.5q0 58 -32 97t-87 39t-87.5 -38t-32.5 -98zM432 593h-293v90h293v-90z" />
    <glyph glyph-name="Obreve" unicode="&#x14e;" horiz-adv-x="789" 
d="M179 341q0 -100 61.5 -167.5t153.5 -67.5t154 67.5t62 167.5t-59.5 167.5t-155.5 67.5q-92 0 -154 -67.5t-62 -167.5zM33 341q0 148 104 255.5t259 107.5q109 0 192.5 -51.5t125.5 -133.5t42 -178q0 -151 -103.5 -257t-257.5 -106q-72 0 -133 21.5t-102.5 57.5
t-70.5 83.5t-42.5 98t-13.5 102.5zM473 891h90q-4 -66 -50.5 -105t-116.5 -39q-77 0 -120.5 39.5t-46.5 104.5h89q2 -24 23 -38.5t55 -14.5q35 0 55 14.5t22 38.5z" />
    <glyph glyph-name="obreve" unicode="&#x14f;" horiz-adv-x="571" 
d="M30 240q0 111 73 183t183 72q112 0 184 -72.5t72 -182.5q0 -107 -72.5 -182t-183.5 -75q-110 0 -183 74t-73 183zM166 239q0 -59 34.5 -97.5t85.5 -38.5q54 0 86.5 38.5t32.5 97.5q0 58 -32 97t-87 39t-87.5 -38t-32.5 -98zM363 726h90q-4 -73 -51 -116t-116 -43
q-74 0 -118.5 42.5t-48.5 116.5h89q3 -30 23.5 -47.5t54.5 -17.5q33 0 54 18t23 47z" />
    <glyph glyph-name="Ohungarumlaut" unicode="&#x150;" horiz-adv-x="789" 
d="M179 341q0 -100 61.5 -167.5t153.5 -67.5t154 67.5t62 167.5t-59.5 167.5t-155.5 67.5q-92 0 -154 -67.5t-62 -167.5zM33 341q0 148 104 255.5t259 107.5q109 0 192.5 -51.5t125.5 -133.5t42 -178q0 -151 -103.5 -257t-257.5 -106q-72 0 -133 21.5t-102.5 57.5
t-70.5 83.5t-42.5 98t-13.5 102.5zM390 916l66 -83l-158 -108l-55 70zM594 916l66 -84l-159 -107l-55 70z" />
    <glyph glyph-name="ohungarumlaut" unicode="&#x151;" horiz-adv-x="571" 
d="M30 240q0 111 73 183t183 72q112 0 184 -72.5t72 -182.5q0 -107 -72.5 -182t-183.5 -75q-110 0 -183 74t-73 183zM166 239q0 -59 34.5 -97.5t85.5 -38.5q54 0 86.5 38.5t32.5 97.5q0 58 -32 97t-87 39t-87.5 -38t-32.5 -98zM223 753l91 -55l-111 -156l-75 47zM402 753
l91 -55l-112 -156l-75 47z" />
    <glyph glyph-name="OE" unicode="&#x152;" horiz-adv-x="1064" 
d="M996 682v-124h-265v-147h255v-118h-255v-169h275v-124h-406v81q-90 -103 -221 -103q-70 0 -128.5 21.5t-98 57.5t-67 83.5t-40 98t-12.5 102.5q0 148 99.5 255.5t248.5 107.5q130 0 219 -99v77h396zM179 341q0 -101 61 -168t154 -67q91 0 152.5 67.5t61.5 167.5
t-59.5 167.5t-153.5 67.5q-93 0 -154.5 -67t-61.5 -168z" />
    <glyph glyph-name="oe" unicode="&#x153;" horiz-adv-x="910" 
d="M30 240q0 110 70.5 182.5t175.5 72.5q118 0 186 -89q63 89 182 89q104 0 169 -72.5t65 -179.5q0 -9 -2 -35h-346q0 -50 34 -87t84 -37q57 0 89 50h132q-26 -67 -82 -109t-143 -42q-118 0 -182 91q-68 -91 -186 -91q-105 0 -175.5 74t-70.5 183zM165 239q0 -59 33.5 -97.5
t83.5 -38.5q52 0 84 38.5t32 97.5q0 58 -31 97t-85 39q-53 0 -85 -38t-32 -98zM640 401q-46 0 -75.5 -30.5t-33.5 -73.5h214q-4 44 -33 74t-72 30z" />
    <glyph glyph-name="Racute" unicode="&#x154;" horiz-adv-x="606" 
d="M400 288l211 -288h-170l-185 268h-45v-268h-143v682h212q135 0 197 -58t62 -150q0 -71 -39 -120t-100 -66zM392 468q0 47 -27 73t-78 26h-76v-194h77q48 0 76 26t28 69zM359 910l45 -100l-196 -78l-37 83z" />
    <glyph glyph-name="racute" unicode="&#x155;" horiz-adv-x="404" 
d="M381 489v-126q-34 6 -64 6q-59 0 -89.5 -35.5t-30.5 -100.5v-233h-135v479h132v-74h3q21 38 58 63t82 25q27 0 44 -4zM118 627l159 137l66 -87l-170 -122z" />
    <glyph glyph-name="Rcommaaccent" unicode="&#x156;" horiz-adv-x="606" 
d="M400 288l211 -288h-170l-185 268h-45v-268h-143v682h212q135 0 197 -58t62 -150q0 -71 -39 -120t-100 -66zM392 468q0 47 -27 73t-78 26h-76v-194h77q48 0 76 26t28 69zM257 -154v96h116v-60q0 -76 -36 -127h-63q27 42 27 91h-44z" />
    <glyph glyph-name="rcommaaccent" unicode="&#x157;" horiz-adv-x="404" 
d="M381 489v-126q-34 6 -64 6q-59 0 -89.5 -35.5t-30.5 -100.5v-233h-135v479h132v-74h3q21 38 58 63t82 25q27 0 44 -4zM70 -154v96h116v-60q0 -76 -36 -127h-63q27 42 27 91h-44z" />
    <glyph glyph-name="Rcaron" unicode="&#x158;" horiz-adv-x="606" 
d="M400 288l211 -288h-170l-185 268h-45v-268h-143v682h212q135 0 197 -58t62 -150q0 -71 -39 -120t-100 -66zM392 468q0 47 -27 73t-78 26h-76v-194h77q48 0 76 26t28 69zM265 732l-166 103l35 71l131 -60l131 60l34 -71z" />
    <glyph glyph-name="rcaron" unicode="&#x159;" horiz-adv-x="404" 
d="M381 489v-126q-34 6 -64 6q-59 0 -89.5 -35.5t-30.5 -100.5v-233h-135v479h132v-74h3q21 38 58 63t82 25q27 0 44 -4zM223 552l-165 127l49 68l116 -77l116 77l48 -68z" />
    <glyph glyph-name="Sacute" unicode="&#x15a;" horiz-adv-x="562" 
d="M501 504h-135q-3 38 -25.5 61t-59.5 23q-34 0 -56 -20t-22 -53q0 -36 29 -57.5t89 -40.5q193 -63 193 -227q0 -83 -60 -147.5t-172 -64.5q-103 0 -167.5 58t-72.5 163h141q12 -105 101 -105q41 0 65.5 25.5t24.5 62.5q0 42 -28.5 68.5t-94.5 47.5q-186 62 -186 215
q0 85 62 138t155 53q97 0 156 -54.5t63 -145.5zM371 910l45 -100l-196 -78l-37 83z" />
    <glyph glyph-name="sacute" unicode="&#x15b;" horiz-adv-x="441" 
d="M399 350h-119q-2 25 -17 39.5t-38 14.5t-36 -12.5t-13 -29.5q0 -21 19 -36.5t77 -35.5q138 -45 138 -153q0 -68 -49.5 -111t-135.5 -43q-88 0 -134.5 42t-50.5 115h121q5 -65 67 -65q25 0 40 14.5t15 36.5q0 25 -21 42t-74 35q-137 44 -137 149q0 64 48 103.5t125 39.5
t122 -39.5t53 -105.5zM129 627l159 137l66 -87l-170 -122z" />
    <glyph glyph-name="Scircumflex" unicode="&#x15c;" horiz-adv-x="562" 
d="M501 504h-135q-3 38 -25.5 61t-59.5 23q-34 0 -56 -20t-22 -53q0 -36 29 -57.5t89 -40.5q193 -63 193 -227q0 -83 -60 -147.5t-172 -64.5q-103 0 -167.5 58t-72.5 163h141q12 -105 101 -105q41 0 65.5 25.5t24.5 62.5q0 42 -28.5 68.5t-94.5 47.5q-186 62 -186 215
q0 85 62 138t155 53q97 0 156 -54.5t63 -145.5zM280 906l165 -103l-35 -71l-130 60l-131 -60l-35 71z" />
    <glyph glyph-name="scircumflex" unicode="&#x15d;" horiz-adv-x="441" 
d="M399 350h-119q-2 25 -17 39.5t-38 14.5t-36 -12.5t-13 -29.5q0 -21 19 -36.5t77 -35.5q138 -45 138 -153q0 -68 -49.5 -111t-135.5 -43q-88 0 -134.5 42t-50.5 115h121q5 -65 67 -65q25 0 40 14.5t15 36.5q0 25 -21 42t-74 35q-137 44 -137 149q0 64 48 103.5t125 39.5
t122 -39.5t53 -105.5zM225 747l164 -127l-48 -68l-116 77l-116 -77l-49 68z" />
    <glyph glyph-name="Scedilla" unicode="&#x15e;" horiz-adv-x="562" 
d="M501 504h-135q-3 38 -25.5 61t-59.5 23q-34 0 -56 -20t-22 -53q0 -34 27 -54t91 -44q102 -38 147.5 -93t45.5 -134q0 -75 -52.5 -137t-148.5 -73l-8 -19q42 -7 66.5 -34.5t24.5 -64.5q0 -50 -33 -80.5t-99 -30.5q-54 0 -111 19l26 75q33 -14 74 -14q49 0 49 30
q0 41 -94 41l31 78q-86 11 -138 67.5t-59 151.5h141q12 -105 101 -105q41 0 65.5 25t24.5 62q0 42 -29.5 67.5t-95.5 50.5q-97 37 -140.5 90t-43.5 126q0 85 63.5 137t153.5 52q97 0 156 -54.5t63 -145.5z" />
    <glyph glyph-name="scedilla" unicode="&#x15f;" horiz-adv-x="441" 
d="M395 350h-119q-2 25 -17 39.5t-38 14.5t-36 -12t-13 -28q0 -23 18.5 -37.5t77.5 -36.5q74 -26 106 -63t32 -91q0 -61 -41 -102t-115 -49l-9 -24q42 -7 66.5 -34.5t24.5 -64.5q0 -50 -33 -80.5t-99 -30.5q-54 0 -111 19l27 75q33 -14 73 -14q49 0 49 30q0 41 -94 41l33 85
q-67 9 -102.5 49.5t-38.5 103.5h121q5 -65 66 -65q25 0 40.5 14t15.5 37q0 24 -21 41t-74 36q-70 24 -103.5 59.5t-33.5 89.5q0 64 48 103.5t125 39.5t122 -39.5t53 -105.5z" />
    <glyph glyph-name="Scaron" unicode="&#x160;" horiz-adv-x="562" 
d="M503 504h-135q-3 38 -25.5 61t-59.5 23q-34 0 -56 -20t-22 -53q0 -36 29 -57.5t89 -40.5q193 -63 193 -227q0 -83 -60 -147.5t-172 -64.5q-103 0 -167.5 58t-72.5 163h141q12 -105 101 -105q41 0 65.5 25.5t24.5 62.5q0 42 -28.5 68.5t-94.5 47.5q-186 62 -186 215
q0 85 62 138t155 53q97 0 156 -54.5t63 -145.5zM274 732l-166 103l35 71l131 -60l131 60l34 -71z" />
    <glyph glyph-name="scaron" unicode="&#x161;" horiz-adv-x="441" 
d="M401 350h-119q-2 25 -17 39.5t-38 14.5t-36 -12.5t-13 -29.5q0 -21 19 -36.5t77 -35.5q138 -45 138 -153q0 -68 -49.5 -111t-135.5 -43q-88 0 -134.5 42t-50.5 115h121q5 -65 67 -65q25 0 40 14.5t15 36.5q0 25 -21 42t-74 35q-137 44 -137 149q0 64 48 103.5t125 39.5
t122 -39.5t53 -105.5zM223 552l-165 127l49 68l116 -77l116 77l48 -68z" />
    <glyph glyph-name="uni0162" unicode="&#x162;" horiz-adv-x="485" 
d="M170 0v558h-162v124h469v-124h-163v-558h-144zM182 -154v96h116v-60q0 -76 -36 -127h-63q27 42 27 91h-44z" />
    <glyph glyph-name="uni0163" unicode="&#x163;" horiz-adv-x="344" 
d="M11 365v114h58v153h136v-153h113v-114h-113v-186q0 -41 13.5 -56t46.5 -15q31 0 58 8v-110q-45 -13 -94 -13q-86 0 -123 44.5t-37 127.5v200h-58zM142 -151v96h116v-60q0 -76 -36 -127h-63q27 42 27 91h-44z" />
    <glyph glyph-name="Tcaron" unicode="&#x164;" horiz-adv-x="485" 
d="M170 0v558h-162v124h469v-124h-163v-558h-144zM242 732l-166 103l35 71l131 -60l131 60l34 -71z" />
    <glyph glyph-name="tcaron" unicode="&#x165;" horiz-adv-x="369" 
d="M11 365v114h58v153h136v-153h113v-114h-113v-186q0 -41 13.5 -56t46.5 -15q31 0 58 8v-110q-45 -13 -94 -13q-86 0 -123 44.5t-37 127.5v200h-58zM256 624v96h116v-60q0 -76 -36 -127h-63q27 42 27 91h-44z" />
    <glyph glyph-name="Tbar" unicode="&#x166;" horiz-adv-x="485" 
d="M420 292h-106v-292h-144v292h-106v107h106v159h-162v124h469v-124h-163v-159h106v-107z" />
    <glyph glyph-name="tbar" unicode="&#x167;" horiz-adv-x="344" 
d="M308 202l-103 1q0 -58 11 -76.5t49 -18.5q31 0 58 8v-110q-45 -13 -94 -13q-86 0 -123 44.5t-37 127.5v38h-50v83h50v79h-58v114h58v153h136v-153h113v-114h-113v-79h103v-84z" />
    <glyph glyph-name="Utilde" unicode="&#x168;" horiz-adv-x="635" 
d="M318 -22q-117 0 -188.5 70t-71.5 222v412h143v-423q0 -75 30.5 -117t85.5 -42q118 0 118 159v423h142v-410q0 -151 -69.5 -222.5t-189.5 -71.5zM221 767h-79q2 63 29.5 100.5t77.5 37.5q37 0 75 -28q36 -27 59 -27q29 0 30 45h79q-6 -137 -110 -137q-42 0 -79 28
q-38 27 -53 27q-28 0 -29 -46z" />
    <glyph glyph-name="utilde" unicode="&#x169;" horiz-adv-x="570" 
d="M508 479v-479h-134v60h-3q-52 -76 -140 -76q-70 0 -122 50t-52 161v284h135v-267q0 -52 22.5 -80t62.5 -28q45 0 70.5 31t25.5 90v254h135zM187 587h-79q2 63 29.5 100.5t77.5 37.5q37 0 75 -28q36 -27 59 -27q29 0 30 45h79q-6 -137 -110 -137q-42 0 -79 28
q-38 27 -53 27q-28 0 -29 -46z" />
    <glyph glyph-name="Umacron" unicode="&#x16a;" horiz-adv-x="635" 
d="M318 -22q-117 0 -188.5 70t-71.5 222v412h143v-423q0 -75 30.5 -117t85.5 -42q118 0 118 159v423h142v-410q0 -151 -69.5 -222.5t-189.5 -71.5zM469 773h-293v90h293v-90z" />
    <glyph glyph-name="umacron" unicode="&#x16b;" horiz-adv-x="570" 
d="M508 479v-479h-134v60h-3q-52 -76 -140 -76q-70 0 -122 50t-52 161v284h135v-267q0 -52 22.5 -80t62.5 -28q45 0 70.5 31t25.5 90v254h135zM430 593h-293v90h293v-90z" />
    <glyph glyph-name="Ubreve" unicode="&#x16c;" horiz-adv-x="635" 
d="M318 -22q-117 0 -188.5 70t-71.5 222v412h143v-423q0 -75 30.5 -117t85.5 -42q118 0 118 159v423h142v-410q0 -151 -69.5 -222.5t-189.5 -71.5zM394 891h90q-4 -66 -50.5 -105t-116.5 -39q-77 0 -120.5 39.5t-46.5 104.5h89q2 -24 23 -38.5t55 -14.5q35 0 55 14.5
t22 38.5z" />
    <glyph glyph-name="ubreve" unicode="&#x16d;" horiz-adv-x="570" 
d="M508 479v-479h-134v60h-3q-52 -76 -140 -76q-70 0 -122 50t-52 161v284h135v-267q0 -52 22.5 -80t62.5 -28q45 0 70.5 31t25.5 90v254h135zM361 726h90q-4 -73 -51 -116t-116 -43q-74 0 -118.5 42.5t-48.5 116.5h89q3 -30 23.5 -47.5t54.5 -17.5q33 0 54 18t23 47z" />
    <glyph glyph-name="Uring" unicode="&#x16e;" horiz-adv-x="635" 
d="M318 -22q-117 0 -188.5 70t-71.5 222v412h143v-423q0 -75 30.5 -117t85.5 -42q118 0 118 159v423h142v-410q0 -151 -69.5 -222.5t-189.5 -71.5zM261 844q0 -23 16.5 -39.5t39.5 -16.5t39.5 16.5t16.5 39.5t-16.5 39.5t-39.5 16.5t-39.5 -16.5t-16.5 -39.5zM188 844
q0 54 37 91.5t92 37.5q54 0 92 -37.5t38 -91.5t-38 -92t-92 -38t-91.5 38t-37.5 92z" />
    <glyph glyph-name="uring" unicode="&#x16f;" horiz-adv-x="570" 
d="M508 479v-479h-134v60h-3q-52 -76 -140 -76q-70 0 -122 50t-52 161v284h135v-267q0 -52 22.5 -80t62.5 -28q45 0 70.5 31t25.5 90v254h135zM228 659q0 -23 16.5 -39.5t39.5 -16.5t39.5 16.5t16.5 39.5t-16.5 39.5t-39.5 16.5t-39.5 -16.5t-16.5 -39.5zM155 659
q0 54 37 91.5t92 37.5q54 0 92 -37.5t38 -91.5t-38 -92t-92 -38t-91.5 38t-37.5 92z" />
    <glyph glyph-name="Uhungarumlaut" unicode="&#x170;" horiz-adv-x="635" 
d="M318 -22q-117 0 -188.5 70t-71.5 222v412h143v-423q0 -75 30.5 -117t85.5 -42q118 0 118 159v423h142v-410q0 -151 -69.5 -222.5t-189.5 -71.5zM300 916l66 -83l-158 -108l-55 70zM504 916l66 -84l-159 -107l-55 70z" />
    <glyph glyph-name="uhungarumlaut" unicode="&#x171;" horiz-adv-x="570" 
d="M508 479v-479h-134v60h-3q-52 -76 -140 -76q-70 0 -122 50t-52 161v284h135v-267q0 -52 22.5 -80t62.5 -28q45 0 70.5 31t25.5 90v254h135zM220 753l91 -55l-111 -156l-75 47zM399 753l91 -55l-112 -156l-75 47z" />
    <glyph glyph-name="Uogonek" unicode="&#x172;" horiz-adv-x="635" 
d="M318 -22q-117 0 -188.5 70t-71.5 222v412h143v-423q0 -75 30.5 -117t85.5 -42q118 0 118 159v423h142v-410q0 -185 -104 -252l-19.5 -13t-18 -12.5t-12 -10.5t-13.5 -14q-24 -30 -24 -60q0 -43 48 -43q20 0 36 4v-92q-26 -7 -63 -7q-60 0 -90.5 32t-30.5 81q0 54 41 93
h-9z" />
    <glyph glyph-name="uogonek" unicode="&#x173;" horiz-adv-x="570" 
d="M516 -129v-92q-26 -7 -63 -7q-60 0 -90.5 32t-30.5 81q0 34 21 65.5t55 49.5h-34v60h-3q-52 -76 -140 -76q-70 0 -122 50t-52 161v284h135v-267q0 -52 22.5 -80t62.5 -28q45 0 70.5 31t25.5 90v254h135v-479q-26 -1 -51 -26.5t-25 -63.5q0 -43 48 -43q20 0 36 4z" />
    <glyph glyph-name="Wcircumflex" unicode="&#x174;" horiz-adv-x="871" 
d="M544 0l-82 359q-16 76 -22 145h-4q-11 -92 -23 -142l-78 -362h-152l-175 682h142l85 -371q11 -46 25 -129h4q10 62 27 138l81 362h135l87 -369q9 -35 25 -131h4q8 60 22 130l79 370h139l-165 -682h-154zM437 906l165 -103l-35 -71l-130 60l-131 -60l-35 71z" />
    <glyph glyph-name="wcircumflex" unicode="&#x175;" horiz-adv-x="725" 
d="M429 0l-48 210q-18 88 -19 104h-4q-6 -50 -23 -124l-44 -190h-156l-121 479h133l56 -241q11 -50 18 -95h4q10 65 19 100l59 236h122l60 -240q8 -35 16 -96h3q7 54 16 95l58 241h132l-125 -479h-156zM365 747l164 -127l-48 -68l-116 77l-116 -77l-49 68z" />
    <glyph glyph-name="Ycircumflex" unicode="&#x176;" horiz-adv-x="598" 
d="M228 0v272l-221 410h155l105 -203q25 -49 36 -85h2q16 40 37 84l99 204h150l-220 -409v-273h-143zM303 906l165 -103l-35 -71l-130 60l-131 -60l-35 71z" />
    <glyph glyph-name="ycircumflex" unicode="&#x177;" horiz-adv-x="467" 
d="M474 479l-262 -714h-128l88 239l-174 475h140l69 -208q25 -80 32 -118h4q9 49 31 118l67 208h133zM242 747l164 -127l-48 -68l-116 77l-116 -77l-49 68z" />
    <glyph glyph-name="Ydieresis" unicode="&#x178;" horiz-adv-x="598" 
d="M230 0v272l-221 410h155l105 -203q25 -49 36 -85h2q16 40 37 84l99 204h150l-220 -409v-273h-143zM156 771v112h114v-112h-114zM340 771v112h114v-112h-114z" />
    <glyph glyph-name="Zacute" unicode="&#x179;" horiz-adv-x="619" 
d="M55 558v124h510v-117l-348 -441h364v-124h-543v116l347 442h-330zM389 910l45 -100l-196 -78l-37 83z" />
    <glyph glyph-name="zacute" unicode="&#x17a;" horiz-adv-x="486" 
d="M45 367v112h395v-108l-235 -259h247v-112h-419v108l236 259h-224zM145 627l159 137l66 -87l-170 -122z" />
    <glyph glyph-name="Zdotaccent" unicode="&#x17b;" horiz-adv-x="619" 
d="M55 558v124h510v-117l-348 -441h364v-124h-543v116l347 442h-330zM234 772v114h119v-114h-119z" />
    <glyph glyph-name="zdotaccent" unicode="&#x17c;" horiz-adv-x="486" 
d="M45 367v112h395v-108l-235 -259h247v-112h-419v108l236 259h-224zM177 588v114h119v-114h-119z" />
    <glyph glyph-name="Zcaron" unicode="&#x17d;" horiz-adv-x="619" 
d="M57 558v124h510v-117l-348 -441h364v-124h-543v116l347 442h-330zM299 732l-166 103l35 71l131 -60l131 60l34 -71z" />
    <glyph glyph-name="zcaron" unicode="&#x17e;" horiz-adv-x="486" 
d="M47 367v112h395v-108l-235 -259h247v-112h-419v108l236 259h-224zM239 552l-165 127l49 68l116 -77l116 77l48 -68z" />
    <glyph glyph-name="longs" unicode="&#x17f;" horiz-adv-x="276" 
d="M66 0v552q0 85 44.5 129.5t127.5 44.5q43 0 83 -11v-111q-30 8 -54 8q-65 0 -65 -69v-543h-136z" />
    <glyph glyph-name="florin" unicode="&#x192;" horiz-adv-x="573" 
d="M139 -69l71 437h-74v114h90l7 50q14 88 56 130t120 42q41 0 77 -8v-111q-20 5 -49 5q-58 0 -70 -69l-6 -39h86v-114h-102l-71 -445q-29 -181 -175 -181q-41 0 -79 8v112q21 -6 51 -6t46 17.5t22 57.5z" />
    <glyph glyph-name="Scommaaccent" unicode="&#x218;" horiz-adv-x="562" 
d="M501 504h-135q-3 38 -25.5 61t-59.5 23q-34 0 -56 -20t-22 -53q0 -36 29 -57.5t89 -40.5q193 -63 193 -227q0 -83 -60 -147.5t-172 -64.5q-103 0 -167.5 58t-72.5 163h141q12 -105 101 -105q41 0 65.5 25.5t24.5 62.5q0 42 -28.5 68.5t-94.5 47.5q-186 62 -186 215
q0 85 62 138t155 53q97 0 156 -54.5t63 -145.5zM219 -154v96h116v-60q0 -76 -36 -127h-63q27 42 27 91h-44z" />
    <glyph glyph-name="scommaaccent" unicode="&#x219;" horiz-adv-x="441" 
d="M395 350h-119q-2 25 -17 39.5t-38 14.5t-36 -12.5t-13 -29.5q0 -21 19 -36.5t77 -35.5q138 -45 138 -153q0 -68 -49.5 -111t-135.5 -43q-88 0 -134.5 42t-50.5 115h121q5 -65 67 -65q25 0 40 14.5t15 36.5q0 25 -21 42t-74 35q-137 44 -137 149q0 64 48 103.5t125 39.5
t122 -39.5t53 -105.5zM157 -154v96h116v-60q0 -76 -36 -127h-63q27 42 27 91h-44z" />
    <glyph glyph-name="uni021A" unicode="&#x21a;" horiz-adv-x="485" 
d="M170 0v558h-162v124h469v-124h-163v-558h-144zM182 -154v96h116v-60q0 -76 -36 -127h-63q27 42 27 91h-44z" />
    <glyph glyph-name="uni021B" unicode="&#x21b;" horiz-adv-x="344" 
d="M11 365v114h58v153h136v-153h113v-114h-113v-186q0 -41 13.5 -56t46.5 -15q31 0 58 8v-110q-45 -13 -94 -13q-86 0 -123 44.5t-37 127.5v200h-58zM142 -151v96h116v-60q0 -76 -36 -127h-63q27 42 27 91h-44z" />
    <glyph glyph-name="dotlessj" unicode="&#x237;" horiz-adv-x="259" 
d="M197 479v-513q0 -217 -184 -217q-54 0 -94 14v114q30 -10 67 -10q38 0 57 22t19 75v515h135z" />
    <glyph glyph-name="circumflex" unicode="&#x2c6;" horiz-adv-x="322" 
d="M161 747l164 -127l-48 -68l-116 77l-116 -77l-49 68z" />
    <glyph glyph-name="caron" unicode="&#x2c7;" horiz-adv-x="322" 
d="M161 552l-165 127l49 68l116 -77l116 77l48 -68z" />
    <glyph glyph-name="uni02C9" unicode="&#x2c9;" horiz-adv-x="322" 
d="M307 593h-293v90h293v-90z" />
    <glyph glyph-name="breve" unicode="&#x2d8;" horiz-adv-x="322" 
d="M238 726h90q-4 -73 -51 -116t-116 -43q-74 0 -118.5 42.5t-48.5 116.5h89q3 -30 23.5 -47.5t54.5 -17.5q33 0 54 18t23 47z" />
    <glyph glyph-name="dotaccent" unicode="&#x2d9;" horiz-adv-x="322" 
d="M101 588v114h119v-114h-119z" />
    <glyph glyph-name="ring" unicode="&#x2da;" horiz-adv-x="322" 
d="M106 659q0 -23 16.5 -39.5t39.5 -16.5t39.5 16.5t16.5 39.5t-16.5 39.5t-39.5 16.5t-39.5 -16.5t-16.5 -39.5zM33 659q0 54 37 91.5t92 37.5q54 0 92 -37.5t38 -91.5t-38 -92t-92 -38t-91.5 38t-37.5 92z" />
    <glyph glyph-name="ogonek" unicode="&#x2db;" horiz-adv-x="322" 
d="M241 -129v-92q-26 -7 -64 -7q-60 0 -90 32t-30 81q0 34 20.5 65.5t54.5 49.5h79q-54 -48 -54 -90q0 -43 47 -43q21 0 37 4z" />
    <glyph glyph-name="tilde" unicode="&#x2dc;" horiz-adv-x="322" 
d="M65 587h-79q2 63 29.5 100.5t77.5 37.5q37 0 75 -28q36 -27 59 -27q29 0 30 45h79q-6 -137 -110 -137q-42 0 -79 28q-38 27 -53 27q-28 0 -29 -46z" />
    <glyph glyph-name="hungarumlaut" unicode="&#x2dd;" horiz-adv-x="322" 
d="M98 753l91 -55l-111 -156l-75 47zM277 753l91 -55l-112 -156l-75 47z" />
    <glyph glyph-name="uni0394" unicode="&#x394;" horiz-adv-x="664" 
d="M7 0l265 682h134l251 -682h-650zM296 419l-108 -305h285l-107 306q-20 58 -32 104h-5q-13 -52 -33 -105z" />
    <glyph glyph-name="uni03A9" unicode="&#x3a9;" horiz-adv-x="761" 
d="M722 388q0 -85 -43 -153.5t-119 -98.5v-13h164v-123h-296v180q68 18 108 71t40 128q0 90 -53.5 146t-142.5 56q-86 0 -141.5 -56t-55.5 -146q0 -75 40 -128t108 -71v-180h-294v123h162v13q-73 29 -117 96t-44 156q0 132 95 224t248 92q157 0 249 -90.5t92 -225.5z" />
    <glyph glyph-name="uni03BC" unicode="&#x3bc;" horiz-adv-x="584" 
d="M57 -213v692h135v-267q0 -108 82 -108q98 0 98 128v247h136v-315q0 -29 7.5 -40t26.5 -11q12 0 22 3v-119q-31 -9 -63 -9q-100 0 -118 75h-3q-40 -79 -121 -79q-45 0 -75 23l-3 -2q11 -44 11 -122v-96h-135z" />
    <glyph glyph-name="pi" unicode="&#x3c0;" horiz-adv-x="654" 
d="M605 115v-109q-31 -13 -82 -13q-72 0 -104.5 39.5t-32.5 119.5v213h-125v-230q0 -77 -17 -135h-136q18 57 18 141v224q-63 0 -110 -25v112q50 27 141 27h472v-114h-108v-194q0 -35 10 -48.5t34 -13.5q20 0 40 6z" />
    <glyph glyph-name="uni0400" unicode="&#x400;" horiz-adv-x="544" 
d="M477 682v-124h-264v-147h255v-118h-255v-169h275v-124h-418v682h407zM141 810l44 100l189 -95l-37 -83z" />
    <glyph glyph-name="afii10023" unicode="&#x401;" horiz-adv-x="544" 
d="M477 682v-124h-264v-147h255v-118h-255v-169h275v-124h-418v682h407zM123 771v112h114v-112h-114zM307 771v112h114v-112h-114z" />
    <glyph glyph-name="afii10051" unicode="&#x402;" horiz-adv-x="686" 
d="M486 -22v247q0 109 -91 109q-44 0 -70 -30t-26 -77l1 -227h-143v558h-149v124h442l-1 -124h-149v-174h3q20 35 57 53.5t81 18.5q92 0 140 -57t48 -164v-247q0 -209 -184 -209q-53 0 -92 14v108q28 -10 61 -10q72 0 72 87z" />
    <glyph glyph-name="afii10052" unicode="&#x403;" horiz-adv-x="494" 
d="M68 0v682h418v-124h-280v-558h-138zM363 910l45 -100l-196 -78l-37 83z" />
    <glyph glyph-name="afii10053" unicode="&#x404;" horiz-adv-x="761" 
d="M387 704q128 0 211.5 -63.5t110.5 -153.5h-156q-19 44 -63 72t-104 28q-78 0 -131.5 -47.5t-68.5 -128.5h306v-118h-309q12 -86 67.5 -142t137.5 -56q65 0 108.5 31t63.5 81h160q-37 -104 -122 -166.5t-214 -62.5q-156 0 -253.5 103.5t-97.5 261.5q0 156 100 258.5
t254 102.5z" />
    <glyph glyph-name="afii10054" unicode="&#x405;" horiz-adv-x="562" 
d="M501 504h-135q-3 38 -25.5 61t-59.5 23q-34 0 -56 -20t-22 -53q0 -36 29 -57.5t89 -40.5q193 -63 193 -227q0 -83 -60 -147.5t-172 -64.5q-103 0 -167.5 58t-72.5 163h141q12 -105 101 -105q41 0 65.5 25.5t24.5 62.5q0 42 -28.5 68.5t-94.5 47.5q-186 62 -186 215
q0 85 62 138t155 53q97 0 156 -54.5t63 -145.5z" />
    <glyph glyph-name="afii10055" unicode="&#x406;" horiz-adv-x="280" 
d="M68 0v682h143v-682h-143z" />
    <glyph glyph-name="afii10056" unicode="&#x407;" horiz-adv-x="280" 
d="M70 0v682h143v-682h-143zM-8 771v112h114v-112h-114zM176 771v112h114v-112h-114z" />
    <glyph glyph-name="afii10057" unicode="&#x408;" horiz-adv-x="386" 
d="M181 201v481h144v-474q0 -123 -51.5 -176.5t-158.5 -53.5q-61 0 -107 20v120q40 -18 87 -18q45 0 65.5 23.5t20.5 77.5z" />
    <glyph glyph-name="afii10058" unicode="&#x409;" horiz-adv-x="950" 
d="M450 558h-177l-30 -375q-8 -102 -47 -146t-125 -44q-36 0 -63 9v119q14 -6 39 -6q28 0 41.5 14.5t16.5 53.5l39 499h449v-268h88q112 0 175.5 -55t63.5 -150q0 -96 -67 -152.5t-174 -56.5h-229v558zM775 209q0 45 -30 71t-84 26h-68v-198h73q52 0 80.5 26.5t28.5 74.5z
" />
    <glyph glyph-name="afii10059" unicode="&#x40a;" horiz-adv-x="946" 
d="M589 682v-268h88q112 0 175.5 -55t63.5 -150q0 -96 -67 -152.5t-174 -56.5h-229v290h-235v-290h-143v682h143v-268h235v268h143zM771 209q0 45 -30 71t-84 26h-68v-198h73q52 0 80.5 26.5t28.5 74.5z" />
    <glyph glyph-name="afii10060" unicode="&#x40b;" horiz-adv-x="686" 
d="M300 558v-174h3q20 34 57.5 53t82.5 19q92 0 139 -57t47 -166v-233h-143v225q0 56 -22 82.5t-69 26.5q-44 0 -70 -30t-26 -77l1 -227h-143v558h-149v124h442l-1 -124h-149z" />
    <glyph glyph-name="afii10061" unicode="&#x40c;" horiz-adv-x="651" 
d="M489 0l-278 314v-314h-143v682h143v-309l275 309h175l-309 -330l319 -352h-182zM421 910l45 -100l-196 -78l-37 83z" />
    <glyph glyph-name="uni040D" unicode="&#x40d;" horiz-adv-x="689" 
d="M68 682h139v-350q0 -72 -3 -123h3q21 46 103 180l179 293h131v-682h-138v339q0 33 3 129h-3q-17 -34 -119 -201l-164 -267h-131v682zM220 810l44 100l189 -95l-37 -83z" />
    <glyph glyph-name="afii10062" unicode="&#x40e;" horiz-adv-x="611" 
d="M613 682l-240 -536q-70 -153 -190 -153q-37 0 -65 10v118q19 -7 46 -7q28 0 45.5 12t35.5 48l18 40l-256 468h155l136 -262q20 -37 31 -69h2q9 31 26 70l106 261h150zM399 891h90q-4 -66 -50.5 -105t-116.5 -39q-77 0 -120.5 39.5t-46.5 104.5h89q2 -24 23 -38.5
t55 -14.5q35 0 55 14.5t22 38.5z" />
    <glyph glyph-name="afii10145" unicode="&#x40f;" horiz-adv-x="677" 
d="M68 0v682h139v-558h263v558h139v-682h-199v-175h-143v175h-199z" />
    <glyph glyph-name="afii10017" unicode="&#x410;" horiz-adv-x="664" 
d="M7 0l265 682h134l251 -682h-147l-53 155h-252l-54 -155h-144zM296 419l-57 -162h183l-56 163q-20 58 -32 104h-5q-13 -52 -33 -105z" />
    <glyph glyph-name="afii10018" unicode="&#x411;" horiz-adv-x="571" 
d="M393 209q0 45 -30 71t-84 26h-68v-198h74q52 0 80 26.5t28 74.5zM68 682h402v-124h-259v-144h88q112 0 175.5 -55t63.5 -150q0 -96 -67 -152.5t-174 -56.5h-229v682z" />
    <glyph glyph-name="afii10019" unicode="&#x412;" horiz-adv-x="564" 
d="M68 0v682h189q109 0 172.5 -44t63.5 -128q0 -55 -34.5 -92.5t-87.5 -50.5v-2q75 -10 116.5 -57.5t41.5 -111.5q0 -92 -66.5 -144t-171.5 -52h-223zM385 208q0 44 -30 70.5t-84 26.5h-68v-197h74q52 0 80 26t28 74zM352 496q0 38 -27 58.5t-75 20.5h-47v-165h52
q97 0 97 86z" />
    <glyph glyph-name="afii10020" unicode="&#x413;" horiz-adv-x="494" 
d="M68 0v682h418v-124h-280v-558h-138z" />
    <glyph glyph-name="afii10021" unicode="&#x414;" horiz-adv-x="792" 
d="M20 -175v299h26q95 0 106 168l29 390h485v-558h96v-299h-143v175h-456v-175h-143zM523 124v434h-212l-19 -266q-9 -120 -53 -168h284z" />
    <glyph glyph-name="afii10022" unicode="&#x415;" horiz-adv-x="544" 
d="M475 682v-124h-264v-147h255v-118h-255v-169h275v-124h-418v682h407z" />
    <glyph glyph-name="afii10024" unicode="&#x416;" horiz-adv-x="926" 
d="M392 319l-241 -319h-170l271 351l-259 331h169l230 -306v306h143v-306l229 306h169l-259 -331l271 -351h-170l-240 319v-319h-143v319z" />
    <glyph glyph-name="afii10025" unicode="&#x417;" horiz-adv-x="556" 
d="M27 193h145q4 -42 30.5 -69t70.5 -27q45 0 72.5 28.5t27.5 77.5q0 47 -30 76.5t-84 29.5h-57v112h56q43 0 68 24t25 64q0 32 -22.5 54.5t-57.5 22.5q-37 0 -56.5 -22.5t-21.5 -56.5h-145q7 91 68.5 144t154.5 53q105 0 164 -51t59 -134q0 -49 -29 -87.5t-74 -56.5v-3
q58 -17 92 -64t34 -111q0 -96 -67.5 -157t-177.5 -61q-111 0 -175.5 60t-69.5 154z" />
    <glyph glyph-name="afii10026" unicode="&#x418;" horiz-adv-x="689" 
d="M68 682h139v-350q0 -72 -3 -123h3q21 46 103 180l179 293h131v-682h-138v339q0 33 3 129h-3q-17 -34 -119 -201l-164 -267h-131v682z" />
    <glyph glyph-name="afii10027" unicode="&#x419;" horiz-adv-x="689" 
d="M68 682h139v-350q0 -72 -3 -123h3q21 46 103 180l179 293h131v-682h-138v339q0 33 3 129h-3q-17 -34 -119 -201l-164 -267h-131v682zM418 891h90q-4 -66 -50.5 -105t-116.5 -39q-77 0 -120.5 39.5t-46.5 104.5h89q2 -24 23 -38.5t55 -14.5q35 0 55 14.5t22 38.5z" />
    <glyph glyph-name="afii10028" unicode="&#x41a;" horiz-adv-x="651" 
d="M489 0l-278 314v-314h-143v682h143v-309l275 309h175l-309 -330l319 -352h-182z" />
    <glyph glyph-name="afii10029" unicode="&#x41b;" horiz-adv-x="699" 
d="M273 558l-30 -375q-8 -102 -47 -146t-125 -44q-36 0 -63 9v119q14 -6 39 -6q28 0 41.5 14.5t16.5 53.5l39 499h486v-682h-138v558h-219z" />
    <glyph glyph-name="afii10030" unicode="&#x41c;" horiz-adv-x="822" 
d="M704 682l84 -682h-138l-33 335q-8 76 -14 150h-6q0 -1 -16.5 -62l-24.5 -89l-99 -334h-100l-101 339q-30 98 -39 146h-8q-2 -45 -11 -144l-35 -341h-129l81 682h158l100 -322q24 -77 36 -125h4q9 35 36 125l98 322h157z" />
    <glyph glyph-name="afii10031" unicode="&#x41d;" horiz-adv-x="696" 
d="M484 0v290h-273v-290h-143v682h143v-268h273v268h143v-682h-143z" />
    <glyph glyph-name="afii10032" unicode="&#x41e;" horiz-adv-x="789" 
d="M179 341q0 -100 61.5 -167.5t153.5 -67.5t154 67.5t62 167.5t-59.5 167.5t-155.5 67.5q-92 0 -154 -67.5t-62 -167.5zM33 341q0 148 104 255.5t259 107.5q109 0 192.5 -51.5t125.5 -133.5t42 -178q0 -151 -103.5 -257t-257.5 -106q-72 0 -133 21.5t-102.5 57.5
t-70.5 83.5t-42.5 98t-13.5 102.5z" />
    <glyph glyph-name="afii10033" unicode="&#x41f;" horiz-adv-x="677" 
d="M470 0v558h-263v-558h-139v682h541v-682h-139z" />
    <glyph glyph-name="afii10034" unicode="&#x420;" horiz-adv-x="564" 
d="M400 461q0 46 -29 76t-88 30h-72v-211h69q120 0 120 105zM68 0v682h218q115 0 186.5 -55.5t71.5 -163.5q0 -105 -66 -163.5t-197 -58.5h-70v-241h-143z" />
    <glyph glyph-name="afii10035" unicode="&#x421;" horiz-adv-x="765" 
d="M387 704q133 0 219 -72.5t106 -167.5h-154q-14 50 -60 84t-112 34q-91 0 -149 -67t-58 -173q0 -101 58.5 -171.5t150.5 -70.5q70 0 114.5 37t62.5 92h159q-35 -112 -121 -181.5t-219 -69.5q-156 0 -253.5 103.5t-97.5 261.5q0 156 100 258.5t254 102.5z" />
    <glyph glyph-name="afii10036" unicode="&#x422;" horiz-adv-x="485" 
d="M170 0v558h-162v124h469v-124h-163v-558h-144z" />
    <glyph glyph-name="afii10037" unicode="&#x423;" horiz-adv-x="611" 
d="M613 682l-240 -536q-70 -153 -190 -153q-37 0 -65 10v118q19 -7 46 -7q28 0 45.5 12t35.5 48l18 40l-256 468h155l136 -262q20 -37 31 -69h2q9 31 26 70l106 261h150z" />
    <glyph glyph-name="afii10038" unicode="&#x424;" horiz-adv-x="815" 
d="M336 177v334q-72 0 -117 -46t-45 -121t47.5 -121t114.5 -46zM479 511v-334q67 0 114 46t47 121t-44.5 121t-116.5 46zM479 -10h-143v74q-140 4 -223.5 81.5t-83.5 199.5t84.5 198t222.5 80v68h143v-68q140 -5 223.5 -80t83.5 -198q0 -122 -84 -199.5t-223 -81.5v-74z" />
    <glyph glyph-name="afii10039" unicode="&#x425;" horiz-adv-x="615" 
d="M167 682l95 -148l48 -80h3q29 52 48 82l92 146h152l-222 -325l232 -357h-158l-97 157q-11 17 -30.5 50.5l-24.5 42.5h-2l-56 -95l-95 -155h-152l232 351l-224 331h159z" />
    <glyph glyph-name="afii10040" unicode="&#x426;" horiz-adv-x="736" 
d="M563 0h-495v682h143v-558h255v558h143v-558h97v-299h-143v175z" />
    <glyph glyph-name="afii10041" unicode="&#x427;" horiz-adv-x="641" 
d="M573 0h-143v312h-4q-25 -33 -69.5 -52.5t-89.5 -19.5q-99 0 -155 57t-56 167v218h143v-197q0 -123 113 -123q53 0 85.5 33.5t32.5 91.5v195h143v-682z" />
    <glyph glyph-name="afii10042" unicode="&#x428;" horiz-adv-x="937" 
d="M68 0v682h139v-558h192v558h139v-558h192v558h139v-682h-801z" />
    <glyph glyph-name="afii10043" unicode="&#x429;" horiz-adv-x="995" 
d="M822 0h-754v682h139v-558h192v558h139v-558h192v558h139v-558h96v-299h-143v175z" />
    <glyph glyph-name="afii10044" unicode="&#x42a;" horiz-adv-x="671" 
d="M496 209q0 45 -30 71t-84 26h-69v-198h74q52 0 80.5 26.5t28.5 74.5zM170 558h-162v124h305v-268h88q112 0 175.5 -54.5t63.5 -150.5t-66.5 -152.5t-173.5 -56.5h-230v558z" />
    <glyph glyph-name="afii10045" unicode="&#x42b;" horiz-adv-x="830" 
d="M392 209q0 45 -30 71t-84 26h-68v-198h74q52 0 80 26.5t28 74.5zM67 0v682h143v-268h88q112 0 175.5 -55t63.5 -150q0 -96 -67 -152.5t-174 -56.5h-229zM619 0v682h143v-682h-143z" />
    <glyph glyph-name="afii10046" unicode="&#x42c;" horiz-adv-x="569" 
d="M393 209q0 45 -30 71t-84 26h-68v-198h74q52 0 80 26.5t28 74.5zM68 0v682h143v-268h88q112 0 175.5 -55t63.5 -150q0 -96 -67 -152.5t-174 -56.5h-229z" />
    <glyph glyph-name="afii10047" unicode="&#x42d;" horiz-adv-x="761" 
d="M374 704q154 0 254 -102.5t100 -258.5q0 -158 -97.5 -261.5t-254.5 -103.5q-128 0 -213 62.5t-122 166.5h160q19 -50 62.5 -81t108.5 -31q83 0 138 56t67 142h-313v118h310q-15 80 -69.5 128t-129.5 48q-61 0 -104.5 -28t-63.5 -72h-155q27 90 110.5 153.5t211.5 63.5z
" />
    <glyph glyph-name="afii10048" unicode="&#x42e;" horiz-adv-x="1045" 
d="M651 -22q-81 0 -147.5 26.5t-109 72t-67.5 99.5t-33 114h-83v-290h-143v682h143v-268h87q25 125 122 207.5t232 82.5q109 0 192.5 -51.5t125.5 -133.5t42 -178q0 -151 -103.5 -257t-257.5 -106zM435 341q0 -100 61.5 -167.5t153.5 -67.5t154 67.5t62 167.5t-59.5 167.5
t-155.5 67.5q-91 0 -153.5 -67.5t-62.5 -167.5z" />
    <glyph glyph-name="afii10049" unicode="&#x42f;" horiz-adv-x="606" 
d="M-5 0l211 288q-61 17 -100 66t-39 120q0 92 62.5 150t196.5 58h212v-682h-143v268h-45l-185 -268h-170zM214 468q0 -43 28 -69t76 -26h77v194h-76q-51 0 -78 -26t-27 -73z" />
    <glyph glyph-name="afii10065" unicode="&#x430;" horiz-adv-x="602" 
d="M538 479v-479h-130v60h-4q-57 -76 -156 -76q-37 0 -73.5 15t-70 44.5t-54 80.5t-20.5 116q0 112 66.5 182t161.5 70t146 -75h4v62h130zM167 239q0 -57 32 -97.5t91 -40.5q49 0 84.5 39t35.5 98q0 62 -34 100.5t-85 38.5q-59 0 -91.5 -41t-32.5 -97z" />
    <glyph glyph-name="afii10066" unicode="&#x431;" horiz-adv-x="575" 
d="M170 239q0 -59 34 -97.5t85 -38.5q54 0 87 38.5t33 97.5q0 58 -31.5 97t-87.5 39q-55 0 -87.5 -38t-32.5 -98zM357 569q-162 -20 -179 -124h3q49 46 126 46q106 0 172 -70.5t66 -180.5q0 -107 -72.5 -182t-183.5 -75q-115 0 -185 78t-70 215q0 99 20.5 172.5t60 120
t91.5 73.5t121 39q81 15 135 46l53 -110q-71 -38 -158 -48z" />
    <glyph glyph-name="afii10067" unicode="&#x432;" horiz-adv-x="510" 
d="M62 0v479h215q80 0 121.5 -30t41.5 -85q0 -81 -83 -103q59 -11 87 -43t28 -75q0 -65 -46 -104t-131 -39h-233zM265 208h-75v-121h83q70 0 70 61q0 27 -19.5 43.5t-58.5 16.5zM249 392h-59v-100h52q70 0 70 52q0 48 -63 48z" />
    <glyph glyph-name="afii10068" unicode="&#x433;" horiz-adv-x="429" 
d="M418 479v-115h-221v-364h-135v479h356z" />
    <glyph glyph-name="afii10069" unicode="&#x434;" horiz-adv-x="636" 
d="M15 -155v270h10q98 0 118 198l16 166h391v-364h71v-270h-132v155h-342v-155h-132zM415 115v249h-145l-7 -72q-8 -77 -20.5 -114t-35.5 -63h208z" />
    <glyph glyph-name="afii10070" unicode="&#x435;" horiz-adv-x="553" 
d="M276 495q114 0 179 -73t65 -179q0 -23 -2 -36h-356q0 -50 36.5 -86.5t87.5 -36.5q62 0 96 50h131q-26 -67 -82.5 -109t-145.5 -42q-109 0 -182 72.5t-73 187.5q0 107 66.5 179.5t179.5 72.5zM275 401q-47 0 -77.5 -30t-34.5 -72h224q-5 43 -35.5 72.5t-76.5 29.5z" />
    <glyph glyph-name="afii10072" unicode="&#x436;" horiz-adv-x="764" 
d="M318 0v231l-162 -231h-156l186 250l-180 229h151l161 -214v214h129v-214l161 214h150l-180 -229l186 -250h-156l-161 231v-231h-129z" />
    <glyph glyph-name="afii10073" unicode="&#x437;" horiz-adv-x="459" 
d="M20 136h123q3 -25 23.5 -40.5t54.5 -15.5q37 0 57.5 16.5t20.5 42.5q0 29 -21.5 45.5t-54.5 16.5h-44v90h50q29 0 45.5 14.5t16.5 40.5q0 22 -18 37t-49 15q-28 0 -47.5 -12.5t-23.5 -35.5h-120q8 67 59.5 106t135.5 39q88 0 137.5 -37t49.5 -96q0 -92 -90 -114
q45 -9 73 -39t28 -73q0 -68 -51.5 -110.5t-158.5 -42.5q-83 0 -134.5 40t-61.5 113z" />
    <glyph glyph-name="afii10074" unicode="&#x438;" horiz-adv-x="586" 
d="M62 0v479h129v-160q0 -89 -3 -148h2q17 32 65 100l150 208h119v-479h-129v159q0 91 3 149h-2q-24 -44 -65 -100l-149 -208h-120z" />
    <glyph glyph-name="afii10075" unicode="&#x439;" horiz-adv-x="586" 
d="M62 0v479h129v-160q0 -89 -3 -148h2q17 32 65 100l150 208h119v-479h-129v159q0 91 3 149h-2q-24 -44 -65 -100l-149 -208h-120zM374 726h90q-4 -73 -51 -116t-116 -43q-74 0 -118.5 42.5t-48.5 116.5h89q3 -30 23.5 -47.5t54.5 -17.5q33 0 54 18t23 47z" />
    <glyph glyph-name="afii10076" unicode="&#x43a;" horiz-adv-x="547" 
d="M62 0v479h135v-208l184 208h156l-205 -229l210 -250h-161l-184 225v-225h-135z" />
    <glyph glyph-name="afii10077" unicode="&#x43b;" horiz-adv-x="582" 
d="M94 166l29 313h397v-479h-135v364h-149l-21 -219q-7 -82 -41.5 -117t-108.5 -35q-26 0 -52 7v110q18 -4 32 -4q44 0 49 60z" />
    <glyph glyph-name="afii10078" unicode="&#x43c;" horiz-adv-x="696" 
d="M586 479l86 -479h-125l-34 206q-12 72 -14 105h-3q-11 -57 -27 -105l-69 -206h-103l-70 209q-21 60 -29 102h-3q-3 -35 -14 -101l-34 -210h-124l89 479h136l76 -225q12 -36 24 -90h3q11 50 25 93l74 222h136z" />
    <glyph glyph-name="afii10079" unicode="&#x43d;" horiz-adv-x="586" 
d="M524 479v-479h-135v194h-192v-194h-135v479h135v-172h192v172h135z" />
    <glyph glyph-name="afii10080" unicode="&#x43e;" horiz-adv-x="571" 
d="M30 240q0 111 73 183t183 72q112 0 184 -72.5t72 -182.5q0 -107 -72.5 -182t-183.5 -75q-110 0 -183 74t-73 183zM166 239q0 -59 34.5 -97.5t85.5 -38.5q54 0 86.5 38.5t32.5 97.5q0 58 -32 97t-87 39t-87.5 -38t-32.5 -98z" />
    <glyph glyph-name="afii10081" unicode="&#x43f;" horiz-adv-x="586" 
d="M524 479v-479h-135v364h-192v-364h-135v479h462z" />
    <glyph glyph-name="afii10082" unicode="&#x440;" horiz-adv-x="602" 
d="M63 -235v714h130v-57h4q58 70 154 70q85 0 152.5 -68t67.5 -187q0 -112 -67 -182.5t-161 -70.5q-91 0 -144 69h-4v-288h-132zM434 237q0 58 -32 98t-92 40q-50 0 -84.5 -38.5t-34.5 -99.5q0 -60 35 -99t85 -39q58 0 90.5 41.5t32.5 96.5z" />
    <glyph glyph-name="afii10083" unicode="&#x441;" horiz-adv-x="549" 
d="M285 495q95 0 154 -53t72 -122h-134q-20 61 -93 61q-54 0 -85.5 -38.5t-31.5 -102.5q0 -61 32.5 -101.5t88.5 -40.5q70 0 95 66h137q-22 -80 -80.5 -130.5t-153.5 -50.5q-109 0 -182.5 71.5t-73.5 186.5q0 108 70 181t185 73z" />
    <glyph glyph-name="afii10084" unicode="&#x442;" horiz-adv-x="410" 
d="M398 479v-115h-125v-364h-135v364h-127v115h387z" />
    <glyph glyph-name="afii10085" unicode="&#x443;" horiz-adv-x="467" 
d="M474 479l-262 -714h-128l88 239l-174 475h140l69 -208q25 -80 32 -118h4q9 49 31 118l67 208h133z" />
    <glyph glyph-name="afii10086" unicode="&#x444;" horiz-adv-x="844" 
d="M353 429h4v291h132v-290h3q47 62 127 62q76 0 134.5 -65t58.5 -190q0 -114 -56 -183.5t-141 -69.5q-80 0 -123 63h-3v-282h-132v281h-4q-52 -62 -126 -62q-87 0 -141 70t-54 186q0 113 57 182.5t146 69.5q38 0 69.5 -18.5t48.5 -44.5zM165 239q0 -64 26.5 -104t73.5 -40
q40 0 67.5 39t27.5 104q0 67 -26.5 105t-69.5 38q-46 0 -72.5 -40.5t-26.5 -101.5zM679 237q0 61 -24.5 102.5t-73.5 41.5q-42 0 -69 -38t-27 -106q0 -63 27 -102.5t70 -39.5q45 0 71 40.5t26 101.5z" />
    <glyph glyph-name="afii10087" unicode="&#x445;" horiz-adv-x="505" 
d="M5 0l174 242l-164 237h151l61 -98q2 -3 26 -51h3q15 31 24 48l58 101h150l-164 -235l171 -244h-156l-63 103q-15 27 -25 52h-4q-10 -22 -27 -53l-63 -102h-152z" />
    <glyph glyph-name="afii10088" unicode="&#x446;" horiz-adv-x="610" 
d="M524 115h71v-270h-135v155h-398v479h135v-364h192v364h135v-364z" />
    <glyph glyph-name="afii10089" unicode="&#x447;" horiz-adv-x="567" 
d="M505 479v-479h-136v221h-3q-45 -75 -136 -75q-81 0 -128 55.5t-47 161.5v116h135v-107q0 -52 22.5 -79t62.5 -27q42 0 68 30.5t26 87.5v95h136z" />
    <glyph glyph-name="afii10090" unicode="&#x448;" horiz-adv-x="862" 
d="M800 0h-738v479h135v-364h167v364h135v-364h166v364h135v-479z" />
    <glyph glyph-name="afii10091" unicode="&#x449;" horiz-adv-x="886" 
d="M736 0h-674v479h135v-364h167v364h135v-364h166v364h135v-364h71v-270h-135v155z" />
    <glyph glyph-name="afii10092" unicode="&#x44a;" horiz-adv-x="561" 
d="M331 209h-54v-111h54q33 0 49 16t16 40q0 55 -65 55zM277 479v-172h71q88 0 135.5 -39t47.5 -114q0 -71 -47 -112.5t-130 -41.5h-213v364h-130v115h266z" />
    <glyph glyph-name="afii10093" unicode="&#x44b;" horiz-adv-x="728" 
d="M252 209h-55v-111h55q33 0 49 16t16 40q0 55 -65 55zM197 307h72q88 0 135.5 -39t47.5 -114q0 -71 -47.5 -112.5t-130.5 -41.5h-212v479h135v-172zM531 0v479h135v-479h-135z" />
    <glyph glyph-name="afii10094" unicode="&#x44c;" horiz-adv-x="482" 
d="M252 209h-55v-111h55q33 0 49 16t16 40q0 55 -65 55zM197 307h72q88 0 135.5 -39t47.5 -114q0 -71 -47.5 -112.5t-130.5 -41.5h-212v479h135v-172z" />
    <glyph glyph-name="afii10095" unicode="&#x44d;" horiz-adv-x="543" 
d="M262 495q112 0 181.5 -72.5t69.5 -184.5q0 -110 -71 -182.5t-186 -72.5q-95 0 -155 47.5t-76 117.5h135q22 -64 94 -64q49 0 81 31.5t38 85.5h-182v91h180q-9 49 -40 75.5t-74 26.5q-72 0 -94 -53h-137q19 66 78.5 110t157.5 44z" />
    <glyph glyph-name="afii10096" unicode="&#x44e;" horiz-adv-x="801" 
d="M197 479v-175h71q20 85 87.5 138t160.5 53q112 0 184 -72.5t72 -182.5q0 -107 -72.5 -182t-183.5 -75q-98 0 -168 60.5t-84 154.5h-67v-198h-135v479h135zM396 239q0 -59 34.5 -97.5t85.5 -38.5q54 0 86.5 38.5t32.5 97.5q0 58 -32 97t-87 39t-87.5 -38t-32.5 -98z" />
    <glyph glyph-name="afii10097" unicode="&#x44f;" horiz-adv-x="498" 
d="M300 176h-28l-107 -176h-150l131 192q-43 13 -69.5 47.5t-26.5 85.5q0 71 48 112.5t137 41.5h201v-479h-136v176zM252 265h48v118h-49q-33 0 -49.5 -16.5t-16.5 -42.5q0 -59 67 -59z" />
    <glyph glyph-name="uni0450" unicode="&#x450;" horiz-adv-x="553" 
d="M278 495q114 0 179 -73t65 -179q0 -23 -2 -36h-356q0 -50 36.5 -86.5t87.5 -36.5q62 0 96 50h131q-26 -67 -82.5 -109t-145.5 -42q-109 0 -182 72.5t-73 187.5q0 107 66.5 179.5t179.5 72.5zM277 401q-47 0 -77.5 -30t-34.5 -72h224q-5 43 -35.5 72.5t-76.5 29.5z
M142 677l66 87l159 -137l-54 -72z" />
    <glyph glyph-name="afii10071" unicode="&#x451;" horiz-adv-x="553" 
d="M278 495q114 0 179 -73t65 -179q0 -23 -2 -36h-356q0 -50 36.5 -86.5t87.5 -36.5q62 0 96 50h131q-26 -67 -82.5 -109t-145.5 -42q-109 0 -182 72.5t-73 187.5q0 107 66.5 179.5t179.5 72.5zM277 401q-47 0 -77.5 -30t-34.5 -72h224q-5 43 -35.5 72.5t-76.5 29.5z
M127 591v112h114v-112h-114zM311 591v112h114v-112h-114z" />
    <glyph glyph-name="afii10099" unicode="&#x452;" horiz-adv-x="579" 
d="M389 -42v309q0 53 -23.5 80.5t-66.5 27.5q-46 0 -74 -31.5t-28 -90.5v-253h-135v557h-62v90h62v73h135v-73h145v-90h-145v-138h4q47 75 141 75q83 0 132.5 -55.5t49.5 -163.5v-309q0 -217 -179 -217q-49 0 -89 14v107q27 -9 62 -9q38 0 54.5 23.5t16.5 73.5z" />
    <glyph glyph-name="afii10100" unicode="&#x453;" horiz-adv-x="429" 
d="M418 479v-115h-221v-364h-135v479h356zM145 627l159 137l66 -87l-170 -122z" />
    <glyph glyph-name="afii10101" unicode="&#x454;" horiz-adv-x="550" 
d="M285 495q96 0 156.5 -46t73.5 -108h-135q-22 53 -93 53q-45 0 -75.5 -26.5t-39.5 -75.5h176v-91h-178q7 -55 38.5 -86t79.5 -31q71 0 95 64h137q-22 -74 -80.5 -119.5t-153.5 -45.5q-109 0 -182.5 71.5t-73.5 186.5q0 108 70 181t185 73z" />
    <glyph glyph-name="afii10102" unicode="&#x455;" horiz-adv-x="441" 
d="M395 350h-119q-2 25 -17 39.5t-38 14.5t-36 -12.5t-13 -29.5q0 -21 19 -36.5t77 -35.5q138 -45 138 -153q0 -68 -49.5 -111t-135.5 -43q-88 0 -134.5 42t-50.5 115h121q5 -65 67 -65q25 0 40 14.5t15 36.5q0 25 -21 42t-74 35q-137 44 -137 149q0 64 48 103.5t125 39.5
t122 -39.5t53 -105.5z" />
    <glyph glyph-name="afii10103" unicode="&#x456;" horiz-adv-x="259" 
d="M62 0v479h135v-479h-135zM59 579v129h142v-129h-142z" />
    <glyph glyph-name="afii10104" unicode="&#x457;" horiz-adv-x="259" 
d="M64 0v479h135v-479h-135zM-17 591v112h114v-112h-114zM167 591v112h114v-112h-114z" />
    <glyph glyph-name="afii10105" unicode="&#x458;" horiz-adv-x="259" 
d="M197 479v-513q0 -217 -184 -217q-54 0 -94 14v114q30 -10 67 -10q38 0 57 22t19 75v515h135zM59 579v129h142v-129h-142z" />
    <glyph glyph-name="afii10106" unicode="&#x459;" horiz-adv-x="775" 
d="M123 479h368v-172h71q88 0 135.5 -39t47.5 -114q0 -71 -47 -112.5t-130 -41.5h-213v364h-119l-21 -218q-7 -83 -41.5 -118t-108.5 -35q-26 0 -52 7v110q14 -4 32 -4q44 0 49 60zM545 209h-54v-111h54q33 0 49 16t16 40q0 55 -65 55z" />
    <glyph glyph-name="afii10107" unicode="&#x45a;" horiz-adv-x="770" 
d="M486 307h72q88 0 135.5 -39t47.5 -114q0 -71 -47.5 -112.5t-130.5 -41.5h-212v194h-154v-194h-135v479h135v-172h154v172h135v-172zM540 209h-54v-111h54q33 0 49 15.5t16 40.5q0 55 -65 55z" />
    <glyph glyph-name="afii10108" unicode="&#x45b;" horiz-adv-x="579" 
d="M342 557h-145v-138h4q47 75 141 75q83 0 132.5 -55.5t49.5 -163.5v-275h-135v267q0 53 -23.5 80.5t-66.5 27.5q-46 0 -74 -31.5t-28 -90.5v-253h-135v557h-62v90h62v73h135v-73h145v-90z" />
    <glyph glyph-name="afii10109" unicode="&#x45c;" horiz-adv-x="547" 
d="M62 0v479h135v-208l184 208h156l-205 -229l210 -250h-161l-184 225v-225h-135zM184 627l159 137l66 -87l-170 -122z" />
    <glyph glyph-name="uni045D" unicode="&#x45d;" horiz-adv-x="586" 
d="M62 0v479h129v-160q0 -89 -3 -148h2q17 32 65 100l150 208h119v-479h-129v159q0 91 3 149h-2q-24 -44 -65 -100l-149 -208h-120zM175 677l66 87l159 -137l-54 -72z" />
    <glyph glyph-name="afii10110" unicode="&#x45e;" horiz-adv-x="467" 
d="M474 479l-262 -714h-128l88 239l-174 475h140l69 -208q25 -80 32 -118h4q9 49 31 118l67 208h133zM317 726h90q-4 -73 -51 -116t-116 -43q-74 0 -118.5 42.5t-48.5 116.5h89q3 -30 23.5 -47.5t54.5 -17.5q33 0 54 18t23 47z" />
    <glyph glyph-name="afii10193" unicode="&#x45f;" horiz-adv-x="586" 
d="M524 0h-163v-155h-135v155h-164v479h135v-364h192v364h135v-479z" />
    <glyph glyph-name="afii10050" unicode="&#x490;" horiz-adv-x="494" 
d="M347 682v158h139v-282h-280v-558h-138v682h279z" />
    <glyph glyph-name="afii10098" unicode="&#x491;" horiz-adv-x="434" 
d="M418 614v-250h-221v-364h-135v479h221v135h135z" />
    <glyph glyph-name="Wgrave" unicode="&#x1e80;" horiz-adv-x="871" 
d="M544 0l-82 359q-16 76 -22 145h-4q-11 -92 -23 -142l-78 -362h-152l-175 682h142l85 -371q11 -46 25 -129h4q10 62 27 138l81 362h135l87 -369q9 -35 25 -131h4q8 60 22 130l79 370h139l-165 -682h-154zM309 810l44 100l189 -95l-37 -83z" />
    <glyph glyph-name="wgrave" unicode="&#x1e81;" horiz-adv-x="725" 
d="M429 0l-48 210q-18 88 -19 104h-4q-6 -50 -23 -124l-44 -190h-156l-121 479h133l56 -241q11 -50 18 -95h4q10 65 19 100l59 236h122l60 -240q8 -35 16 -96h3q7 54 16 95l58 241h132l-125 -479h-156zM233 677l66 87l159 -137l-54 -72z" />
    <glyph glyph-name="Wacute" unicode="&#x1e82;" horiz-adv-x="871" 
d="M544 0l-82 359q-16 76 -22 145h-4q-11 -92 -23 -142l-78 -362h-152l-175 682h142l85 -371q11 -46 25 -129h4q10 62 27 138l81 362h135l87 -369q9 -35 25 -131h4q8 60 22 130l79 370h139l-165 -682h-154zM520 910l45 -100l-196 -78l-37 83z" />
    <glyph glyph-name="wacute" unicode="&#x1e83;" horiz-adv-x="725" 
d="M429 0l-48 210q-18 88 -19 104h-4q-6 -50 -23 -124l-44 -190h-156l-121 479h133l56 -241q11 -50 18 -95h4q10 65 19 100l59 236h122l60 -240q8 -35 16 -96h3q7 54 16 95l58 241h132l-125 -479h-156zM265 627l159 137l66 -87l-170 -122z" />
    <glyph glyph-name="Wdieresis" unicode="&#x1e84;" horiz-adv-x="871" 
d="M544 0l-82 359q-16 76 -22 145h-4q-11 -92 -23 -142l-78 -362h-152l-175 682h142l85 -371q11 -46 25 -129h4q10 62 27 138l81 362h135l87 -369q9 -35 25 -131h4q8 60 22 130l79 370h139l-165 -682h-154zM291 771v112h114v-112h-114zM475 771v112h114v-112h-114z" />
    <glyph glyph-name="wdieresis" unicode="&#x1e85;" horiz-adv-x="725" 
d="M429 0l-48 210q-18 88 -19 104h-4q-6 -50 -23 -124l-44 -190h-156l-121 479h133l56 -241q11 -50 18 -95h4q10 65 19 100l59 236h122l60 -240q8 -35 16 -96h3q7 54 16 95l58 241h132l-125 -479h-156zM215 591v112h114v-112h-114zM399 591v112h114v-112h-114z" />
    <glyph glyph-name="Ygrave" unicode="&#x1ef2;" horiz-adv-x="598" 
d="M228 0v272l-221 410h155l105 -203q25 -49 36 -85h2q16 40 37 84l99 204h150l-220 -409v-273h-143zM144 810l44 100l189 -95l-37 -83z" />
    <glyph glyph-name="ygrave" unicode="&#x1ef3;" horiz-adv-x="467" 
d="M474 479l-262 -714h-128l88 239l-174 475h140l69 -208q25 -80 32 -118h4q9 49 31 118l67 208h133zM105 677l66 87l159 -137l-54 -72z" />
    <glyph glyph-name="uni2010" unicode="&#x2010;" horiz-adv-x="465" 
d="M397 211h-322v105h322v-105z" />
    <glyph glyph-name="endash" unicode="&#x2013;" horiz-adv-x="554" 
d="M479 211h-404v105h404v-105z" />
    <glyph glyph-name="emdash" unicode="&#x2014;" horiz-adv-x="1104" 
d="M1029 211h-954v105h954v-105z" />
    <glyph glyph-name="underscoredbl" unicode="&#x2017;" horiz-adv-x="550" 
d="M0 -235v67h550v-67h-550zM0 -123v68h550v-68h-550z" />
    <glyph glyph-name="quoteleft" unicode="&#x2018;" horiz-adv-x="276" 
d="M214 596v-142h-152v68q0 110 57 198h75q-34 -52 -41 -124h61z" />
    <glyph glyph-name="quoteright" unicode="&#x2019;" horiz-adv-x="276" 
d="M61 578v142h153v-68q0 -110 -57 -198h-75q34 52 41 124h-62z" />
    <glyph glyph-name="quotesinglbase" unicode="&#x201a;" horiz-adv-x="276" 
d="M61 0v142h153v-68q0 -110 -57 -198h-75q34 52 41 124h-62z" />
    <glyph glyph-name="quotereversed" unicode="&#x201b;" horiz-adv-x="276" 
d="M214 720v-142h-61q7 -72 41 -124h-75q-57 88 -57 198v68h152z" />
    <glyph glyph-name="quotedblleft" unicode="&#x201c;" horiz-adv-x="484" 
d="M214 596v-142h-152v68q0 110 57 198h75q-34 -52 -41 -124h61zM423 596v-142h-153v68q0 107 57 198h75q-35 -54 -41 -124h62z" />
    <glyph glyph-name="quotedblright" unicode="&#x201d;" horiz-adv-x="484" 
d="M270 578v142h152v-68q0 -109 -56 -198h-75q35 55 41 124h-62zM61 578v142h153v-68q0 -110 -57 -198h-75q34 52 41 124h-62z" />
    <glyph glyph-name="quotedblbase" unicode="&#x201e;" horiz-adv-x="484" 
d="M270 0v142h152v-68q0 -109 -56 -198h-75q35 54 41 124h-62zM61 0v142h153v-68q0 -110 -57 -198h-75q34 52 41 124h-62z" />
    <glyph glyph-name="dagger" unicode="&#x2020;" horiz-adv-x="466" 
d="M422 412l-142 18l17 -96l-17 -334h-95l-17 334l17 96l-141 -18v129l141 -17l-17 158h129l-17 -158l142 17v-129z" />
    <glyph glyph-name="daggerdbl" unicode="&#x2021;" horiz-adv-x="466" 
d="M291 138l-14 -138h-89l-14 138l14 75l-144 -14v117l144 -14l-14 75l14 75l-144 -15v117l144 -14l-14 142h117l-14 -142l145 14v-117l-145 15l14 -75l-14 -75l145 14v-117l-145 14z" />
    <glyph glyph-name="bullet" unicode="&#x2022;" horiz-adv-x="429" 
d="M65 304q0 62 43.5 106t104.5 44q62 0 106.5 -44.5t44.5 -105.5q0 -62 -44.5 -106t-106.5 -44q-61 0 -104.5 44t-43.5 106z" />
    <glyph glyph-name="ellipsis" unicode="&#x2026;" horiz-adv-x="1004" 
d="M88 0v152h162v-152h-162zM421 0v152h162v-152h-162zM754 0v152h162v-152h-162z" />
    <glyph glyph-name="perthousand" unicode="&#x2030;" horiz-adv-x="1188" 
d="M593 682h99l-466 -682h-99zM37 513q0 93 50.5 141.5t116.5 48.5q63 0 112 -46.5t49 -141.5q0 -54 -16 -94.5t-42 -61.5t-52.5 -30.5t-53.5 -9.5q-64 0 -114 47.5t-50 146.5zM266 512q0 51 -17 79t-48 28q-29 0 -47.5 -26.5t-18.5 -79.5q0 -109 67 -109q28 0 46 27t18 81z
M453 172q0 93 50.5 141.5t116.5 48.5q63 0 112 -46.5t49 -141.5q0 -55 -16 -95t-42.5 -60.5t-52.5 -30t-53 -9.5q-65 0 -114.5 47t-49.5 146zM682 171q0 106 -66 106q-28 0 -46.5 -26t-18.5 -79q0 -109 66 -109q28 0 46.5 27t18.5 81zM823 172q0 92 51 141t116 49
q64 0 112.5 -46.5t48.5 -141.5q0 -55 -16 -95t-42.5 -60.5t-52.5 -30t-53 -9.5q-65 0 -114.5 47t-49.5 146zM1053 171q0 106 -66 106q-29 0 -47.5 -26t-18.5 -79q0 -109 67 -109q28 0 46.5 27t18.5 81z" />
    <glyph glyph-name="minute" unicode="&#x2032;" horiz-adv-x="242" 
d="M115 698l85 -28l-92 -253l-66 19z" />
    <glyph glyph-name="second" unicode="&#x2033;" horiz-adv-x="441" 
d="M115 698l85 -28l-92 -253l-66 19zM314 698l85 -28l-92 -253l-66 19z" />
    <glyph glyph-name="guilsinglleft" unicode="&#x2039;" horiz-adv-x="300" 
d="M46 248l130 210l82 -44l-86 -166l86 -166l-82 -45z" />
    <glyph glyph-name="guilsinglright" unicode="&#x203a;" horiz-adv-x="300" 
d="M255 248l-130 -211l-83 45l86 166l-86 165l83 45z" />
    <glyph glyph-name="exclamdbl" unicode="&#x203c;" horiz-adv-x="552" 
d="M67 0v129h142v-129h-142zM64 682h148l-14 -471h-120zM343 0v129h142v-129h-142zM340 682h148l-14 -471h-120z" />
    <glyph glyph-name="uni203E" unicode="&#x203e;" horiz-adv-x="550" 
d="M0 749v96h550v-96h-550z" />
    <glyph glyph-name="fraction" unicode="&#x2044;" horiz-adv-x="194" 
d="M282 682h97l-468 -682h-97z" />
    <glyph glyph-name="zero.superior" unicode="&#x2070;" 
d="M26 644q0 116 53.5 172t128.5 56q71 0 121.5 -54t50.5 -173q0 -67 -17.5 -116t-45.5 -73.5t-56 -35t-58 -10.5q-33 0 -62.5 11.5t-56.5 36.5t-42.5 73t-15.5 113zM272 643q0 142 -69 142q-28 0 -48 -33t-20 -106q0 -147 69 -147q29 0 48.5 34t19.5 110z" />
    <glyph glyph-name="four.superior" unicode="&#x2074;" 
d="M380 493h-62v-68h-102v68h-197v75l197 291h102v-289h62v-77zM179 684l-78 -114h115v126q0 12 2 48h-3q-11 -24 -36 -60z" />
    <glyph glyph-name="five.superior" unicode="&#x2075;" 
d="M180 770l-7 -60q10 2 28 2q73 0 115 -40.5t42 -107.5q0 -63 -43.5 -108t-116.5 -45q-75 0 -115 38t-43 95h106q3 -43 50 -43q22 0 36.5 16t14.5 43q0 65 -80 65q-56 0 -101 -9l24 243h234v-89h-144z" />
    <glyph glyph-name="six.superior" unicode="&#x2076;" 
d="M28 569q0 76 65 160l105 130h110l-104 -133q5 1 26 1q66 -3 107 -47t41 -111q0 -66 -48 -112t-128 -46t-127 44.5t-47 113.5zM132 569q0 -32 20.5 -52t50.5 -20t50.5 20t20.5 52q0 33 -20 54t-51 21t-51 -21t-20 -54z" />
    <glyph glyph-name="seven.superior" unicode="&#x2077;" 
d="M354 859v-79l-163 -355h-117l169 345h-193v89h304z" />
    <glyph glyph-name="eight.superior" unicode="&#x2078;" 
d="M147 742q0 -25 16.5 -40.5t39.5 -15.5q25 0 40.5 16t15.5 40t-16 39t-40 15t-40 -15t-16 -39zM139 554q0 -29 18 -47t47 -18t47 17.5t18 47.5q0 29 -18 47.5t-47 18.5q-28 0 -46.5 -18t-18.5 -48zM367 547q0 -57 -42 -96.5t-121 -39.5q-81 0 -123 37.5t-42 95.5
q0 85 77 115v1q-64 27 -64 91q0 53 40.5 87t111.5 34q69 0 109 -33t40 -81q0 -35 -17.5 -61t-47.5 -37v-1q79 -28 79 -112z" />
    <glyph glyph-name="nine.superior" unicode="&#x2079;" 
d="M378 714q0 -74 -66 -159l-104 -130h-110l105 133q-6 -2 -26 -2q-69 4 -109 47t-40 111q0 67 49 112.5t127 45.5q79 0 126.5 -43.5t47.5 -114.5zM275 714q0 33 -20.5 53t-50.5 20q-32 0 -52 -19.5t-20 -53.5q0 -33 20 -53t52 -20q31 0 51 19t20 54z" />
    <glyph glyph-name="nsuperior" unicode="&#x207f;" horiz-adv-x="448" 
d="M55 328v354h104v-44h3q34 56 102 56q61 0 97 -42t36 -121v-203h-105v191q0 38 -16 58t-43 20q-33 0 -52.5 -22.5t-19.5 -64.5v-182h-106z" />
    <glyph glyph-name="zero.inferior" unicode="&#x2080;" 
d="M26 44q0 116 53.5 172t128.5 56q71 0 121.5 -54t50.5 -173q0 -67 -17.5 -116t-45.5 -73.5t-56 -35t-58 -10.5q-33 0 -62.5 11.5t-56.5 36.5t-42.5 73t-15.5 113zM272 43q0 142 -69 142q-28 0 -48 -33t-20 -106q0 -147 69 -147q29 0 48.5 34t19.5 110z" />
    <glyph glyph-name="one.inferior" unicode="&#x2081;" 
d="M158 -175v346h-68v88h174v-434h-106z" />
    <glyph glyph-name="two.inferior" unicode="&#x2082;" 
d="M54 -175v69l135 144q20 22 30.5 35t20 32t9.5 35q0 20 -13 32.5t-34 12.5q-48 0 -50 -58h-103q1 63 40.5 104t117.5 41q67 0 109.5 -37t42.5 -92q0 -39 -21.5 -73t-77.5 -93l-61 -63h166v-89h-311z" />
    <glyph glyph-name="three.inferior" unicode="&#x2083;" 
d="M149 140h-102q2 60 42.5 96t110.5 36q72 0 112 -31.5t40 -82.5q0 -35 -20.5 -60.5t-52.5 -32.5v-3q41 -10 64 -39.5t23 -71.5q0 -59 -44 -99.5t-124 -40.5q-78 0 -119 37.5t-45 105.5h102q5 -61 63 -61q27 0 43.5 18t16.5 48q0 25 -18 41.5t-53 16.5h-31v79h30
q28 0 42.5 13.5t14.5 35.5q0 18 -12.5 31.5t-34.5 13.5q-23 0 -35 -14.5t-13 -35.5z" />
    <glyph glyph-name="four.inferior" unicode="&#x2084;" 
d="M380 -107h-62v-68h-102v68h-197v75l197 291h102v-289h62v-77zM179 83l-78 -113h115v125q0 13 2 49h-3q-9 -20 -36 -61z" />
    <glyph glyph-name="five.inferior" unicode="&#x2085;" 
d="M180 170l-7 -60q10 2 28 2q73 0 115 -40.5t42 -107.5q0 -63 -43.5 -108t-116.5 -45q-75 0 -115 38t-43 95h106q3 -43 50 -43q22 0 36.5 16t14.5 43q0 65 -80 65q-56 0 -101 -9l24 243h234v-89h-144z" />
    <glyph glyph-name="six.inferior" unicode="&#x2086;" 
d="M28 -31q0 76 65 160l105 130h110l-104 -133q5 1 26 1q66 -3 107 -47t41 -111q0 -66 -48 -112t-128 -46t-127 44.5t-47 113.5zM132 -31q0 -32 20.5 -52t50.5 -20t50.5 20t20.5 52q0 33 -20 54t-51 21t-51 -21t-20 -54z" />
    <glyph glyph-name="seven.inferior" unicode="&#x2087;" 
d="M354 259v-79l-163 -355h-117l169 345h-193v89h304z" />
    <glyph glyph-name="eight.inferior" unicode="&#x2088;" 
d="M147 142q0 -25 16.5 -40.5t39.5 -15.5q25 0 40.5 16t15.5 40t-16 39t-40 15t-40 -15t-16 -39zM139 -46q0 -29 18 -47t47 -18t47 17.5t18 47.5q0 29 -18 47.5t-47 18.5q-28 0 -46.5 -18t-18.5 -48zM367 -53q0 -57 -42 -96.5t-121 -39.5q-81 0 -123 37.5t-42 95.5
q0 85 77 115v1q-64 27 -64 91q0 53 40.5 87t111.5 34q69 0 109 -33t40 -81q0 -35 -17.5 -61t-47.5 -37v-1q79 -28 79 -112z" />
    <glyph glyph-name="nine.inferior" unicode="&#x2089;" 
d="M378 114q0 -74 -66 -159l-104 -130h-110l105 133q-6 -2 -26 -2q-69 4 -109 47t-40 111q0 67 49 112.5t127 45.5q79 0 126.5 -43.5t47.5 -114.5zM275 114q0 33 -20.5 53t-50.5 20q-32 0 -52 -19.5t-20 -53.5q0 -33 20 -53t52 -20q31 0 51 19t20 54z" />
    <glyph glyph-name="franc" unicode="&#x20a3;" horiz-adv-x="573" 
d="M372 104h-127v-104h-137v104h-81v101h81v477h408v-124h-271v-147h261v-118h-261v-88h127v-101z" />
    <glyph glyph-name="lira" unicode="&#x20a4;" horiz-adv-x="573" 
d="M379 244h-109q1 -4 1 -13q0 -59 -39 -93q22 0 75 -17q58 -20 75 -20q45 0 47 64h129q-2 -93 -45 -140t-121 -47q-45 0 -129 28q-76 24 -104 24q-57 0 -119 -37v118q50 13 75.5 45t25.5 68q0 3 -0.5 9.5t-0.5 10.5h-104v81h86l-15 57h-71v82h53q-3 21 -3 48q0 81 55 137
t160 56q97 0 155.5 -52t62.5 -135h-136q-1 32 -23.5 52t-53.5 20q-41 0 -62 -25t-21 -67q0 -24 1 -34h155v-82h-138l14 -57h124v-81z" />
    <glyph glyph-name="peseta" unicode="&#x20a7;" horiz-adv-x="1285" 
d="M68 0v682h204q110 0 181 -51.5t77 -151.5h61v153h135v-153h114v-114h-114v-186q0 -41 14 -56t47 -15q31 0 57 8v-110q-44 -13 -93 -13q-86 0 -123 44.5t-37 127.5v200h-81q-51 -124 -243 -124h-56v-241h-143zM1243 350h-120q-2 25 -17 39.5t-38 14.5t-36 -12.5t-13 -29.5
q0 -22 19 -37t78 -35q137 -45 137 -153q0 -68 -49 -111t-135 -43q-89 0 -135 42t-51 115h121q7 -65 67 -65q25 0 40 14.5t15 36.5q0 25 -20.5 42t-73.5 35q-137 44 -137 149q0 64 47.5 103.5t125.5 39.5q76 0 121.5 -40t53.5 -105zM386 461q0 47 -28.5 76.5t-88.5 29.5h-58
v-211h56q119 0 119 105z" />
    <glyph glyph-name="Euro" unicode="&#x20ac;" horiz-adv-x="573" 
d="M553 114v-118q-59 -18 -121 -18q-132 0 -211.5 62.5t-109.5 173.5h-94l27 96h52q0 5 -0.5 16t-0.5 16q0 16 2 42h-68l27 96h59q34 104 114 164t196 60q72 0 129 -19l-32 -113q-49 15 -95 15q-119 0 -166 -107h237l-27 -96h-234q-2 -26 -2 -41q0 -23 1 -33h217l-27 -96
h-169q48 -118 184 -118q54 0 112 18z" />
    <glyph glyph-name="afii61289" unicode="&#x2113;" horiz-adv-x="573" 
d="M430 120l48 -70q-73 -67 -154 -67q-76 0 -112 46t-36 123v50l-51 -46l-45 51l96 91v194q0 102 42.5 157t115.5 55q61 0 90.5 -39.5t29.5 -89.5q0 -65 -30 -122t-89 -124q-12 -12 -33 -36v-117q0 -92 59 -92q33 0 69 36zM378 562q0 45 -32 45q-44 0 -44 -89v-122
q0 1 6.5 7.5t8.5 10.5q61 77 61 148z" />
    <glyph glyph-name="afii61352" unicode="&#x2116;" horiz-adv-x="1099" 
d="M191 468h-4q4 -128 4 -129v-339h-123v682h123l190 -293q56 -86 106 -180h3q-3 102 -3 123v350h123v-682h-123l-174 267q-67 105 -122 201zM674 336q0 86 56.5 138.5t139.5 52.5q85 0 140 -54t55 -137q0 -82 -55.5 -137t-139.5 -55t-140 53t-56 139zM777 335
q0 -41 26.5 -68.5t66.5 -27.5q41 0 67 27t26 69q0 41 -26.5 69t-66.5 28q-41 0 -67 -25t-26 -72zM1046 0h-357v90h357v-90z" />
    <glyph glyph-name="trademark" unicode="&#x2122;" horiz-adv-x="619" 
d="M536 682l17 -231h-72l-7 105q-1 22 -1 39h-3q-1 -3 -4 -16.5t-6 -22.5l-35 -105h-51l-30 98q-8 23 -13 46h-2q0 -19 -1 -42l-7 -102h-74l19 231h98l27 -84q9 -26 10 -35h1q9 30 11 36l25 83h98zM41 617v65h193v-65h-61v-166h-72v166h-60z" />
    <glyph glyph-name="Omega" unicode="&#x2126;" horiz-adv-x="761" 
d="M722 388q0 -85 -43 -153.5t-119 -98.5v-13h164v-123h-296v180q68 18 108 71t40 128q0 90 -53.5 146t-142.5 56q-86 0 -141.5 -56t-55.5 -146q0 -75 40 -128t108 -71v-180h-294v123h162v13q-73 29 -117 96t-44 156q0 132 95 224t248 92q157 0 249 -90.5t92 -225.5z" />
    <glyph glyph-name="estimated" unicode="&#x212e;" horiz-adv-x="664" 
d="M628 298h-460v-205q69 -67 163 -67q138 0 221 136q4 -3 37 -23q-50 -75 -109.5 -113t-148.5 -38q-130 0 -210 89.5t-80 220.5q0 133 79.5 222t212.5 89q134 0 212.5 -88.5t82.5 -222.5zM497 336v167q-70 68 -165 68q-98 0 -164 -66v-169h329z" />
    <glyph glyph-name="onethird" unicode="&#x2153;" horiz-adv-x="982" 
d="M158 250v346h-68v88h174v-434h-106zM664 682h97l-468 -682h-97zM725 315h-102q2 60 42.5 96t110.5 36q72 0 112 -31.5t40 -82.5q0 -35 -20.5 -60.5t-52.5 -32.5v-3q41 -10 64 -39.5t23 -71.5q0 -59 -44 -99.5t-124 -40.5q-78 0 -119 37.5t-45 105.5h102q5 -61 63 -61
q27 0 43.5 18t16.5 48q0 25 -18 41.5t-53 16.5h-31v79h30q28 0 42.5 13.5t14.5 35.5q0 18 -12.5 31.5t-34.5 13.5q-23 0 -35 -14.5t-13 -35.5z" />
    <glyph glyph-name="twothirds" unicode="&#x2154;" horiz-adv-x="1018" 
d="M54 250v69l135 144q20 22 30.5 35t20 32t9.5 35q0 20 -13 32.5t-34 12.5q-48 0 -50 -58h-103q1 63 40.5 104t117.5 41q67 0 109.5 -37t42.5 -92q0 -39 -21.5 -73t-77.5 -93l-61 -63h166v-89h-311zM701 682h97l-468 -682h-97zM761 315h-102q2 60 42.5 96t110.5 36
q72 0 112 -31.5t40 -82.5q0 -35 -20.5 -60.5t-52.5 -32.5v-3q41 -10 64 -39.5t23 -71.5q0 -59 -44 -99.5t-124 -40.5q-78 0 -119 37.5t-45 105.5h102q5 -61 63 -61q27 0 43.5 18t16.5 48q0 25 -18 41.5t-53 16.5h-31v79h30q28 0 42.5 13.5t14.5 35.5q0 18 -12.5 31.5
t-34.5 13.5q-23 0 -35 -14.5t-13 -35.5z" />
    <glyph glyph-name="oneeighth" unicode="&#x215b;" horiz-adv-x="982" 
d="M158 250v346h-68v88h174v-434h-106zM664 682h97l-468 -682h-97zM723 317q0 -25 16.5 -40.5t39.5 -15.5q25 0 40.5 16t15.5 40t-16 39t-40 15t-40 -15t-16 -39zM715 129q0 -29 18 -47t47 -18t47 17.5t18 47.5q0 29 -18 47.5t-47 18.5q-28 0 -46.5 -18t-18.5 -48zM943 122
q0 -57 -42 -96.5t-121 -39.5q-81 0 -123 37.5t-42 95.5q0 85 77 115v1q-64 27 -64 91q0 53 40.5 87t111.5 34q69 0 109 -33t40 -81q0 -35 -17.5 -61t-47.5 -37v-1q79 -28 79 -112z" />
    <glyph glyph-name="threeeighths" unicode="&#x215c;" horiz-adv-x="1006" 
d="M149 565h-102q2 60 42.5 96t110.5 36q72 0 112 -31.5t40 -82.5q0 -35 -20.5 -60.5t-52.5 -32.5v-3q41 -10 64 -39.5t23 -71.5q0 -59 -44 -99.5t-124 -40.5q-78 0 -119 37.5t-45 105.5h102q5 -61 63 -61q27 0 43.5 18t16.5 48q0 25 -18 41.5t-53 16.5h-31v79h30
q28 0 42.5 13.5t14.5 35.5q0 18 -12.5 31.5t-34.5 13.5q-23 0 -35 -14.5t-13 -35.5zM688 682h97l-468 -682h-97zM747 317q0 -25 16.5 -40.5t39.5 -15.5q25 0 40.5 16t15.5 40t-16 39t-40 15t-40 -15t-16 -39zM739 129q0 -29 18 -47t47 -18t47 17.5t18 47.5q0 29 -18 47.5
t-47 18.5q-28 0 -46.5 -18t-18.5 -48zM967 122q0 -57 -42 -96.5t-121 -39.5q-81 0 -123 37.5t-42 95.5q0 85 77 115v1q-64 27 -64 91q0 53 40.5 87t111.5 34q69 0 109 -33t40 -81q0 -35 -17.5 -61t-47.5 -37v-1q79 -28 79 -112z" />
    <glyph glyph-name="fiveeighths" unicode="&#x215d;" horiz-adv-x="1006" 
d="M180 595l-7 -60q10 2 28 2q73 0 115 -40.5t42 -107.5q0 -63 -43.5 -108t-116.5 -45q-75 0 -115 38t-43 95h106q3 -43 50 -43q22 0 36.5 16t14.5 43q0 65 -80 65q-56 0 -101 -9l24 243h234v-89h-144zM688 682h97l-468 -682h-97zM747 317q0 -25 16.5 -40.5t39.5 -15.5
q25 0 40.5 16t15.5 40t-16 39t-40 15t-40 -15t-16 -39zM739 129q0 -29 18 -47t47 -18t47 17.5t18 47.5q0 29 -18 47.5t-47 18.5q-28 0 -46.5 -18t-18.5 -48zM967 122q0 -57 -42 -96.5t-121 -39.5q-81 0 -123 37.5t-42 95.5q0 85 77 115v1q-64 27 -64 91q0 53 40.5 87
t111.5 34q69 0 109 -33t40 -81q0 -35 -17.5 -61t-47.5 -37v-1q79 -28 79 -112z" />
    <glyph glyph-name="seveneighths" unicode="&#x215e;" horiz-adv-x="971" 
d="M354 684v-79l-163 -355h-117l169 345h-193v89h304zM647 682h97l-468 -682h-97zM712 317q0 -25 16.5 -40.5t39.5 -15.5q25 0 40.5 16t15.5 40t-16 39t-40 15t-40 -15t-16 -39zM704 129q0 -29 18 -47t47 -18t47 17.5t18 47.5q0 29 -18 47.5t-47 18.5q-28 0 -46.5 -18
t-18.5 -48zM932 122q0 -57 -42 -96.5t-121 -39.5q-81 0 -123 37.5t-42 95.5q0 85 77 115v1q-64 27 -64 91q0 53 40.5 87t111.5 34q69 0 109 -33t40 -81q0 -35 -17.5 -61t-47.5 -37v-1q79 -28 79 -112z" />
    <glyph glyph-name="partialdiff" unicode="&#x2202;" horiz-adv-x="642" 
d="M591 460q0 -101 -25 -187q-36 -127 -113.5 -206t-187.5 -79q-94 0 -152.5 57.5t-58.5 147.5q0 94 41 164t100 102t123 32q51 0 88.5 -19.5t55.5 -49.5h2q3 24 3 51q0 74 -36 116.5t-103 42.5q-58 0 -105 -30l-28 84q59 42 157 42q114 0 176.5 -72.5t62.5 -195.5zM447 328
q-24 75 -102 75q-66 0 -114.5 -63t-48.5 -152q0 -46 24.5 -74t64.5 -28q63 0 109 68t67 174z" />
    <glyph glyph-name="Delta" unicode="&#x2206;" horiz-adv-x="664" 
d="M7 0l265 682h134l251 -682h-650zM296 419l-108 -305h285l-107 306q-20 58 -32 104h-5q-13 -52 -33 -105z" />
    <glyph glyph-name="product" unicode="&#x220f;" horiz-adv-x="761" 
d="M683 -235h-140v793h-326v-793h-140v917h606v-917z" />
    <glyph glyph-name="summation" unicode="&#x2211;" horiz-adv-x="666" 
d="M627 -235h-604v99l290 366l-267 348v104h555v-123h-371l250 -327l-272 -344h419v-123z" />
    <glyph glyph-name="minus" unicode="&#x2212;" horiz-adv-x="672" 
d="M594 213h-517v102h517v-102z" />
    <glyph glyph-name="uni2215" unicode="&#x2215;" horiz-adv-x="194" 
d="M282 682h97l-468 -682h-97z" />
    <glyph glyph-name="uni2219" unicode="&#x2219;" horiz-adv-x="276" 
d="M59 275v152h162v-152h-162z" />
    <glyph glyph-name="radical" unicode="&#x221a;" horiz-adv-x="602" 
d="M597 720l-225 -732h-90l-143 315l-61 -37q-6 10 -17.5 31l-17.5 32l147 92l136 -304l184 603h87z" />
    <glyph glyph-name="infinity" unicode="&#x221e;" horiz-adv-x="883" 
d="M826 293q0 -80 -52 -132t-135 -52q-59 0 -111.5 30t-87.5 82h-2q-36 -49 -87.5 -80.5t-110.5 -31.5q-84 0 -136.5 49.5t-52.5 130.5q0 82 53 132.5t134 50.5q121 0 199 -114h3q32 47 82.5 80.5t113.5 33.5q84 0 137 -50t53 -129zM728 291q0 40 -25 67t-74 27
q-78 0 -141 -95q60 -95 143 -95q47 0 72 28t25 68zM389 291q-63 94 -144 94q-44 0 -70 -27.5t-26 -68.5t27.5 -67.5t70.5 -26.5q80 0 142 96z" />
    <glyph glyph-name="integral" unicode="&#x222b;" horiz-adv-x="516" 
d="M471 723l-25 -114q-24 11 -52 11q-69 0 -69 -80v-561q0 -103 -46 -156t-130 -53q-60 0 -108 18l26 114q33 -11 54 -11q66 0 66 77v570q0 203 180 203q54 0 104 -18z" />
    <glyph glyph-name="approxequal" unicode="&#x2248;" horiz-adv-x="672" 
d="M621 390q-73 -96 -172 -96q-62 0 -123 34q-63 35 -102 35q-51 0 -99 -62l-74 71q75 95 169 95q64 0 123 -33q64 -35 104 -35q53 0 99 62zM621 156q-74 -95 -172 -95q-61 0 -123 33q-64 35 -102 35q-52 0 -99 -61l-74 71q75 95 169 95q59 0 123 -33q61 -35 104 -35
q54 0 99 62z" />
    <glyph glyph-name="notequal" unicode="&#x2260;" horiz-adv-x="672" 
d="M424 547h116l-66 -120h121v-101h-168l-65 -121h233v-102h-282l-64 -117h-117l64 117h-119v102h168l65 121h-233v101h280z" />
    <glyph glyph-name="lessequal" unicode="&#x2264;" horiz-adv-x="672" 
d="M594 0h-517v102h517v-102zM594 138l-517 201v89l517 201v-112l-351 -132v-2l351 -132v-113z" />
    <glyph glyph-name="greaterequal" unicode="&#x2265;" horiz-adv-x="672" 
d="M595 0h-517v102h517v-102zM595 339l-517 -201v113l351 132v2l-351 132v112l517 -201v-89z" />
    <glyph glyph-name="lozenge" unicode="&#x25ca;" horiz-adv-x="597" 
d="M314 682l231 -341l-231 -341h-44l-231 340l231 342h44zM292 116l150 225l-150 225l-149 -225z" />
    <glyph glyph-name="f_i" unicode="&#xf001;" horiz-adv-x="596" 
d="M15 365v114h68v73q0 85 44 129.5t128 44.5q43 0 83 -11v-111q-30 8 -54 8q-65 0 -65 -69v-64h104v-114h-104v-365h-136v365h-68zM398 0v479h135v-479h-135zM395 579v129h142v-129h-142z" />
    <glyph glyph-name="f_l" unicode="&#xf002;" horiz-adv-x="598" 
d="M15 365v114h68v73q0 85 44 129.5t128 44.5q43 0 83 -11v-111q-30 8 -54 8q-65 0 -65 -69v-64h104v-114h-104v-365h-136v365h-68zM400 0v720h135v-720h-135z" />
    <glyph glyph-name="uniF8FF" unicode="&#xf8ff;" horiz-adv-x="500" 
d="M12 0v665h475v-665h-475zM88 618l162 -243l161 243h-323zM60 575v-484l40 61l80 120l41 61zM440 575l-162 -242l162 -243v485zM411 48l-161 242l-162 -242h323z" />
    <glyph glyph-name="commaaccent" horiz-adv-x="322" 
d="M102 -154v96h116v-60q0 -76 -36 -127h-63q27 42 27 91h-44z" />
    <glyph glyph-name="zero.denominator" 
d="M26 219q0 116 53.5 172t128.5 56q71 0 121.5 -54t50.5 -173q0 -67 -17.5 -116t-45.5 -73.5t-56 -35t-58 -10.5q-33 0 -62.5 11.5t-56.5 36.5t-42.5 73t-15.5 113zM272 218q0 142 -69 142q-28 0 -48 -33t-20 -106q0 -147 69 -147q29 0 48.5 34t19.5 110z" />
    <glyph glyph-name="one.denominator" 
d="M158 0v346h-68v88h174v-434h-106z" />
    <glyph glyph-name="two.denominator" 
d="M54 0v69l135 144q20 22 30.5 35t20 32t9.5 35q0 20 -13 32.5t-34 12.5q-48 0 -50 -58h-103q1 63 40.5 104t117.5 41q67 0 109.5 -37t42.5 -92q0 -39 -21.5 -73t-77.5 -93l-61 -63h166v-89h-311z" />
    <glyph glyph-name="three.denominator" 
d="M149 315h-102q2 60 42.5 96t110.5 36q72 0 112 -31.5t40 -82.5q0 -35 -20.5 -60.5t-52.5 -32.5v-3q41 -10 64 -39.5t23 -71.5q0 -59 -44 -99.5t-124 -40.5q-78 0 -119 37.5t-45 105.5h102q5 -61 63 -61q27 0 43.5 18t16.5 48q0 25 -18 41.5t-53 16.5h-31v79h30
q28 0 42.5 13.5t14.5 35.5q0 18 -12.5 31.5t-34.5 13.5q-23 0 -35 -14.5t-13 -35.5z" />
    <glyph glyph-name="four.denominator" 
d="M380 68h-62v-68h-102v68h-197v75l197 291h102v-289h62v-77zM179 258l-78 -113h115v125q0 13 2 49h-3q-9 -20 -36 -61z" />
    <glyph glyph-name="five.denominator" 
d="M180 345l-7 -60q10 2 28 2q73 0 115 -40.5t42 -107.5q0 -63 -43.5 -108t-116.5 -45q-75 0 -115 38t-43 95h106q3 -43 50 -43q22 0 36.5 16t14.5 43q0 65 -80 65q-56 0 -101 -9l24 243h234v-89h-144z" />
    <glyph glyph-name="six.denominator" 
d="M28 144q0 76 65 160l105 130h110l-104 -133q5 1 26 1q66 -3 107 -47t41 -111q0 -66 -48 -112t-128 -46t-127 44.5t-47 113.5zM132 144q0 -32 20.5 -52t50.5 -20t50.5 20t20.5 52q0 33 -20 54t-51 21t-51 -21t-20 -54z" />
    <glyph glyph-name="seven.denominator" 
d="M354 434v-79l-163 -355h-117l169 345h-193v89h304z" />
    <glyph glyph-name="eight.denominator" 
d="M147 317q0 -25 16.5 -40.5t39.5 -15.5q25 0 40.5 16t15.5 40t-16 39t-40 15t-40 -15t-16 -39zM139 129q0 -29 18 -47t47 -18t47 17.5t18 47.5q0 29 -18 47.5t-47 18.5q-28 0 -46.5 -18t-18.5 -48zM367 122q0 -57 -42 -96.5t-121 -39.5q-81 0 -123 37.5t-42 95.5
q0 85 77 115v1q-64 27 -64 91q0 53 40.5 87t111.5 34q69 0 109 -33t40 -81q0 -35 -17.5 -61t-47.5 -37v-1q79 -28 79 -112z" />
    <glyph glyph-name="nine.denominator" 
d="M378 289q0 -74 -66 -159l-104 -130h-110l105 133q-6 -2 -26 -2q-69 4 -109 47t-40 111q0 67 49 112.5t127 45.5q79 0 126.5 -43.5t47.5 -114.5zM275 289q0 33 -20.5 53t-50.5 20q-32 0 -52 -19.5t-20 -53.5q0 -33 20 -53t52 -20q31 0 51 19t20 54z" />
    <glyph glyph-name="zero.numerator" 
d="M26 469q0 116 53.5 172t128.5 56q71 0 121.5 -54t50.5 -173q0 -67 -17.5 -116t-45.5 -73.5t-56 -35t-58 -10.5q-33 0 -62.5 11.5t-56.5 36.5t-42.5 73t-15.5 113zM272 468q0 142 -69 142q-28 0 -48 -33t-20 -106q0 -147 69 -147q29 0 48.5 34t19.5 110z" />
    <glyph glyph-name="one.numerator" 
d="M158 250v346h-68v88h174v-434h-106z" />
    <glyph glyph-name="two.numerator" 
d="M54 250v69l135 144q20 22 30.5 35t20 32t9.5 35q0 20 -13 32.5t-34 12.5q-48 0 -50 -58h-103q1 63 40.5 104t117.5 41q67 0 109.5 -37t42.5 -92q0 -39 -21.5 -73t-77.5 -93l-61 -63h166v-89h-311z" />
    <glyph glyph-name="three.numerator" 
d="M149 565h-102q2 60 42.5 96t110.5 36q72 0 112 -31.5t40 -82.5q0 -35 -20.5 -60.5t-52.5 -32.5v-3q41 -10 64 -39.5t23 -71.5q0 -59 -44 -99.5t-124 -40.5q-78 0 -119 37.5t-45 105.5h102q5 -61 63 -61q27 0 43.5 18t16.5 48q0 25 -18 41.5t-53 16.5h-31v79h30
q28 0 42.5 13.5t14.5 35.5q0 18 -12.5 31.5t-34.5 13.5q-23 0 -35 -14.5t-13 -35.5z" />
    <glyph glyph-name="four.numerator" 
d="M380 318h-62v-68h-102v68h-197v75l197 291h102v-289h62v-77zM179 509l-78 -114h115v126q0 12 2 48h-3q-11 -24 -36 -60z" />
    <glyph glyph-name="five.numerator" 
d="M180 595l-7 -60q10 2 28 2q73 0 115 -40.5t42 -107.5q0 -63 -43.5 -108t-116.5 -45q-75 0 -115 38t-43 95h106q3 -43 50 -43q22 0 36.5 16t14.5 43q0 65 -80 65q-56 0 -101 -9l24 243h234v-89h-144z" />
    <glyph glyph-name="six.numerator" 
d="M28 394q0 76 65 160l105 130h110l-104 -133q5 1 26 1q66 -3 107 -47t41 -111q0 -66 -48 -112t-128 -46t-127 44.5t-47 113.5zM132 394q0 -32 20.5 -52t50.5 -20t50.5 20t20.5 52q0 33 -20 54t-51 21t-51 -21t-20 -54z" />
    <glyph glyph-name="seven.numerator" 
d="M354 684v-79l-163 -355h-117l169 345h-193v89h304z" />
    <glyph glyph-name="eight.numerator" 
d="M147 567q0 -25 16.5 -40.5t39.5 -15.5q25 0 40.5 16t15.5 40t-16 39t-40 15t-40 -15t-16 -39zM139 379q0 -29 18 -47t47 -18t47 17.5t18 47.5q0 29 -18 47.5t-47 18.5q-28 0 -46.5 -18t-18.5 -48zM367 372q0 -57 -42 -96.5t-121 -39.5q-81 0 -123 37.5t-42 95.5
q0 85 77 115v1q-64 27 -64 91q0 53 40.5 87t111.5 34q69 0 109 -33t40 -81q0 -35 -17.5 -61t-47.5 -37v-1q79 -28 79 -112z" />
    <glyph glyph-name="nine.numerator" 
d="M378 539q0 -74 -66 -159l-104 -130h-110l105 133q-6 -2 -26 -2q-69 4 -109 47t-40 111q0 67 49 112.5t127 45.5q79 0 126.5 -43.5t47.5 -114.5zM275 539q0 33 -20.5 53t-50.5 20q-32 0 -52 -19.5t-20 -53.5q0 -33 20 -53t52 -20q31 0 51 19t20 54z" />
    <glyph glyph-name="acute.cap" horiz-adv-x="322" 
d="M244 910l45 -100l-196 -78l-37 83z" />
    <glyph glyph-name="breve.cap" horiz-adv-x="322" 
d="M238 891h90q-4 -66 -50.5 -105t-116.5 -39q-77 0 -120.5 39.5t-46.5 104.5h89q2 -24 23 -38.5t55 -14.5q35 0 55 14.5t22 38.5z" />
    <glyph glyph-name="caron.alt" horiz-adv-x="322" 
d="M102 624v96h116v-60q0 -76 -36 -127h-63q27 42 27 91h-44z" />
    <glyph glyph-name="caron.cap" horiz-adv-x="322" 
d="M161 732l-166 103l35 71l131 -60l131 60l34 -71z" />
    <glyph glyph-name="circumflex.cap" horiz-adv-x="322" 
d="M161 906l165 -103l-35 -71l-130 60l-131 -60l-35 71z" />
    <glyph glyph-name="commaaccent.alt" horiz-adv-x="322" 
d="M224 647v-96h-116v60q0 76 36 127h63q-27 -42 -27 -91h44z" />
    <glyph glyph-name="dieresis.cap" horiz-adv-x="322" 
d="M12 771v112h114v-112h-114zM196 771v112h114v-112h-114z" />
    <glyph glyph-name="dotaccent.cap" horiz-adv-x="322" 
d="M101 772v114h119v-114h-119z" />
    <glyph glyph-name="grave.cap" horiz-adv-x="322" 
d="M33 810l44 100l189 -95l-37 -83z" />
    <glyph glyph-name="hungarumlaut.cap" horiz-adv-x="322" 
d="M159 916l66 -83l-158 -108l-55 70zM363 916l66 -84l-159 -107l-55 70z" />
    <glyph glyph-name="macron.cap" horiz-adv-x="322" 
d="M307 773h-293v90h293v-90z" />
    <glyph glyph-name="ring.cap" horiz-adv-x="322" 
d="M106 844q0 -23 16.5 -39.5t39.5 -16.5t39.5 16.5t16.5 39.5t-16.5 39.5t-39.5 16.5t-39.5 -16.5t-16.5 -39.5zM33 844q0 54 37 91.5t92 37.5q54 0 92 -37.5t38 -91.5t-38 -92t-92 -38t-91.5 38t-37.5 92z" />
    <glyph glyph-name="tilde.cap" horiz-adv-x="322" 
d="M65 767h-79q2 63 29.5 100.5t77.5 37.5q37 0 75 -28q36 -27 59 -27q29 0 30 45h79q-6 -137 -110 -137q-42 0 -79 28q-38 27 -53 27q-28 0 -29 -46z" />
    <glyph glyph-name="dollar.oldstyle" horiz-adv-x="518" 
d="M208 627h106v-71q62 -12 98 -50t41 -95h-119q-1 30 -22 45.5t-54 15.5t-50.5 -15.5t-17.5 -37.5q0 -27 21.5 -42.5t92.5 -39.5q84 -29 123.5 -70.5t39.5 -102.5q0 -60 -40 -103.5t-113 -56.5v-76h-106v75q-76 10 -115 52t-41 109h120q3 -75 90 -75q35 0 56 17t21 50
q0 31 -24 49.5t-83 38.5q-86 29 -127 68.5t-41 98.5q0 58 39 96t105 50v70z" />
    <glyph glyph-name="zero.oldstyle" horiz-adv-x="634" 
d="M30 257q0 119 82 198t204 79q126 0 207 -79.5t81 -197.5t-81.5 -199t-206.5 -81q-122 0 -204 80.5t-82 199.5zM171 255q0 -69 41.5 -113.5t104.5 -44.5q66 0 106 44.5t40 113.5q0 68 -39 113t-107 45q-67 0 -106.5 -44t-39.5 -114z" />
    <glyph glyph-name="one.oldstyle" horiz-adv-x="396" 
d="M151 0v390h-115v122h253v-512h-138z" />
    <glyph glyph-name="two.oldstyle" horiz-adv-x="572" 
d="M54 0v100l199 125q58 37 78.5 61.5t20.5 56.5q0 31 -19 50.5t-51 19.5q-36 0 -56 -20t-22 -56h-139q2 89 58 143t162 54q97 0 153.5 -50.5t56.5 -122.5q0 -59 -28 -102t-95 -86l-91 -57h243v-116h-470z" />
    <glyph glyph-name="three.oldstyle" horiz-adv-x="564" 
d="M200 337h-135q1 91 59.5 143t153.5 52q101 0 158 -50t57 -130q0 -51 -28.5 -88t-73.5 -51v-3q65 -19 99 -66t34 -117q0 -96 -71 -160.5t-176 -64.5q-110 0 -174 58t-69 157h134q3 -45 32.5 -73t74.5 -28t76.5 30.5t31.5 83.5t-34 84.5t-92 31.5h-40v109h43q42 0 67 23
t25 62q0 34 -20.5 56t-55.5 22t-54.5 -23t-21.5 -58z" />
    <glyph glyph-name="four.oldstyle" horiz-adv-x="608" 
d="M571 14h-92v-188h-133v188h-312v110l317 388h128v-382h92v-116zM289 276l-120 -146h177v154q0 26 2 78h-3q-14 -31 -56 -86z" />
    <glyph glyph-name="five.oldstyle" horiz-adv-x="540" 
d="M238 153q-80 0 -169 -25l38 383h363v-121h-241l-15 -128q22 6 59 6q115 0 180 -61.5t65 -164.5q0 -99 -68.5 -168.5t-172.5 -69.5q-109 0 -170.5 60.5t-66.5 158.5h135q2 -46 28 -75.5t72 -29.5q42 0 72 32.5t30 85.5q0 54 -37.5 85.5t-101.5 31.5z" />
    <glyph glyph-name="six.oldstyle" horiz-adv-x="597" 
d="M39 227q0 60 24 115t69 120l155 220h153l-150 -213q11 4 41 4q90 0 158.5 -68.5t68.5 -177.5q0 -105 -73.5 -177t-187.5 -72q-115 0 -186.5 69.5t-71.5 179.5zM180 226q0 -56 34 -91.5t83 -35.5q52 0 86 35.5t34 91.5q0 55 -33.5 92t-86.5 37q-51 0 -84 -35.5t-33 -93.5z
" />
    <glyph glyph-name="seven.oldstyle" horiz-adv-x="532" 
d="M483 512v-113l-265 -573h-152l274 564h-304v122h447z" />
    <glyph glyph-name="eight.oldstyle" horiz-adv-x="597" 
d="M78 521q0 81 60.5 132t159.5 51q100 0 160.5 -50.5t60.5 -132.5q0 -44 -23.5 -80.5t-59.5 -54.5v-2q53 -20 86 -69.5t33 -110.5q0 -104 -68.5 -165.5t-188.5 -61.5q-119 0 -187.5 61.5t-68.5 165.5q0 60 32.5 109t85.5 71v2q-36 18 -59 54.5t-23 80.5zM184 210
q0 -56 34.5 -87.5t79.5 -31.5q47 0 80.5 31.5t33.5 87.5q0 50 -32.5 83t-81.5 33q-50 0 -82 -33.5t-32 -82.5zM215 510q0 -36 23 -58t60 -22q38 0 61 22.5t23 58.5q0 35 -24 57.5t-60 22.5q-35 0 -59 -23t-24 -58z" />
    <glyph glyph-name="nine.oldstyle" horiz-adv-x="597" 
d="M558 285q0 -108 -107 -253l-148 -206h-153l157 217q-12 -4 -45 -4q-99 3 -161 72t-62 174t73.5 177t187.5 72q115 0 186.5 -69.5t71.5 -179.5zM417 286q0 56 -34 91.5t-84 35.5q-51 0 -85 -35.5t-34 -91.5t33.5 -92.5t85.5 -36.5t85 35.5t33 93.5z" />
    <glyph glyph-name="cent.oldstyle" horiz-adv-x="535" 
d="M323 -72h-99v100q-81 16 -131.5 76.5t-50.5 152.5q0 85 48.5 147t133.5 77v86h99v-85q69 -12 112.5 -58.5t55.5 -111.5h-125q-19 68 -92 68q-49 0 -75.5 -34t-26.5 -90q0 -55 26 -90t76 -35q37 0 62 19.5t32 55.5h125q-15 -67 -59 -115t-111 -62v-101z" />
    <glyph glyph-name="zero.fitted" horiz-adv-x="584" 
d="M36 344q0 94 23 166.5t62 113t83.5 60.5t93.5 20q46 0 87.5 -18t79.5 -57t60.5 -111.5t22.5 -169.5q0 -87 -17.5 -154.5t-44 -107t-62 -65.5t-67.5 -35t-64 -9q-47 0 -89.5 18t-82 57.5t-62.5 114.5t-23 177zM407 344q0 118 -30.5 178.5t-83.5 60.5q-49 0 -82 -58
t-33 -178q0 -128 32 -188.5t85 -60.5q47 0 79.5 60t32.5 186z" />
    <glyph glyph-name="one.fitted" horiz-adv-x="419" 
d="M160 0v560h-104v122h241v-682h-137z" />
    <glyph glyph-name="two.fitted" horiz-adv-x="557" 
d="M64 0v104l204 229q46 51 71.5 92t25.5 80q0 34 -21.5 56t-58.5 22q-40 0 -62.5 -28t-22.5 -72h-140q2 97 59.5 159t168.5 62q101 0 160.5 -54t59.5 -139q0 -64 -34.5 -122.5t-114.5 -141.5l-118 -125h277v-122h-454z" />
    <glyph glyph-name="three.fitted" horiz-adv-x="569" 
d="M194 504h-135q2 88 61 144t160 56q103 0 161.5 -50.5t58.5 -129.5q0 -54 -33 -94.5t-78 -53.5v-3q62 -15 97.5 -61.5t35.5 -114.5q0 -91 -63.5 -154.5t-179.5 -63.5q-114 0 -174.5 57.5t-65.5 156.5h135q4 -46 31.5 -73t74.5 -27q46 0 74 30.5t28 80.5q0 48 -32.5 76.5
t-92.5 28.5h-42v110h45q46 0 72.5 25t26.5 67q0 32 -21.5 55t-60.5 23q-40 0 -60.5 -24.5t-22.5 -60.5z" />
    <glyph glyph-name="four.fitted" horiz-adv-x="584" 
d="M551 126h-87v-126h-134v126h-294v111l294 445h134v-440h87v-116zM277 419l-118 -177h171v183q0 55 1 83h-3q-16 -36 -51 -89z" />
    <glyph glyph-name="five.fitted" horiz-adv-x="560" 
d="M235 560l-13 -121q16 4 48 4q110 0 176 -61.5t66 -165.5q0 -96 -66 -167t-175 -71q-108 0 -168.5 58.5t-66.5 145.5h144q5 -36 28 -58t65 -22q39 0 66 29t27 76q0 55 -35 85.5t-101 30.5t-153 -18l35 377h353v-122h-230z" />
    <glyph glyph-name="six.fitted" horiz-adv-x="590" 
d="M35 227q0 60 24 115t69 120l155 220h154l-152 -213q12 4 39 4q98 0 164 -70.5t66 -175.5t-73.5 -177t-187.5 -72q-115 0 -186.5 69.5t-71.5 179.5zM176 226q0 -56 34 -91.5t84 -35.5q51 0 85 35.5t34 91.5q0 55 -33.5 92t-85.5 37t-85 -35.5t-33 -93.5z" />
    <glyph glyph-name="seven.fitted" horiz-adv-x="502" 
d="M474 682v-114l-258 -568h-153l268 560h-304v122h447z" />
    <glyph glyph-name="eight.fitted" horiz-adv-x="580" 
d="M201 502q0 -40 26.5 -66.5t61.5 -26.5q40 0 65 26.5t25 66.5t-25 64.5t-64 24.5q-37 0 -63 -25t-26 -64zM186 199q0 -46 29.5 -76.5t76.5 -30.5t76 29t29 78q0 48 -29.5 78.5t-74.5 30.5q-47 0 -77 -30.5t-30 -78.5zM536 192q0 -89 -63.5 -151.5t-181.5 -62.5t-182.5 60
t-64.5 148q0 131 120 180v2q-99 43 -99 146q0 80 61.5 135t164.5 55q101 0 162.5 -53.5t61.5 -128.5q0 -56 -27.5 -97t-72.5 -57v-2q121 -43 121 -174z" />
    <glyph glyph-name="nine.fitted" horiz-adv-x="590" 
d="M554 455q0 -60 -24 -115t-69 -120l-155 -220h-153l150 213q-11 -4 -44 -4q-99 3 -161.5 72t-62.5 174t73.5 177t187.5 72q115 0 186.5 -69.5t71.5 -179.5zM413 456q0 56 -34 91.5t-84 35.5q-51 0 -85 -35.5t-34 -91.5t33.5 -92.5t85.5 -36.5t85 35.5t33 93.5z" />
    <glyph glyph-name="percent.oldstyle" horiz-adv-x="868" 
d="M589 566h96l-407 -566h-96zM34 419q0 74 49.5 120.5t122.5 46.5q71 0 120.5 -46.5t49.5 -120.5t-49.5 -121t-120.5 -47q-73 0 -122.5 47t-49.5 121zM133 420q0 -39 20.5 -61t51.5 -22t51.5 22t20.5 61q0 38 -20.5 60t-51.5 22t-51.5 -22t-20.5 -60zM492 148
q0 74 49.5 120.5t121.5 46.5t121.5 -46.5t49.5 -120.5t-49.5 -121t-121.5 -47t-121.5 47t-49.5 121zM592 149q0 -39 20 -61t51 -22t51.5 22t20.5 61q0 38 -20.5 60t-51.5 22t-51 -22t-20 -60z" />
    <glyph glyph-name="perthousand.oldstyle" horiz-adv-x="1264" 
d="M589 566h96l-407 -566h-96zM34 419q0 74 49.5 120.5t122.5 46.5q71 0 120.5 -46.5t49.5 -120.5t-49.5 -121t-120.5 -47q-73 0 -122.5 47t-49.5 121zM133 420q0 -39 20.5 -61t51.5 -22t51.5 22t20.5 61q0 38 -20.5 60t-51.5 22t-51.5 -22t-20.5 -60zM492 148
q0 74 49.5 120.5t121.5 46.5t121.5 -46.5t49.5 -120.5t-49.5 -121t-121.5 -47t-121.5 47t-49.5 121zM592 149q0 -39 20 -61t51 -22t51.5 22t20.5 61q0 38 -20.5 60t-51.5 22t-51 -22t-20 -60zM887 148q0 74 49.5 120.5t122.5 46.5q72 0 121.5 -46.5t49.5 -120.5t-49.5 -121
t-121.5 -47q-73 0 -122.5 47t-49.5 121zM987 149q0 -39 20.5 -61t51.5 -22t51.5 22t20.5 61q0 38 -20.5 60t-51.5 22t-51.5 -22t-20.5 -60z" />
    <glyph glyph-name="zero.taboldstyle" horiz-adv-x="573" 
d="M29 257q0 123 73 200t185 77q114 0 185.5 -77t71.5 -200q0 -121 -72 -200.5t-185 -79.5q-112 0 -185 78.5t-73 201.5zM170 255q0 -70 33 -114t84 -44q54 0 85 44t31 114q0 69 -31 113.5t-85 44.5t-85.5 -44t-31.5 -114z" />
    <glyph glyph-name="one.taboldstyle" horiz-adv-x="573" 
d="M235 0v390h-116v122h253v-512h-137z" />
    <glyph glyph-name="two.taboldstyle" horiz-adv-x="573" 
d="M63 0v100l191 125q55 37 75 61.5t20 56.5q0 31 -17 50.5t-47 19.5q-33 0 -51.5 -19.5t-20.5 -53.5h-139q2 88 56 141t158 53q94 0 149 -49t55 -122q0 -60 -28.5 -104t-94.5 -86l-90 -57h242v-116h-458z" />
    <glyph glyph-name="three.taboldstyle" horiz-adv-x="573" 
d="M207 337h-135q1 91 59 143t154 52q100 0 157 -50t57 -130q0 -51 -28.5 -88t-72.5 -51v-3q132 -38 132 -183q0 -97 -70.5 -161t-176.5 -64q-109 0 -173 58t-70 157h134q4 -46 33.5 -73.5t74.5 -27.5t76 30.5t31 83.5t-34 84.5t-92 31.5h-40v109h44q42 0 66.5 23t24.5 62
q0 34 -20.5 56t-55.5 22q-34 0 -54 -23.5t-21 -57.5z" />
    <glyph glyph-name="four.taboldstyle" horiz-adv-x="573" 
d="M552 14h-82v-188h-134v188h-304v110l313 388h125v-382h82v-116zM280 272l-115 -142h171v154q0 39 3 78h-3q-27 -53 -56 -90z" />
    <glyph glyph-name="five.taboldstyle" horiz-adv-x="573" 
d="M247 153q-80 0 -169 -25l38 383h363v-121h-241l-15 -128q22 6 59 6q115 0 179.5 -61.5t64.5 -164.5q0 -99 -68 -168.5t-173 -69.5q-109 0 -170 60.5t-66 158.5h134q3 -46 29.5 -75.5t71.5 -29.5q42 0 71.5 32.5t29.5 85.5q0 54 -37 85.5t-101 31.5z" />
    <glyph glyph-name="six.taboldstyle" horiz-adv-x="573" 
d="M27 227q0 60 24 114.5t70 120.5l154 220h153l-150 -213q11 4 38 4q97 0 163.5 -70t66.5 -176q0 -105 -73.5 -177t-187.5 -72q-115 0 -186.5 69.5t-71.5 179.5zM168 226q0 -56 34 -91.5t84 -35.5q51 0 85 35.5t34 91.5q0 55 -33.5 92t-85.5 37t-85 -35.5t-33 -93.5z" />
    <glyph glyph-name="seven.taboldstyle" horiz-adv-x="573" 
d="M503 512v-113l-257 -572h-153l267 563h-300v122h443z" />
    <glyph glyph-name="eight.taboldstyle" horiz-adv-x="573" 
d="M66 521q0 81 60.5 132t159.5 51q100 0 160.5 -50.5t60.5 -132.5q0 -44 -23 -80.5t-60 -54.5v-2q54 -20 86.5 -69.5t32.5 -110.5q0 -104 -68.5 -165.5t-188.5 -61.5q-119 0 -187.5 61.5t-68.5 165.5q0 60 32.5 109t85.5 71v2q-36 18 -59 54.5t-23 80.5zM172 210
q0 -56 34.5 -87.5t79.5 -31.5q47 0 81 31.5t34 87.5q0 50 -32.5 83t-82.5 33t-82 -33.5t-32 -82.5zM203 510q0 -36 23 -58t60 -22q38 0 61 22.5t23 58.5q0 35 -24 57.5t-60 22.5q-35 0 -59 -23t-24 -58z" />
    <glyph glyph-name="nine.taboldstyle" horiz-adv-x="573" 
d="M546 285q0 -108 -107 -253l-148 -206h-153l157 217q-12 -4 -45 -4q-99 3 -161 72t-62 174t73.5 177t187.5 72q115 0 186.5 -69.5t71.5 -179.5zM405 286q0 56 -34 91.5t-84 35.5q-51 0 -85 -35.5t-34 -91.5t33.5 -92.5t85.5 -36.5t85 35.5t33 93.5z" />
    <glyph glyph-name="parenleft.cap" horiz-adv-x="361" 
d="M344 -161h-129q-75 98 -113 225.5t-38 252.5q0 127 38 253.5t113 226.5h129q-76 -98 -112 -224t-36 -256q0 -129 36 -255.5t112 -222.5z" />
    <glyph glyph-name="parenright.cap" horiz-adv-x="361" 
d="M146 -161h-129q75 96 111 222.5t36 255.5q0 130 -36 256t-111 224h129q74 -100 112 -226.5t38 -253.5q0 -126 -38 -253t-112 -225z" />
    <glyph glyph-name="bracketleft.cap" horiz-adv-x="373" 
d="M315 782v-108h-106v-713h106v-107h-228v928h228z" />
    <glyph glyph-name="bracketright.cap" horiz-adv-x="373" 
d="M58 674v108h228v-928h-228v107h106v713h-106z" />
    <glyph glyph-name="braceleft.cap" horiz-adv-x="383" 
d="M330 796v-103q-75 -1 -75 -77v-169q0 -46 -21.5 -80t-63.5 -49v-2q38 -12 61.5 -47t23.5 -86v-165q0 -76 75 -76v-103q-90 0 -144 44.5t-54 119.5v179q0 35 -22 59t-61 26v100q39 1 61 25t22 59v180q0 164 198 165z" />
    <glyph glyph-name="braceright.cap" horiz-adv-x="383" 
d="M53 693v103q198 -1 198 -165v-180q0 -35 22 -59t61 -25v-100q-39 -2 -61 -26t-22 -59v-179q0 -75 -54 -119.5t-144 -44.5v103q75 0 75 76v165q0 51 23.5 86t61.5 47v2q-42 15 -63.5 49t-21.5 80v169q0 76 -75 77z" />
    <glyph glyph-name="exclamdown.cap" horiz-adv-x="276" 
d="M209 682v-129h-142v129h142zM212 0h-148l14 470h120z" />
    <glyph glyph-name="questiondown.cap" horiz-adv-x="467" 
d="M130 356q47 43 47 114h120q0 -59 -9.5 -93.5t-39.5 -67.5q-5 -6 -18.5 -20t-17 -18.5l-13 -16t-12.5 -16t-8.5 -14t-7.5 -16.5t-3.5 -16.5t-1.5 -19.5q0 -31 20.5 -52t52.5 -21q33 0 54.5 23.5t21.5 65.5h133q-2 -97 -59 -153.5t-154 -56.5q-96 0 -153 52.5t-57 133.5
q0 56 26 101.5t79 90.5zM308 682v-129h-141v129h141z" />
    <glyph glyph-name="guillemotleft.cap" horiz-adv-x="502" 
d="M248 328l130 210l82 -44l-86 -166l86 -166l-82 -45zM46 328l130 210l82 -44l-86 -166l86 -166l-82 -45z" />
    <glyph glyph-name="guillemotright.cap" horiz-adv-x="502" 
d="M255 328l-130 -211l-83 45l86 166l-86 165l83 45zM457 328l-130 -211l-83 45l86 166l-86 165l83 45z" />
    <glyph glyph-name="guilsinglleft.cap" horiz-adv-x="300" 
d="M46 328l130 210l82 -44l-86 -166l86 -166l-82 -45z" />
    <glyph glyph-name="guilsinglright.cap" horiz-adv-x="300" 
d="M255 328l-130 -211l-83 45l86 166l-86 165l83 45z" />
    <glyph glyph-name="hyphen.cap" horiz-adv-x="465" 
d="M397 311h-322v105h322v-105z" />
    <glyph glyph-name="endash.cap" horiz-adv-x="554" 
d="M479 311h-404v105h404v-105z" />
    <glyph glyph-name="emdash.cap" horiz-adv-x="1104" 
d="M1029 311h-954v105h954v-105z" />
    <glyph glyph-name="periodcentered.cap" horiz-adv-x="276" 
d="M59 275v152h162v-152h-162z" />
    <glyph glyph-name="at.cap" horiz-adv-x="935" 
d="M884 380q0 -116 -58 -191t-143 -75q-56 0 -90 24t-39 70h-4q-23 -46 -62 -70t-82 -24q-73 0 -113 51t-40 129q0 100 56 176.5t149 76.5q69 0 104 -65h3l9 56h106l-36 -236q-6 -46 -6 -54q0 -22 13 -37.5t41 -15.5q43 0 70 50.5t27 129.5q0 131 -78 201.5t-234 70.5
q-153 0 -242 -98t-89 -237q0 -134 88 -216t237 -82q127 0 202 36l29 -67q-84 -50 -239 -50q-183 0 -297.5 104t-114.5 276q0 177 120.5 296t309.5 119q192 0 297.5 -98.5t105.5 -249.5zM547 372q0 41 -18.5 65.5t-52.5 24.5q-50 0 -81 -48t-31 -115q0 -47 18 -73.5t49 -26.5
q54 0 85 51t31 122z" />
    <glyph glyph-name="sterling.oldstyle" horiz-adv-x="588" 
d="M376 250h-111q3 -16 3 -32q0 -58 -35 -89q33 0 77 -15q48 -19 72 -19q48 0 50 67h123q-3 -102 -44.5 -143t-121.5 -41q-49 0 -123 27q-69 26 -107 26q-59 0 -120 -41v117q105 29 105 107q0 10 -4 36h-91v92h69q-6 36 -6 56q0 78 50.5 133t151.5 55q93 0 147.5 -50.5
t59.5 -138.5h-127q-5 74 -75 74q-77 0 -77 -83q0 -19 5 -46h129v-92z" />
    <glyph glyph-name="Euro.oldstyle" horiz-adv-x="520" 
d="M392 171h-145q34 -85 128 -85q25 0 59.5 7t53.5 16v-107q-57 -26 -126 -26q-201 0 -254 195h-82l24 83h45q-1 11 -1 27q0 11 2 37h-68l24 83h59q27 85 91 135t164 50q70 0 125 -21l-25 -102q-37 16 -94 16q-89 0 -124 -78h201l-20 -83h-202q-1 -12 -1 -35q0 -20 1 -29
h186z" />
    <glyph glyph-name="florin.oldstyle" horiz-adv-x="509" 
d="M59 -105q30 0 47 16.5t23 54.5l44 268h-73v114h89l10 67q14 88 56.5 129.5t120.5 41.5q41 0 79 -8v-112q-25 6 -50 6q-60 0 -71 -71l-9 -53h84v-114h-101l-44 -272q-14 -89 -56 -134.5t-120 -45.5q-40 0 -80 8v112q24 -7 51 -7z" />
    <glyph glyph-name="yen.oldstyle" horiz-adv-x="557" 
d="M60 246v82h110l-129 238h144l58 -114q24 -47 37 -85h2q7 20 36 84l57 115h142l-131 -238h110v-82h-150v-62h150v-83h-150v-101h-136v101h-150v83h150v62h-150z" />
    <glyph glyph-name="numbersign.oldstyle" horiz-adv-x="604" 
d="M563 348h-100l-27 -128h102l-18 -84h-102l-29 -136h-93l29 136h-112l-29 -136h-93l29 136h-99l18 84h98l28 128h-101l19 84h101l28 134h93l-28 -134h112l28 134h93l-28 -134h101zM258 348l-28 -128h113l27 128h-112z" />
    <glyph glyph-name="fi.alt01" horiz-adv-x="587" 
d="M324 365h-106v-365h-135v365h-68v114h68v19q0 103 61.5 165t165.5 62q94 0 150 -48.5t65 -123.5h-135q-5 24 -24.5 43t-57.5 19q-90 0 -90 -110v-26h106v-114zM390 0v479h135v-479h-135z" />
    <glyph glyph-name="fl.alt01" horiz-adv-x="589" 
d="M325 365h-105v-365h-136v365h-69v114h69v40q0 103 58.5 154.5t167.5 51.5q90 0 217 -36v-689h-135v599q-40 12 -79 12q-48 0 -70.5 -25.5t-22.5 -78.5v-28h105v-114z" />
    <glyph glyph-name="f_f.alt01" horiz-adv-x="635" 
d="M220 365v-365h-136v365h-69v114h69v21q0 106 58 165.5t160 59.5q84 0 139 -41q39 42 123 42q44 0 82 -11v-111q-29 8 -54 8q-64 0 -64 -69v-64h103v-114h-103v-365h-136v365h-172zM392 479v73q0 20 3 36q-36 27 -84 27q-91 0 -91 -108v-28h172z" />
    <glyph glyph-name="f_f_i.alt01" horiz-adv-x="897" 
d="M392 365h-172v-365h-136v365h-69v114h69v21q0 105 59.5 165t160.5 60q91 0 157 -53q57 53 157 53q94 0 150.5 -48.5t65.5 -123.5h-135q-5 24 -24.5 43t-57.5 19q-90 0 -90 -109v-27h105v-114h-105v-365h-135v365zM699 0v479h135v-479h-135zM392 479v20q0 48 13 81
q-42 35 -93 35q-92 0 -92 -108v-28h172z" />
    <glyph glyph-name="f_f_l.alt01" horiz-adv-x="897" 
d="M392 365h-172v-365h-136v365h-69v114h69v40q0 102 58.5 154t160.5 52q85 0 149 -48q59 48 161 48q116 0 222 -32v-693h-135v601q-37 10 -82 10q-48 0 -69 -25.5t-21 -78.5v-28h101v-114h-101v-365h-136v365zM392 479v41q0 40 7 65q-37 30 -86 30q-93 0 -93 -108v-28h172z
" />
    </font>
</defs>
</svg>
